<svg xmlns="http://www.w3.org/2000/svg" xml:space="preserve" width="70" height="70"><path d="M63.042 7.269 49.18 59.007 34.279 44.105 15.652 62.731 6.958 54.04l18.627-18.627-14.28-14.281L63.042 7.269m0-4c-.346 0-.693.045-1.035.137L10.271 17.269a4 4 0 0 0-1.794 6.691l11.452 11.453L4.13 51.212a4.001 4.001 0 0 0 0 5.657l8.693 8.691a3.991 3.991 0 0 0 2.828 1.171 3.987 3.987 0 0 0 2.828-1.172l15.799-15.797 12.073 12.072a4 4 0 0 0 6.691-1.793L66.905 8.304a4 4 0 0 0-3.863-5.035z"/><path d="M42.435 18.491a1 1 0 0 1-.271-1.962l2.788-.783a1 1 0 0 1 .541 1.925l-2.788.783a1.02 1.02 0 0 1-.27.037zM20.618 24.616a1 1 0 0 1-.269-1.962l16.143-4.531a1 1 0 0 1 .54 1.925l-16.143 4.531a1.022 1.022 0 0 1-.271.037z"/></svg>