<svg xmlns="http://www.w3.org/2000/svg" xml:space="preserve" width="70" height="70"><path d="M35.221 7c.404 0 .816.044 1.227.138 2.882.652 4.671 3.441 3.998 6.229L29.668 34.37l10.777 22.262c.673 2.789-1.116 5.576-3.998 6.23a5.53 5.53 0 0 1-1.224.138c-2.434 0-4.636-1.615-5.214-4.006L18.623 34.437h-.036l.019-.066-.019-.066h.036l11.386-23.299C30.587 8.614 32.788 7 35.221 7m0-4c-4.183 0-7.802 2.684-8.971 6.585L15.186 32.228a4.032 4.032 0 0 0-.594 2.025 3.996 3.996 0 0 0 .609 2.313l11.036 23.803C27.391 64.295 31.023 67 35.223 67c.707 0 1.416-.08 2.107-.236 2.479-.563 4.568-2.045 5.89-4.174a8.984 8.984 0 0 0 1.114-6.896 4.068 4.068 0 0 0-.288-.805l-9.909-20.467 9.867-19.229a4.02 4.02 0 0 0 .33-.888 8.988 8.988 0 0 0-1.115-6.897c-1.322-2.129-3.412-3.61-5.888-4.171A9.486 9.486 0 0 0 35.221 3z"/><path d="M24.411 31.365a1 1 0 0 1-.893-1.447l5-10a1.001 1.001 0 0 1 1.789.895l-5 10c-.176.35-.529.552-.896.552zm7-14a1 1 0 0 1-.893-1.447l1-2a1 1 0 0 1 1.789.895l-1 2c-.176.35-.529.552-.896.552zM47.412 31.325a4 4 0 1 1 0 8 4 4 0 0 1 0-8m0-4c-4.411 0-8 3.589-8 8s3.589 8 8 8 8-3.589 8-8-3.589-8-8-8z"/></svg>