<svg xmlns="http://www.w3.org/2000/svg" xml:space="preserve" width="70" height="70"><path d="m65.073 55.169-5.49-7.646V31.254c0-12.529-10-23.023-23-23.969V5.208a2 2 0 0 0-4 0v2.087c-12 1.007-22 11.472-22 23.959v16.268l-5.549 7.742c-.871 1.219-.997 2.319-.311 3.651s2.05 1.667 3.548 1.667h53.508c1.498 0 2.775-.335 3.461-1.667s.704-2.527-.167-3.746zM8.271 56.583l6.312-7.779v-17.55c0-10.949 9.094-20.671 20.355-20.671h.174c11.262 0 20.47 9.722 20.47 20.671v17.549l6.196 7.779H8.271z"/><path d="M47.116 19.94c-.438-.339-.97-.258-1.309.177-.339.437-.402 1.064.033 1.403 2.434 1.887 3.742 4.823 3.742 7.855v9.833a1 1 0 1 0 2 0v-9.833c.001-3.645-1.55-7.172-4.466-9.435zM42.883 17.436c-1.206-.354-2.527-.853-3.82-.853h-.098c-.553 0-.952.76-.952 1.313s.496 1.156 1.049 1.156c1.105 0 2.232.238 3.258.539.094.027.188.079.281.079.433 0 .832-.419.96-.855.156-.531-.148-1.224-.678-1.379zM40.965 62.583h-12a2 2 0 0 0 0 4h12a2 2 0 0 0 0-4z"/></svg>