<svg xmlns="http://www.w3.org/2000/svg" xml:space="preserve" width="70" height="70"><path d="m27.527 26.487-10.508 7.038a1.001 1.001 0 0 0 1.114 1.662l10.508-7.038a1 1 0 0 0-1.114-1.662z"/><path d="M64.897 13.138c-.596-.323-.843-.483-1.497-.483-.763 0-1.522.218-2.185.649L40.583 26.391v-9.736c0-1.477-.482-2.833-1.785-3.528-.59-.315-.908-.472-1.554-.472-.779 0-1.556.228-2.227.677L7.625 31.677a3.975 3.975 0 0 0-1.042 1.018V18.5a2 2 0 0 0-4 0v33a2 2 0 0 0 4 0V37.305c.278.395.629.742 1.042 1.018l27.393 18.346a4.001 4.001 0 0 0 2.227.677c.646 0 .963-.156 1.554-.472 1.303-.695 1.785-2.052 1.785-3.528V43.267l20.289 13.402c.671.449 1.6.677 2.378.677.646 0 .959-.156 1.55-.472 1.303-.695 1.783-2.052 1.783-3.528V16.654c-.001-1.467-.396-2.817-1.687-3.516zM36.583 53.346 9.607 35l26.976-18.524v36.87zm26 0-22-14.473v-8.13l22-14.411v37.014z"/></svg>