<svg xmlns="http://www.w3.org/2000/svg" xml:space="preserve" width="70" height="70"><path d="M34.288 58.188a1.03 1.03 0 0 0-.29.711c0 .26.11.52.29.709.19.18.45.291.71.291.261 0 .521-.111.711-.291.18-.189.289-.449.289-.709s-.109-.521-.289-.711c-.37-.369-1.051-.369-1.421 0z"/><path d="M43.257 47.532c-.309-.178-.502-.178-.811 0l-7.537 4.348-7.581-4.348a1.139 1.139 0 0 0-1.07 0c-.311.178-.676.508-.676.865v9.623c0 .357.363.688.673.867.154.088.517.133.69.133s.33-.045.484-.133l7.497-4.334 7.503 4.334c.154.088.326.133.499.133s.173-.045.327-.133c.309-.18.326-.51.326-.867v-9.623c.002-.357-.016-.687-.324-.865zm-15.674 8.756V50.13l5.333 3.08-5.333 3.078zm14 0-5.316-3.047c0-.01-.014-.02-.014-.031 0-.01.023-.02.022-.029l5.308-3.051v6.158zM34.982 35.398c8.375 0 13.5-11.978 13.5-18.5 0-7.444-6.056-13.5-13.5-13.5s-13.5 6.056-13.5 13.5c0 6.522 5.125 18.5 13.5 18.5zm0-4c-4.103 0-7.589-5.657-8.917-10.634.085-.109.161-.234.214-.347l3.12-6.834h11.169l3.119 6.719c.06.125.143.248.24.352-1.306 5.001-4.813 10.744-8.945 10.744zm0-24c5.246 0 9.5 4.254 9.5 9.5 0 .155-.016.325-.023.486l-2.357-5.015c-.166-.347-.518-.786-.902-.786H28.766c-.387 0-.739.441-.904.791l-2.35 5.131c-.012-.206-.029-.415-.029-.61-.001-5.246 4.253-9.497 9.499-9.497z"/><path d="M48.089 41.261a3.982 3.982 0 0 0-2.128-.6c-.671 0-1.342.168-1.949.508A18.526 18.526 0 0 1 35 43.491c-3.171 0-6.288-.803-9.014-2.322a3.994 3.994 0 0 0-4.074.107C15.589 45.247 11 54.202 11 62.622c0 2.209 1.791 3.961 4 3.961h40c2.209 0 4-1.752 4-3.961 0-8.42-4.589-17.389-10.911-21.361zM15 62.583c0-7 3.597-14.541 9.039-17.959 3.221 1.795 6.964 2.833 10.961 2.833s7.74-1.04 10.961-2.837C51.403 48.04 55 55.583 55 62.583H15z"/></svg>