<svg xmlns="http://www.w3.org/2000/svg" xml:space="preserve" width="70" height="70"><path d="M53.162 31.943a.999.999 0 1 0-1.414 1.414l2.122 2.122a.997.997 0 0 0 1.414 0 .999.999 0 0 0 0-1.414l-2.122-2.122zM44.678 23.458a.999.999 0 1 0-1.414 1.414l4.242 4.242a.997.997 0 0 0 1.414 0 .999.999 0 0 0 0-1.414l-4.242-4.242z"/><path d="M66.598 22.751a2 2 0 0 0-2.828 0l-3.486 3.486L44.02 9.975l3.486-3.487a2 2 0 1 0-2.828-2.828L41.15 7.188a8.43 8.43 0 0 0-5.285-1.847c-2.288 0-4.44.894-6.062 2.515a8.517 8.517 0 0 0-2.516 6.021 8.43 8.43 0 0 0 2.484 6.048l.589.589c-4.339 1.313-8.606 4.052-11.65 7.576-3.338 3.864-4.676 8.805-6.093 14.036-1.752 6.472-3.564 13.164-9.266 19.29a1.998 1.998 0 0 0 .689 3.206c3.793 1.597 8.087 2.306 12.497 2.305 12.375 0 25.655-5.585 31.29-12.819 2.511-3.224 4.328-7.482 5.068-11.635a8.476 8.476 0 0 0 3.881.938c2.287 0 4.44-.893 6.063-2.514 3.255-3.254 3.339-8.481.26-11.819l3.498-3.498a2 2 0 0 0 .001-2.829zM44.672 51.65c-6.138 7.88-24.021 13.647-36.433 10.2 4.862-6.205 6.646-12.791 8.24-18.678 1.351-4.986 2.517-9.292 5.259-12.466 3.086-3.574 7.636-6.167 11.956-6.857l15.557 15.557c-.212 4.139-2.004 8.936-4.579 12.244zm15.34-13.583a4.564 4.564 0 0 1-3.234 1.343 4.482 4.482 0 0 1-3.178-1.313l-21-21c-1.763-1.763-1.749-4.635.031-6.413a4.56 4.56 0 0 1 3.233-1.343c1.153 0 2.303.438 3.179 1.313l21 20.999c1.762 1.764 1.748 4.636-.031 6.414z"/><path d="M28.73 57.016a1 1 0 0 0 1.307.541c5.465-2.267 10.056-5.483 12.281-8.604 2.341-3.283 3.346-7.339 2.756-11.127a1.001 1.001 0 0 0-1.977.309c.511 3.276-.367 6.795-2.408 9.658-1.987 2.787-6.362 5.821-11.418 7.918a.998.998 0 0 0-.541 1.305zM25.537 57.039c-.697.209-1.413.398-2.125.563a1 1 0 0 0 .45 1.949 37.393 37.393 0 0 0 2.25-.596 1.001 1.001 0 0 0-.575-1.916z"/></svg>