<svg xmlns="http://www.w3.org/2000/svg" xml:space="preserve" width="70" height="70"><path d="M13.651 54.99a9.103 9.103 0 0 1-.188-1.231.991.991 0 0 0-1.085-.907 1 1 0 0 0-.907 1.085c.05.555.125 1.048.232 1.507a1 1 0 1 0 1.948-.454zM38.417 58.583H25.15c-5.955 0-8.961-.323-10.376-1.565-.416-.365-1.047-.154-1.411.261-.365.415-.324.923.091 1.286 1.865 1.639 5.035 2.019 11.696 2.019h13.267a1 1 0 1 0 0-2.001zM36.824 14.104l-2.25 2a.999.999 0 1 0 1.328 1.494l2.25-2a.999.999 0 0 0 .083-1.411.996.996 0 0 0-1.411-.083zM24.085 17.173a.999.999 0 0 0 .877-1.478l-1.441-2.643a.999.999 0 1 0-1.755.957l1.441 2.643a.998.998 0 0 0 .878.521zM45.807 11.099l-2.229 2.022a1 1 0 1 0 1.344 1.48l2.229-2.022a1 1 0 1 0-1.344-1.48zM25.807 18.099l-2.229 2.022a1 1 0 1 0 1.344 1.48l2.229-2.022a1 1 0 1 0-1.344-1.48zM33.09 10.312l-2.891-.842c-.533-.157-1.085.15-1.239.681s.15 1.085.681 1.239l2.891.842a.999.999 0 1 0 .558-1.92zM16.15 16.355a.999.999 0 0 0-.91 1.082l.258 2.998a1 1 0 1 0 1.992-.172l-.258-2.998a.99.99 0 0 0-1.082-.91zM53.141 17.059a.999.999 0 1 0-1.515 1.305l1.964 2.28a1.002 1.002 0 0 0 1.41.106.999.999 0 0 0 .105-1.41l-1.964-2.281zM41.141 18.059a1 1 0 0 0-1.515 1.305l1.964 2.28a1.002 1.002 0 0 0 1.41.106.999.999 0 0 0 .105-1.41l-1.964-2.281z"/><path d="M64.583 40.055a2 2 0 0 0 2-2v-1.457c0-2.508-1-4.724-4-5.674v-3.34h2.367c1.105 0 2-.686 2-1.79 0-.103-.007-.006-.021-.105-.208-12.728-13.512-22.334-31.108-22.334-17.734 0-31.107 9.583-31.107 22.46 0 1.104.896 1.768 2 1.768h.869v3.028c-2 .663-5 3.132-5 5.987v1.457a2 2 0 0 0 4 0v-1.457c0-.643 1-1.259 1-1.67v11.655h-.869a2 2 0 0 0-2 2c0 13.963 4.734 18 21.108 18h20c16.373 0 21.107-4.037 21.107-18a2 2 0 0 0-2-2h-2.347v-8.528c.001 1.104.897 2 2.001 2zM35.821 6.995c14.466 0 25.602 7.588 26.968 16.588H8.854c1.367-9 12.502-16.588 26.967-16.588zm22.762 20.588v3.028c-2 .663-5 3.132-5 5.987v.688c0 1.077-.687 2.167-2 2.167s-2-1.09-2-2.167v-.688c0-3.458-2.636-6.167-6-6.167s-6 2.709-6 6.167v.688c0 1.114-1.215 2.167-2.5 2.167s-2.5-1.053-2.5-2.167v-.688c0-3.458-2.636-6.167-6-6.167s-6 2.709-6 6.167v.688c0 1.114-1.215 2.167-2.5 2.167s-2.5-1.053-2.5-2.167v-.688c0-2.508-1-4.724-4-5.674v-3.34h47zm-12.761 35h-20c-14.563 0-16.84-3-17.084-12h54.167c-.244 9-2.52 12-17.083 12zm-34.239-16v-9.298c0 3.343 2.977 6.167 6.5 6.167s6.5-2.824 6.5-6.167v-.688c0-1.077.687-2.167 2-2.167s2 1.09 2 2.167v.688c0 3.343 2.977 6.167 6.5 6.167s6.5-2.824 6.5-6.167v-.688c0-1.077.687-2.167 2-2.167s2 1.09 2 2.167v.688c0 3.458 2.636 6.167 6 6.167s6-2.709 6-6.167v-.688c0-.643 1-1.259 1-1.67v11.655h-47z"/></svg>