<svg xmlns="http://www.w3.org/2000/svg" xml:space="preserve" width="70" height="70"><path d="M59.427 2.583h-48c-2.209 0-4.844 2.305-4.844 4.514v56c0 2.209 2.635 3.486 4.844 3.486h48c2.209 0 3.156-1.277 3.156-3.486v-56c0-2.209-.947-4.514-3.156-4.514zm-.844 60h-48v-56h48v56z"/><path d="M54.583 11.583a1 1 0 0 0-1-1h-39a1 1 0 0 0-1 1v12a1 1 0 0 0 1 1h39a1 1 0 0 0 1-1v-12zm-39 1h37v10h-37v-10zM21.583 28.583a1 1 0 0 0-1-1h-6a1 1 0 0 0-1 1v4a1 1 0 0 0 1 1h6a1 1 0 0 0 1-1v-4zm-6 1h4v2h-4v-2zM32.583 28.583a1 1 0 0 0-1-1h-6a1 1 0 0 0-1 1v4a1 1 0 0 0 1 1h6a1 1 0 0 0 1-1v-4zm-2 3h-4v-2h4v2zM43.583 28.583a1 1 0 0 0-1-1h-6a1 1 0 0 0-1 1v4a1 1 0 0 0 1 1h6a1 1 0 0 0 1-1v-4zm-2 3h-4v-2h4v2zM54.583 28.583a1 1 0 0 0-1-1h-6a1 1 0 0 0-1 1v4a1 1 0 0 0 1 1h6a1 1 0 0 0 1-1v-4zm-2 3h-4v-2h4v2zM21.583 36.583a1 1 0 0 0-1-1h-6a1 1 0 0 0-1 1v4a1 1 0 0 0 1 1h6a1 1 0 0 0 1-1v-4zm-6 1h4v2h-4v-2zM32.583 36.583a1 1 0 0 0-1-1h-6a1 1 0 0 0-1 1v4a1 1 0 0 0 1 1h6a1 1 0 0 0 1-1v-4zm-2 3h-4v-2h4v2zM43.583 36.583a1 1 0 0 0-1-1h-6a1 1 0 0 0-1 1v4a1 1 0 0 0 1 1h6a1 1 0 0 0 1-1v-4zm-2 3h-4v-2h4v2zM54.583 36.583a1 1 0 0 0-1-1h-6a1 1 0 0 0-1 1v4a1 1 0 0 0 1 1h6a1 1 0 0 0 1-1v-4zm-2 3h-4v-2h4v2zM21.583 44.583a1 1 0 0 0-1-1h-6a1 1 0 0 0-1 1v4a1 1 0 0 0 1 1h6a1 1 0 0 0 1-1v-4zm-6 1h4v2h-4v-2zM32.583 44.583a1 1 0 0 0-1-1h-6a1 1 0 0 0-1 1v4a1 1 0 0 0 1 1h6a1 1 0 0 0 1-1v-4zm-2 3h-4v-2h4v2zM43.583 44.583a1 1 0 0 0-1-1h-6a1 1 0 0 0-1 1v4a1 1 0 0 0 1 1h6a1 1 0 0 0 1-1v-4zm-2 3h-4v-2h4v2zM54.583 44.583a1 1 0 0 0-1-1h-6a1 1 0 0 0-1 1v12a1 1 0 0 0 1 1h6a1 1 0 0 0 1-1v-12zm-2 11h-4v-10h4v10zM21.583 52.583a1 1 0 0 0-1-1h-6a1 1 0 0 0-1 1v4a1 1 0 0 0 1 1h6a1 1 0 0 0 1-1v-4zm-6 1h4v2h-4v-2zM32.583 52.583a1 1 0 0 0-1-1h-6a1 1 0 0 0-1 1v4a1 1 0 0 0 1 1h6a1 1 0 0 0 1-1v-4zm-2 3h-4v-2h4v2zM43.583 52.583a1 1 0 0 0-1-1h-6a1 1 0 0 0-1 1v4a1 1 0 0 0 1 1h6a1 1 0 0 0 1-1v-4zm-2 3h-4v-2h4v2z"/><path d="M23 13.583h-5c-.553 0-1.417 1.281-1.417 1.834v3a1 1 0 1 0 2 0v-2.834H23a1 1 0 1 0 0-2z"/></svg>