<svg xmlns="http://www.w3.org/2000/svg" xml:space="preserve" width="70" height="70"><path d="M61.987 13.583H51.526l-3.541-6.026a4.001 4.001 0 0 0-3.449-1.974H23.438a4.002 4.002 0 0 0-3.417 1.921l-3.698 6.079H5.988c-2.209 0-4.405 1.888-4.405 4.097v38c0 2.209 2.196 3.903 4.405 3.903h56c2.209 0 3.596-1.694 3.596-3.903v-38c-.001-2.209-1.388-4.097-3.597-4.097zm-56.404 16h14.636c-.938 2-1.479 4.177-1.479 6.506 0 1.938.378 4.494 1.041 5.494H5.583v-12zm56 26h-56v-12h15.143c2.622 5 7.58 7.752 13.262 7.752 5.683 0 10.64-2.752 13.262-7.752h14.333v12zM20.741 36.506c0-7.305 5.942-13.247 13.247-13.247 7.304 0 13.248 5.942 13.248 13.247 0 7.304-5.943 13.246-13.248 13.246S20.741 43.81 20.741 36.506zm40.842 5.077H48.194c.662-1 1.041-3.556 1.041-5.494 0-2.329-.541-4.506-1.479-6.506h13.826v12zm0-14H46.494c-.115 0 .284.238.181.274-2.736-4.099-7.399-6.703-12.687-6.703-5.286 0-9.84 2.39-12.576 6.486a1.743 1.743 0 0 0-.412-.058H5.583v-10h12.989l4.867-8h21.098l4.701 8h12.346v10.001z"/><path d="M30.867 27.743a.975.975 0 0 0 .304-.048 9.267 9.267 0 0 1 2.816-.437 1 1 0 1 0 0-2c-1.168 0-2.321.179-3.425.532a1 1 0 0 0 .305 1.953zM25.524 40.237a9.186 9.186 0 0 1-.783-3.731 9.229 9.229 0 0 1 3.319-7.098 1 1 0 0 0-1.283-1.535 11.222 11.222 0 0 0-4.037 8.633c0 1.577.321 3.104.953 4.538a1 1 0 1 0 1.831-.807zM27.194 11.554a1 1 0 0 0-1.382.302l-.938 1.461a1 1 0 0 0 1.684 1.08l.938-1.461a1 1 0 0 0-.302-1.382zM23.751 16.704c-.465-.3-1.084-.374-1.382.091l-1.928 2.788H11a1 1 0 1 0 0 2h9.988c.34 0 .657.036.841-.25l2.223-3.351c.298-.465.164-.979-.301-1.278z"/></svg>