<svg xmlns="http://www.w3.org/2000/svg" xml:space="preserve" width="70" height="70"><path d="M66.134 29.025c-.759-.956-1.913-1.442-3.134-1.442h-.977c-.306-1-1.038-2.941-2.137-3.994a7.534 7.534 0 0 0-5.322-2.105c-3.633.078-6.607 3.1-7.193 6.1h-3.188l4.542-15.368c.01-.033.02-.124.027-.158a5.86 5.86 0 0 0-.72-4.47 6.019 6.019 0 0 0-3.812-2.71c-3.238-.73-6.497 1.238-7.237 4.308l-2.305 7.813a10.692 10.692 0 0 0-7.405-2.268c-2.864.211-5.474 1.637-7.35 3.811-2.163 2.505-2.998 6.043-2.42 9.043H7c-1.221 0-2.375.501-3.133 1.457s-1.04 2.177-.762 3.366l7 30.043c.422 1.81 2.037 3.134 3.896 3.134h42c1.859 0 3.473-1.338 3.896-3.148l7-29.972a4.098 4.098 0 0 0-.763-3.44zM54.65 25.603c.918-.044 1.802.375 2.47 1.014.278.267.493.966.666.966h-6.271c.505-1 1.712-1.951 3.135-1.98zM40.846 10.326c.255-1.054 1.378-1.752 2.492-1.507.551.125 1.011.419 1.297.878.254.41.338.988.238 1.451l-4.864 16.435h-4.215l5.052-17.257zM22.952 21.152c1.178-1.365 2.817-2.247 4.615-2.379 1.801-.137 3.54.416 4.904 1.594.317.273.695.528 1.083.572l-1.93 6.644H21.597c-.651-2-.166-4.669 1.355-6.431zm39.839 10.431-.905 4H7.933l-.933-4h55.791zm-6.791 30H14l-5.6-24h53.033l-5.433 24z"/><path d="M22.835 42.979a1.001 1.001 0 0 0-.822 1.151l2 12a1 1 0 0 0 1.973-.328l-2-12a.998.998 0 0 0-1.151-.823zM47.164 42.979a.992.992 0 0 0-1.15.823l-2 12a.999.999 0 1 0 1.972.328l2-12a1 1 0 0 0-.822-1.151zM33.583 42.773a1 1 0 0 0-1 1.001v12a1 1 0 1 0 2 0v-12a1 1 0 0 0-1-1.001z"/></svg>