<svg xmlns="http://www.w3.org/2000/svg" xml:space="preserve" width="70" height="70"><path d="M62.583 23.583v24h-56v-24h56m.761-4h-56c-2.209 0-4.761 2.467-4.761 4.676v24c0 2.209 2.552 3.324 4.761 3.324h56c2.209 0 3.239-1.115 3.239-3.324v-24c0-2.209-1.238-4.676-3.447-4.676h.208zM56.583 17.417a2 2 0 0 1-2-2v-4.834h-42v4.834a2 2 0 0 1-4 0V8.638c0-1.104.625-2.055 1.729-2.055h47.104c1.104 0 1.166 1.729 1.166 2.834v6c.001 1.104-.894 2-1.999 2zM57.417 62.583h-46c-1.104 0-2.834-.062-2.834-1.166v-6a2 2 0 0 1 4 0v3.166h42v-3.166a2 2 0 0 1 4 0v6c0 1.104-.062 1.166-1.166 1.166z"/><path d="M8.583 37.417a1 1 0 0 1-1-1v-10c0-.553 1.282-1.834 1.834-1.834h8a1 1 0 1 1 0 2H9.583v9.834a1 1 0 0 1-1 1zM58.417 44.583h-3a1 1 0 1 1 0-2h2.166v-3.166a1 1 0 1 1 2 0v4c0 .553 0 1.166-1.166 1.166zM8.583 43.417a1 1 0 0 1-1-1v-2a1 1 0 1 1 2 0v2a1 1 0 0 1-1 1zM28.617 43.191c-4.046 0-6.627-3.045-6.627-6.962 0-3.879 2.691-6.903 6.701-6.903 3.229 0 5.81 2.245 5.995 5.215h-3.935c-.224-1.188-.984-1.855-2.135-1.855-1.912 0-2.543 1.912-2.543 3.544 0 2.189.965 3.546 2.543 3.546 1.188 0 1.93-.742 2.135-2.116h3.99c-.24 3.655-2.913 5.531-6.124 5.531zM42.713 43.191c-4.047 0-6.627-3.045-6.627-6.962 0-3.879 2.691-6.903 6.701-6.903 3.229 0 5.81 2.245 5.995 5.215h-3.935c-.224-1.188-.984-1.855-2.135-1.855-1.912 0-2.543 1.912-2.543 3.544 0 2.189.965 3.546 2.543 3.546 1.188 0 1.93-.742 2.135-2.116h3.99c-.24 3.655-2.913 5.531-6.124 5.531z"/></svg>