<svg xmlns="http://www.w3.org/2000/svg" xml:space="preserve" width="70" height="70"><path d="M62.131 8.45c-3.445-3.446-8.139-5.344-13.215-5.344-5.678 0-11.348 2.413-15.554 6.619C26.787 16.3 19.139 31.689 20.874 41.44l-7.891 7.891c-2.729-1.6-6.083-1.244-8.414 1.086-2.717 2.717-2.726 7.131-.02 9.84a6.926 6.926 0 0 0 3.15 1.814c.316 1.184.941 1.927 1.815 2.8 1.315 1.314 3.067 1.712 4.933 1.712h.047c1.861 0 3.604-.372 4.91-1.677 2.08-2.08 2.486-5.259 1.21-7.813l7.712-7.619a15.94 15.94 0 0 0 3.802.469c9.404 0 22.688-6.707 28.727-12.747 3.987-3.986 6.328-9.143 6.594-14.54.27-5.47-1.62-10.508-5.318-14.206zM16.605 55.63a2 2 0 0 0-.001 2.828c.911.91 1.098 2.842-.027 3.965a2.891 2.891 0 0 1-2.103.854 3.02 3.02 0 0 1-3.011-2.994 2 2 0 0 0-1.997-1.994 2.948 2.948 0 0 1-2.089-.865c-1.146-1.146-1.138-3.021.02-4.178 1.236-1.238 3.025-1.176 4.35.148a2 2 0 0 0 2.828 0l7.848-7.846a8.77 8.77 0 0 0 1.158 1.451c.276.277.575.531.887.77l-7.863 7.861zm46.849-33.159c-.217 4.403-2.144 8.636-5.427 11.919-5.475 5.474-17.714 11.597-25.898 11.597-2.59 0-4.515-.611-5.72-1.816-5.414-5.416 2.362-24.198 9.781-31.618 3.462-3.462 8.101-5.447 12.726-5.447 4.008 0 7.696 1.481 10.387 4.172 2.889 2.889 4.364 6.865 4.151 11.193z"/><path d="M54.475 11.944a1.001 1.001 0 0 0-.903 1.785 9.647 9.647 0 0 1 2.483 1.796.997.997 0 0 0 1.414 0 .999.999 0 0 0 0-1.414 11.63 11.63 0 0 0-2.994-2.167zM47.407 10.729c-3.204.358-6.274 1.861-8.645 4.232-2.686 2.685-5.54 7.548-7.104 12.104a1.002 1.002 0 0 0 .946 1.325 1 1 0 0 0 .946-.676c1.473-4.293 4.136-8.849 6.625-11.338 2.051-2.052 4.697-3.351 7.453-3.658.549-.062.943-.557.883-1.105a.996.996 0 0 0-1.104-.884zM9.724 52.583h-.011c-.567 0-1.668.747-2.201 1.974-.221.506.012 1.315.519 1.536.13.057.265.174.397.174.387 0 .754-.189.918-.566.132-.301.334-.344.421-.354.537-.023.963-.842.957-1.383-.006-.549-.453-1.381-1-1.381z"/></svg>