<svg xmlns="http://www.w3.org/2000/svg" xml:space="preserve" width="70" height="70"><path d="M60.991 2.583H45.938c-.69 0-1.331.564-1.697 1.15l-4.855 7.85H11.009c-1.606 0-3.057 1.144-3.684 2.623s-.307 3.281.812 4.436l20.66 21.349c.233.24.785.464.785.638v21.955H17.991a2 2 0 0 0 0 4h28a2 2 0 0 0 0-4H33.583V40.737c0-.189.676-.416.958-.707l20.653-21.3c1.118-1.153 1.437-3.046.811-4.525s-2.078-2.622-3.685-2.622h-8.364l3.092-5h13.943a2 2 0 0 0 0-4zm-24.079 13-2.621 4.343c-.781-.182-1.58-.325-2.408-.544-6.065-1.602-11.709.979-14.631 2.781l-6.242-6.58h25.902zM31.56 37.199 18.679 23.78c2.731-1.606 7.621-3.756 12.693-2.413.618.163 1.218.313 1.809.457l-3.913 6.326a2 2 0 0 0 1.695 3.059c.667 0 1.32-.542 1.699-1.15l4.56-7.375c3.093.554 5.704.751 7.83.6L31.56 37.199zm20.014-21.616.537.313-4.684 4.883c-1.963.659-5.065.579-9.067-.068l3.123-5.127h10.091z"/><path d="M24.23 24.298c-.19.18-.29.44-.29.71 0 .26.1.52.29.7.19.189.45.3.71.3.26 0 .52-.11.7-.3a.978.978 0 0 0 0-1.41c-.369-.37-1.03-.37-1.41 0zM29.94 24.008c.26 0 .52-.11.7-.3a.978.978 0 0 0 0-1.41c-.36-.37-1.05-.37-1.41 0a.99.99 0 0 0-.29.71c0 .26.1.52.29.7.181.19.44.3.71.3zM31.23 33.298c-.19.18-.29.44-.29.71 0 .26.1.52.29.7.19.189.45.3.71.3a1.01 1.01 0 0 0 1-1c0-.27-.11-.53-.3-.71-.369-.37-1.039-.37-1.41 0zM36.23 26.298a.976.976 0 0 0-.289.71c0 .26.1.52.289.7.19.189.44.3.711.3a1.013 1.013 0 0 0 1-1c0-.27-.11-.52-.291-.71-.369-.37-1.039-.38-1.42 0z"/></svg>