<svg xmlns="http://www.w3.org/2000/svg" xml:space="preserve" width="70" height="70"><path d="M62.817 2.583H6.026c-2.209 0-3.443 2.06-3.443 4.269v57c0 2.209 1.234 2.731 3.443 2.731h57c2.209 0 3.557-.522 3.557-2.731v-58c0-2.209-1.557-3.269-3.766-3.269zm-.234 4v9h-56v-9h56zm-56 56v-45h56v45h-56z"/><path d="M10.417 12.583h2a1 1 0 1 0 0-2h-2a1 1 0 1 0 0 2zM16.417 12.583h2a1 1 0 1 0 0-2h-2a1 1 0 1 0 0 2zM22.417 12.583h2a1 1 0 1 0 0-2h-2a1 1 0 1 0 0 2zM26.109 33.077a.998.998 0 0 0-1.406.143l-5.944 7.283a.998.998 0 0 0-.021 1.238l5.944 7.801a.997.997 0 0 0 1.401.189 1 1 0 0 0 .188-1.401l-5.466-7.173 5.445-6.673a.996.996 0 0 0-.141-1.407zM44.328 33.245a1 1 0 1 0-1.589 1.213l5.466 7.172-5.445 6.674a.997.997 0 0 0 .143 1.406.997.997 0 0 0 1.406-.142l5.944-7.284a.998.998 0 0 0 .021-1.238l-5.946-7.801zM31.241 31.734a1.001 1.001 0 0 0-1.86.738l7.916 19.918a1 1 0 1 0 1.86-.738l-7.916-19.918z"/></svg>