<svg xmlns="http://www.w3.org/2000/svg" xml:space="preserve" width="70" height="70"><path d="M18.779 43.991a11.931 11.931 0 0 1-.372-.971.995.995 0 0 0-1.265-.631.999.999 0 0 0-.632 1.264c.128.385.272.762.433 1.131a.998.998 0 0 0 1.314.522 1 1 0 0 0 .522-1.315zM30.177 51.565c-3.877 0-7.469-1.799-9.854-4.934a1 1 0 0 0-1.591 1.211c2.767 3.637 6.938 5.723 11.445 5.723a1 1 0 1 0 0-2zM52.393 62.583h-42a2 2 0 0 0 0 4h42a2 2 0 0 0 0-4z"/><path d="M61.745 29.704c-.099-1.025-.961-2.121-1.991-2.121h-7.171v-.916c0-2.209-1.072-5.084-3.281-5.084H11.325c-2.209 0-3.742 1.875-3.742 4.084v12.377c0 12.4 10.296 22.488 22.696 22.488 8.55 0 16.103-4.797 19.909-11.838 2.014-.297 7.931-1.462 10.116-4.376 2.289-3.05 1.693-11.994 1.441-14.614zm-50.162 1.879h37v4h-37v-4zm37-6v4h-37v-4h37zm-18.5 30.949c-10.21 0-18.5-8.277-18.5-18.488v-.461h37v.461c0 10.211-8.29 18.488-18.5 18.488zm27.071-14.77c-.693.924-3.109 1.881-5.261 2.463.572-1.98.689-4.019.689-6.18v-6.461h5.321c.26 4.999.053 9.107-.749 10.178zM29.583 20.208a2 2 0 0 0 2-2v-13a2 2 0 0 0-4 0v13a2 2 0 0 0 2 2zM39.583 20.208a2 2 0 0 0 2-2v-13a2 2 0 0 0-4 0v13a2 2 0 0 0 2 2zM19.583 20.208a2 2 0 0 0 2-2v-13a2 2 0 0 0-4 0v13a2 2 0 0 0 2 2z"/></svg>