<svg xmlns="http://www.w3.org/2000/svg" xml:space="preserve" width="70" height="70"><path d="M35 3C17.354 3 3 17.355 3 35s14.354 32 32 32c17.645 0 32-14.355 32-32S52.645 3 35 3zm0 60C19.535 63 7 50.467 7 35 7 19.535 19.535 7 35 7s28 12.535 28 28c0 15.467-12.535 28-28 28z"/><path d="M26.758 11.977a.999.999 0 0 0-1.302-.551 25.328 25.328 0 0 0-7.286 4.517.999.999 0 1 0 1.324 1.498 23.348 23.348 0 0 1 6.713-4.161 1 1 0 0 0 .551-1.303zM14.584 19.842a25.474 25.474 0 0 0-1.573 2.384 1 1 0 0 0 1.728 1.006c.438-.752.926-1.49 1.45-2.196a1 1 0 0 0-1.605-1.194zM50.506 52.56a23.366 23.366 0 0 1-6.714 4.161 1 1 0 0 0 .752 1.854 25.328 25.328 0 0 0 7.286-4.517.999.999 0 1 0-1.324-1.498zM56.627 46.407a1 1 0 0 0-1.367.361 23.638 23.638 0 0 1-1.449 2.196 1 1 0 0 0 1.606 1.193 25.526 25.526 0 0 0 1.572-2.384 1 1 0 0 0-.362-1.366zM40.373 35.529l6.452-10.743a1 1 0 0 0-1.368-1.375L34.678 29.81c-.029.017-.045.045-.072.064-1.188.127-2.293.626-3.149 1.482a5.197 5.197 0 0 0-1.467 2.986l-6.815 11.349a1 1 0 0 0 1.368 1.374l11.313-6.718c.048-.028.078-.073.12-.108a5.204 5.204 0 0 0 2.905-1.458c.882-.88 1.386-2.025 1.492-3.252zm-.586-2.908a5.22 5.22 0 0 0-.906-1.264 5.228 5.228 0 0 0-1.317-.934l5.505-3.268-3.282 5.466zm-9.3 4.779c.25.501.562.975.97 1.382.423.423.915.746 1.438.999l-5.966 3.542 3.558-5.923zm4.682.919a3.25 3.25 0 1 1 2.298-5.548 3.23 3.23 0 0 1 .947 2.25.959.959 0 0 0-.02.311 3.218 3.218 0 0 1-3.225 2.987z"/></svg>