<svg xmlns="http://www.w3.org/2000/svg" xml:space="preserve" width="70" height="70"><path d="M64.583 23.583a2 2 0 0 0 2-2v-17a2 2 0 0 0-2-2h-18a2 2 0 0 0-2 2v6h-20v-6a2 2 0 0 0-2-2h-18a2 2 0 0 0-2 2v17a2 2 0 0 0 2 2h6v22h-6a2 2 0 0 0-2 2v17a2 2 0 0 0 2 2h18a2 2 0 0 0 2-2v-6h20v6a2 2 0 0 0 2 2h18a2 2 0 0 0 2-2v-17a2 2 0 0 0-2-2h-7v-22h7zm-2-17v13h-14v-13h14zm-56 0h14v13h-14v-13zm14 56h-14v-13h14v13zm42 0h-14v-13h14v13zm-9-17h-6.485a.995.995 0 0 0-.027-1.373l-1.417-1.417a.999.999 0 1 0-1.414 1.414l1.417 1.417c.049.049.11.074.166.11a2 2 0 0 0-1.239 1.849v7h-20v-5.161a.965.965 0 0 0 .527-.258l.707-.707a.999.999 0 0 0 0-1.414.99.99 0 0 0-1.334-.053 1.993 1.993 0 0 0-1.9-1.407h-8v-22h8c.329 0 .635-.087.908-.228.049.111.114.217.205.309l.707.707a.997.997 0 0 0 1.414 0 .999.999 0 0 0 0-1.414l-.708-.707a.981.981 0 0 0-.568-.266c.026-.13.041-.264.041-.401v-7h20v7a2 2 0 0 0 2 2h1.629a.985.985 0 0 0 .277.788.997.997 0 0 0 1.414 0l.707-.707c.023-.024.033-.056.054-.081h2.919v22z"/><path d="m41.405 30.041-1.417 1.417a.999.999 0 1 0 1.414 1.414l1.417-1.417a.999.999 0 1 0-1.414-1.414zM28.654 42.792l-1.417 1.417a.999.999 0 1 0 1.414 1.414l1.417-1.417a.999.999 0 1 0-1.414-1.414zM45.656 25.79l-1.417 1.417a.999.999 0 1 0 1.414 1.414l1.417-1.417a.999.999 0 1 0-1.414-1.414zM32.904 38.542l-1.417 1.417a.999.999 0 1 0 1.414 1.414l1.417-1.417a.999.999 0 1 0-1.414-1.414zM38.569 34.291a.999.999 0 0 0-1.414 0l-.002.002-.001-.001a.999.999 0 1 0-1.414 1.414l.001.001-.001.001a.999.999 0 1 0 1.414 1.414l.001-.001.002.002a.997.997 0 0 0 1.414 0 .999.999 0 0 0 0-1.414l-.002-.002.002-.002a.999.999 0 0 0 0-1.414zM41.402 38.542a.999.999 0 1 0-1.414 1.414l1.417 1.417a.997.997 0 0 0 1.414 0 .999.999 0 0 0 0-1.414l-1.417-1.417zM32.901 30.041a.999.999 0 1 0-1.414 1.414l1.417 1.417a.997.997 0 0 0 1.414 0 .999.999 0 0 0 0-1.414l-1.417-1.417zM28.651 25.791a.999.999 0 1 0-1.414 1.414l1.417 1.417a.997.997 0 0 0 1.414 0 .999.999 0 0 0 0-1.414l-1.417-1.417z"/></svg>