<svg xmlns="http://www.w3.org/2000/svg" xml:space="preserve" width="70" height="70"><path d="M60.093 60.583H10.244c-.999 0-1.844-.527-1.981-1.518l-4.91-35.291c-.102-.73.208-1.405.804-1.839.596-.434 1.384-.479 2.047-.157l17.292 8.362 9.496-19.995c.334-.689 1.033-1.563 1.798-1.563h.001c.765 0 1.463.878 1.798 1.566l9.71 20.155 17.825-8.607c.666-.323 1.455-.199 2.052.232.599.435.91 1.19.809 1.922l-4.909 35.202c-.139.989-.985 1.531-1.983 1.531zm-48.107-4h46.365l4.154-29.74-16.249 8.05c-.478.232-1.028.319-1.529.147a1.957 1.957 0 0 1-1.147-.989l-8.786-18.024-8.571 17.662a1.997 1.997 0 0 1-2.669.931l-15.726-7.8 4.158 29.763z"/><path d="M30.018 54.583H15.486c-.495 0-.916-.154-.989-.643l-1.353-8.896c-.082-.546.294-1.003.84-1.085.538-.073 1.055.111 1.137.658l1.225 7.966h13.671a1 1 0 0 1 .001 2zM13.519 41.178a.999.999 0 0 1-.987-.851l-.604-4a1 1 0 0 1 .839-1.139 1.008 1.008 0 0 1 1.138.84l.604 4a1 1 0 0 1-.99 1.15zM60.019 66.583h-50a2 2 0 0 1 0-4h50a2 2 0 0 1 0 4zM4.998 19.18c-.52 0-1.04-.22-1.41-.59s-.59-.89-.59-1.41c0-.53.22-1.04.59-1.42.74-.74 2.08-.74 2.83 0a2.014 2.014 0 0 1 0 2.83c-.38.37-.89.59-1.42.59zM64.998 19.18c-.52 0-1.04-.22-1.41-.59a2.03 2.03 0 0 1-.59-1.41c0-.53.221-1.04.59-1.42.75-.74 2.08-.74 2.83 0a2.014 2.014 0 0 1 0 2.83c-.38.37-.89.59-1.42.59zM34.998 7.18c-.52 0-1.04-.22-1.41-.59s-.59-.88-.59-1.41.22-1.05.59-1.42c.74-.74 2.08-.74 2.83 0 .37.37.58.89.58 1.42s-.21 1.04-.58 1.41c-.38.37-.89.59-1.42.59z"/></svg>