<svg xmlns="http://www.w3.org/2000/svg" xml:space="preserve" width="70" height="70"><path d="M26.708 40.38c-2.729-1.785-4.23-4.543-4.23-7.767a1 1 0 1 0-2 0c0 3.921 1.823 7.273 5.135 9.44a1 1 0 0 0 1.095-1.673zM32.12 42.131c-.449 0-.902-.038-1.349-.097a.977.977 0 0 0-1.121.844c-.072.547.313.807.861.879.531.07 1.072-.174 1.608-.174h.046c.553 0 .978-.174.978-.727s-.47-.725-1.023-.725z"/><path d="M63.413 14.708c-1.549-1.545-3.83-1.704-6.83-1.707v-6.77c0-2.209-.896-4.648-3.105-4.648h-36c-2.209 0-4.895 2.439-4.895 4.648v6.771c-2 .011-5.285.198-6.834 1.741-.531.531-1.166 1.639-1.166 3.139v6.595c0 3.623 3.774 9.131 8.47 9.312 1.961 9.13 10.53 16.25 19.53 17.117v6.677h.128c-3.506 0-6.149 2.479-6.149 5.767 0 .08.015.233.023.233h-9.168a2 2 0 0 0 0 4h37a2 2 0 0 0 0-4H44.39s.004-.027.004-.041c0-3.342-2.701-5.959-6.149-5.959h-1.661v-6.667c10-.818 17.584-7.956 19.534-17.12 4.839-.105 8.466-5.685 8.466-9.318v-6.595c-.001-1.528-.637-2.643-1.171-3.175zM40.394 63.542c0 .014.004.041.004.041h-9.859c.009 0 .023-.153.023-.233 0-1.304 1.158-1.767 2.149-1.767h5.533c1.069 0 2.15.673 2.15 1.959zM16.583 16.583h36v8h-36v-8zm36-11v9h-36v-9h36zm-44 18.895v-6.595c0-.095.01-.31.005-.318.461-.39 2.995-.543 3.995-.561V29.38c0 .106.007.211.008.316-2.054-.584-4.008-3.544-4.008-5.218zm26.972 22.105h-.153c-9.899 0-18.818-7.579-18.818-17.203v-2.797h36v2.797c-.001 9.624-7.131 17.203-17.029 17.203zm25.028-22.105c0 1.698-1.967 4.72-4.009 5.242.002-.114.009-.226.009-.34V17.001c2 .005 3.575.155 3.976.496 0 0 .024.223.024.386v6.595z"/></svg>