<svg xmlns="http://www.w3.org/2000/svg" xml:space="preserve" width="70" height="70"><path d="m59.073 12.968-7.858-8.7c-.75-.75-1.488-1.685-2.55-1.685h-33.76c-2.209 0-5.322 2.817-5.322 5.026v56c0 2.209 3.113 2.974 5.322 2.974h42c2.209 0 2.678-.765 2.678-2.974V15.796c0-1.061.24-2.078-.51-2.828zm-4.609 1.615h-5.881V8.21l5.881 6.373zm-40.881 48v-56h33v8.834c0 .553.698 1.166 1.251 1.166h7.749v46h-42z"/><path d="M48.219 37.417a1 1 0 0 0-.719-.96l-11.313-3.313a1.017 1.017 0 0 0-.563 0l-11.313 3.313a1 1 0 0 0 0 1.92l3.551 1.04-3.551 1.04a1 1 0 0 0 0 1.92l3.551 1.04-3.551 1.04a1 1 0 0 0 0 1.92l11.313 3.313a1.037 1.037 0 0 0 .562 0L47.5 46.377a1 1 0 0 0 0-1.92l-3.551-1.04 3.551-1.04a1 1 0 0 0 0-1.92l-3.551-1.04 3.551-1.04a1 1 0 0 0 .719-.96zm-12.314-2.271 7.756 2.271-7.756 2.271-7.756-2.271 7.756-2.271zm7.756 10.271-7.756 2.271-7.756-2.271 3.271-.958 4.204 1.231a1.037 1.037 0 0 0 .562 0l4.203-1.231 3.272.958zm0-4-7.756 2.271-7.756-2.271 3.271-.958 4.204 1.231a1.037 1.037 0 0 0 .562 0l4.203-1.231 3.272.958z"/></svg>