<svg xmlns="http://www.w3.org/2000/svg" xml:space="preserve" width="70" height="70"><path d="M63.071 3.583h-56c-2.209 0-4.488 2.243-4.488 4.452v40c0 2.209 2.279 3.548 4.488 3.548h56c2.209 0 3.512-1.339 3.512-3.548v-40c0-2.209-1.303-4.452-3.512-4.452zm-.488 44h-56v-40h56v40z"/><path d="M59.583 12.583a1 1 0 0 0-1-1h-48a1 1 0 0 0-1 1v29a1 1 0 0 0 1 1h48a1 1 0 0 0 1-1v-29zm-48 1h46v27h-46v-27z"/><path d="M55.583 34.917a1 1 0 0 0-1 1v1.666H51a1 1 0 1 0 0 2h5c.553 0 .583-.113.583-.666v-3a1 1 0 0 0-1-1zM55.583 18.917a1 1 0 0 0-1 1v13a1 1 0 1 0 2 0v-13a1 1 0 0 0-1-1zM36 43.583h-1a1 1 0 1 0 0 2h1a1 1 0 1 0 0-2zM49 62.583h-4.059c-.747-5-4.938-8.583-9.995-8.583s-9.249 3.583-9.995 8.583H20a2 2 0 0 0 0 4h29a2 2 0 0 0 0-4zM34.946 58c2.844 0 5.234 1.583 5.921 4.583H29.026c.686-3 3.077-4.583 5.92-4.583z"/></svg>