<svg xmlns="http://www.w3.org/2000/svg" xml:space="preserve" width="70" height="70"><path d="M63.182 21.754C57.994 10.928 46.664 3.583 34.665 3.583h-.082v.016c-4.537.084-8.963 1.303-13.087 3.28C13.938 10.502 8.222 16.953 5.44 24.858c-2.781 7.905-2.328 16.472 1.294 24.03 5.189 10.825 16.296 17.846 28.305 17.846 4.71 0 9.264-1.025 13.541-3.074 7.558-3.623 13.251-9.997 16.033-17.902 2.782-7.905 2.192-16.446-1.431-24.004zm-3.481 1.792a27.245 27.245 0 0 1 2.338 16.182l-24.934-5.479 9.594-23.611a27.244 27.244 0 0 1 13.002 12.908zM35.034 62.76c-10.205 0-19.997-5.731-24.703-15.55-6.536-13.633-.784-29.982 12.853-36.518a27.29 27.29 0 0 1 11.814-2.696c2.717 0 5.401.418 7.971 1.2L32.507 34.939c-.009.021-.011.044-.02.066-.021.056-.037.113-.053.17-.008.03-.021.057-.028.087-.002.011-.001.021-.004.032l-.015.095c-.009.058-.012.117-.016.175-.003.042-.009.085-.009.127 0 .029.002.057.004.086.002.057.01.113.018.17.006.044.007.089.016.133.005.028.014.054.021.082.013.053.031.105.048.157.014.043.024.086.041.128.013.031.029.06.043.09.01.021.014.043.025.063l12.393 24.268a27.188 27.188 0 0 1-9.937 1.892zm13.549-3.614L38.067 38.555l23.046 5.064a27.283 27.283 0 0 1-12.53 15.527z"/><path d="M34.583 3.583v.016c.166-.003.331-.016.497-.016h-.497zM25.089 14.67a23.145 23.145 0 0 0-3.063 1.768 1 1 0 0 0 1.128 1.651 21.231 21.231 0 0 1 2.8-1.615 1 1 0 0 0 .469-1.334.997.997 0 0 0-1.334-.47zM17.846 20.118a22.923 22.923 0 0 0-3.538 25.187 1 1 0 1 0 1.803-.866 20.927 20.927 0 0 1 3.231-22.993 1.001 1.001 0 0 0-1.496-1.328zM46.671 16.389l-6 14a1 1 0 0 0 1.838.788l6-14a1 1 0 0 0-1.838-.788z"/></svg>