<svg xmlns="http://www.w3.org/2000/svg" xml:space="preserve" width="70" height="70"><path d="M67.142 23.641 55.405 10.456c-.379-.423-.92-.873-1.488-.873h-37.98c-.568 0-1.109.45-1.489.874L2.711 23.752c-.691.771-.68 1.94.025 2.697L33.462 59.46c.378.407.909.638 1.464.638s1.086-.257 1.464-.664l30.728-33.042a2.07 2.07 0 0 0 .024-2.751zm-20.587 1.942L34.902 53.414 22.608 25.583h23.947zm-24.83-2-4.417-10H51.58l-4.188 10H21.725zm10.506 28.569L7.586 25.583h12.879l11.766 26.569zm16.471-26.569H62c.094 0 .179-.029.265-.054L37.462 52.318l11.24-26.735zm13.169-2H49.543l3.971-9.447 8.357 9.447zm-46.157-8.732 3.867 8.732H8.027l7.687-8.732z"/><path d="M35 14.583H23a1 1 0 1 0 0 2h12a1 1 0 1 0 0-2zM45 14.583h-5a1 1 0 1 0 0 2h5a1 1 0 1 0 0-2z"/></svg>