<svg xmlns="http://www.w3.org/2000/svg" xml:space="preserve" width="70" height="70"><path d="M47.248 22.583c1.104 0 1.335-.284 1.335-1.389v-8.863c0-1.104-.23-1.748-1.335-1.748H23.936c-1.104 0-2.353.644-2.353 1.748v8.863c0 1.104.248 1.389 1.353 1.389h24.312zm-23.665-10h23v8h-23v-8z"/><path d="m62.341 12.866-8.226-8.649c-.75-.75-1.803-1.634-2.863-1.634H17.439c-2.209 0-3.856 2.716-3.856 4.925v55.075h-3V30.417a2 2 0 0 0-4 0v35c0 1.104 1.229 1.166 2.334 1.166h50.522c2.209 0 4.144-.866 4.144-3.075V15.694c0-1.06-.492-2.078-1.242-2.828zm-3.55 1.717h-7.208V7.86l7.208 6.723zm-34.874 48h-6.334v-56h32.014l-.014 8.834c0 .553.781 1.166 1.334 1.166h8.666v46H23.917z"/><path d="M33.917 26.583h-10a1 1 0 1 0 0 2h10a1 1 0 1 0 0-2zM50.917 26.583h-13a1 1 0 1 0 0 2h13a1 1 0 1 0 0-2zM23.917 33.583h4a1 1 0 1 0 0-2h-4a1 1 0 1 0 0 2zM39.917 32.583a1 1 0 0 0-1-1h-7a1 1 0 1 0 0 2h7a1 1 0 0 0 1-1zM31.917 36.583h-8a1 1 0 1 0 0 2h8a1 1 0 1 0 0-2zM50.917 36.583h-15a1 1 0 1 0 0 2h15a1 1 0 1 0 0-2zM50.917 31.583h-7a1 1 0 1 0 0 2h7a1 1 0 1 0 0-2zM42.917 56.583h-7a1 1 0 1 0 0 2h7a1 1 0 1 0 0-2zM50.917 51.583h-8a1 1 0 1 0 0 2h8a1 1 0 1 0 0-2zM22.917 52.583a1 1 0 0 0 1 1h15a1 1 0 1 0 0-2h-15a1 1 0 0 0-1 1zM30.917 56.583h-7a1 1 0 1 0 0 2h7a1 1 0 1 0 0-2zM23.917 43.583h6a1 1 0 1 0 0-2h-6a1 1 0 1 0 0 2zM50.917 41.583h-17a1 1 0 1 0 0 2h17a1 1 0 1 0 0-2zM36.917 46.583h-13a1 1 0 1 0 0 2h13a1 1 0 1 0 0-2zM50.917 46.583h-10a1 1 0 1 0 0 2h10a1 1 0 1 0 0-2z"/></svg>