<svg xmlns="http://www.w3.org/2000/svg" xml:space="preserve" width="70" height="70"><path d="M35 7c15.465 0 28 12.535 28 28S50.465 63 35 63 7 50.465 7 35 19.535 7 35 7m0-4C17.355 3 3 17.355 3 35s14.355 32 32 32 32-14.355 32-32S52.645 3 35 3z"/><path d="M35 29a6 6 0 1 1 0 12 6 6 0 0 1 0-12m0-2c-4.411 0-8 3.589-8 8s3.589 8 8 8 8-3.589 8-8-3.589-8-8-8z"/><path d="M43.959 57.019a7.335 7.335 0 0 1-2.315-.381l-.597-.198c-1.57-.521-3.774-.82-6.047-.82s-4.477.299-6.047.82l-.597.198a7.34 7.34 0 0 1-2.315.381c-3.265 0-6.017-2.295-6.693-5.583l-.126-.616c-.111-.537-.592-1.197-1.102-1.896-.439-.604-.895-1.228-1.232-1.925-.302-.622-.583-1.252-.861-1.874-.854-1.913-1.661-3.72-2.853-4.777l-.47-.42c-1.549-1.376-2.402-3.223-2.401-5.199 0-1.977.853-3.823 2.402-5.2l.468-.417c.28-.25.255-1.438.237-2.223-.027-1.275-.06-2.722.614-3.812.762-1.233 2.027-1.988 3.144-2.654.988-.59 1.922-1.146 2.054-1.788l.126-.613c.676-3.287 3.429-5.583 6.693-5.583.774 0 1.554.128 2.315.381l.597.198c.674.226 1.608-.175 2.623-.55.998-.369 2.128-.884 3.405-.884h.004c1.21 0 2.333.459 3.42.833 1.066.367 2.126.739 2.642.565l.597-.18a7.326 7.326 0 0 1 2.315-.371c3.265 0 6.018 2.299 6.693 5.586l.126.617c.118.571.925 1.143 1.779 1.747.95.671 2.028 1.434 2.673 2.554.643 1.114.786 2.454.914 3.637.112 1.051.229 2.137.682 2.54l.47.419c1.549 1.376 2.401 3.223 2.401 5.199.001 1.977-.853 3.823-2.402 5.2l-.468.417c-.546.485-.841 1.658-1.127 2.792-.279 1.109-.568 2.257-1.143 3.252-.596 1.032-1.442 1.789-2.188 2.458-.779.697-1.452 1.299-1.591 1.974l-.126.613c-.675 3.287-3.428 5.583-6.693 5.583zM35 53.619c2.515 0 4.887.327 6.678.922l.597.198a5.323 5.323 0 0 0 1.685.279c2.341 0 4.244-1.602 4.734-3.985l.126-.614c.272-1.322 1.261-2.207 2.216-3.062.666-.597 1.354-1.213 1.79-1.968.436-.754.69-1.764.936-2.74.36-1.428.732-2.904 1.737-3.798l.468-.416c1.117-.993 1.732-2.31 1.731-3.707 0-1.397-.614-2.714-1.73-3.706l-.47-.419c-1.029-.914-1.188-2.391-1.342-3.818-.111-1.034-.226-2.104-.657-2.854-.426-.738-1.274-1.338-2.095-1.917-1.134-.802-2.307-1.63-2.584-2.976l-.126-.615c-.49-2.384-2.394-3.985-4.734-3.985-.56 0-1.127.094-1.685.279l-.597.198c-.302.1-.636.15-.991.15-.935 0-1.905-.333-2.932-.687-.933-.32-1.896-.652-2.687-.652-.988.018-1.908.358-2.798.688-.905.335-1.841.682-2.801.682-.399 0-.786-.061-1.147-.181l-.597-.198a5.323 5.323 0 0 0-1.685-.279c-2.341 0-4.244 1.602-4.734 3.985l-.126.614c-.31 1.505-1.671 2.316-2.987 3.103-.965.575-1.962 1.171-2.468 1.988-.362.586-.338 1.718-.315 2.716.031 1.425.063 2.897-.908 3.761l-.468.416c-1.117.993-1.731 2.31-1.731 3.707-.001 1.397.614 2.714 1.73 3.706l.47.419c1.513 1.343 2.405 3.341 3.35 5.456.27.603.542 1.214.834 1.816.261.536.662 1.087 1.05 1.619.612.84 1.245 1.709 1.444 2.672l.126.617c.49 2.383 2.394 3.984 4.734 3.984.56 0 1.127-.094 1.685-.279l.597-.198c1.79-.594 4.162-.921 6.677-.921z"/><path d="m32.878 19.873-.059-.002-2.502-.145a.997.997 0 0 1-.94-1.056.995.995 0 0 1 1.056-.94l2.502.145a1 1 0 0 1-.057 1.998zM46.058 31.918a1 1 0 0 1-.89-1.453l1.135-2.234a1 1 0 1 1 1.783.907l-1.135 2.234a1.003 1.003 0 0 1-.893.546zM20.075 37.928a1 1 0 0 1-.898-1.439l1.1-2.254a1 1 0 0 1 1.797.877l-1.1 2.254a.997.997 0 0 1-.899.562zM27.731 50.392a.996.996 0 0 1-.47-.118l-2.211-1.181a.999.999 0 1 1 .942-1.764l2.211 1.181a.999.999 0 0 1-.472 1.882zM39.07 47.974c-.403 0-.784-.246-.936-.646l-.887-2.345a1 1 0 1 1 1.871-.707l.887 2.345a1 1 0 0 1-.935 1.353zM42.418 52.134a1 1 0 0 1-.265-1.963l2.417-.665a1 1 0 0 1 .531 1.927l-2.417.665a1.014 1.014 0 0 1-.266.036zM49.418 35.134a1 1 0 0 1-.265-1.963l2.417-.665a.999.999 0 1 1 .531 1.927l-2.417.665a1.014 1.014 0 0 1-.266.036zM19.557 30.645a1 1 0 0 1-.673-.26l-1.855-1.687a1.002 1.002 0 0 1 1.346-1.48l1.855 1.687a1.002 1.002 0 0 1-.673 1.74zM42.07 23.974c-.403 0-.784-.246-.936-.646l-.887-2.345a1 1 0 1 1 1.871-.707l.887 2.345a1 1 0 0 1-.935 1.353zM25.07 25.974c-.403 0-.784-.246-.936-.646l-.887-2.345a1 1 0 1 1 1.871-.707l.887 2.345a1 1 0 0 1-.935 1.353zM25.07 42.974c-.403 0-.784-.246-.936-.646l-.887-2.345a1 1 0 1 1 1.871-.707l.887 2.345a1 1 0 0 1-.935 1.353zM45.843 42.779a.998.998 0 0 1-.779-1.625l1.567-1.956a1 1 0 0 1 1.56 1.25l-1.567 1.956a.996.996 0 0 1-.781.375z"/></svg>