<svg xmlns="http://www.w3.org/2000/svg" xml:space="preserve" width="70" height="70"><path d="m24.928 43.559 9.655-4.35v24.75a2 2 0 0 0 4 0V39.578l8.654 3.98c1.006.457 2.145.014 2.602-.992.458-1.005-.01-2.191-1.016-2.648l-11.851-5.387a2.059 2.059 0 0 0-.659-.216 2.032 2.032 0 0 0-1.36.245l-11.774 5.357c-1.006.457-1.403 1.644-.946 2.648.457 1.008 1.693 1.452 2.695.994z"/><path d="M55.583 23.645v-.184c0-10.708-8.288-19.42-18.964-19.42-9.019 0-16.33 6.184-18.401 14.916-8.545.873-15.229 7.997-15.229 16.815 0 9.463 7.626 16.811 17 16.811h8.439a2 2 0 0 0 0-4h-8.439c-7.168 0-13-5.559-13-12.817 0-7.214 5.832-12.736 13-12.736 4.417 0 8.365 2.311 10.831 6.359.574.942 1.805 1.22 2.749.645.943-.575 1.241-1.849.667-2.792-2.754-4.521-7.151-7.52-12.045-8.218 1.931-6.473 7.611-10.982 14.455-10.982 8.613 0 14.938 6.773 14.938 15.42v1.948a2 2 0 0 0 1.875 1.996c5.543.351 9.125 4.467 9.125 10.487v.352c0 5.486-2.273 10.339-8.236 10.339H42.429a2 2 0 0 0 0 4h11.918c7.58 0 12.236-5.623 12.236-14.339v-.352c0-7.492-4-13.005-11-14.248z"/><path d="M49.052 22.961a1 1 0 1 0 2 0c0-6.647-4.727-12.289-11.236-13.415a1 1 0 1 0-.34 1.97c5.548.96 9.576 5.773 9.576 11.445zM34.792 9.62a13.57 13.57 0 0 0-3.096 1.024 1 1 0 0 0 .853 1.808 11.543 11.543 0 0 1 2.637-.872 1 1 0 0 0-.394-1.96z"/></svg>