<svg xmlns="http://www.w3.org/2000/svg" xml:space="preserve" width="70" height="70"><path d="M57.583 34.959a2 2 0 0 0-2 2v25.624h-49v-49H32.41a2 2 0 0 0 0-4h-27c-1.104 0-2.827 1.271-2.827 2.376v53c0 1.104 1.722 1.624 2.827 1.624h53c1.104 0 1.174-.52 1.174-1.624v-28a2 2 0 0 0-2.001-2z"/><path d="M66.253 13.116 57.769 4.63a4.002 4.002 0 0 0-5.657 0L17.648 39.093a3.99 3.99 0 0 0-.992 1.642l-3.543 11.404a4 4 0 0 0 4.763 5.075l12.028-2.918a4 4 0 0 0 1.885-1.06l34.462-34.463a4 4 0 0 0 .002-5.657zm-17.678.706 1.414 1.415-26.819 26.82-1.415-1.415 26.82-26.82zm2.828 2.829 2.829 2.829L27.413 46.3l-2.829-2.829 26.819-26.82zm-34.47 36.674 1.132-3.645 2.712 2.712-3.844.933zm6.121-1.485-4.318-4.316 1.676-5.396 6.293 6.293v.001l.001.001 2.038 2.038-5.69 1.379zm7.187-2.712-1.414-1.414 26.82-26.82 1.414 1.414-26.82 26.82zm28.234-28.234-8.485-8.485 4.95-4.95 8.484 8.486-4.949 4.949zM34.41 55.583a1 1 0 0 0 1 1h14a1 1 0 1 0 0-2h-14a1 1 0 0 0-1 1zM39.409 49.583a1 1 0 0 0 1 1h9a1 1 0 1 0 0-2h-9a1 1 0 0 0-1 1zM49.409 45.583a1 1 0 1 0 0-2h-4a1 1 0 1 0 0 2h4z"/></svg>