<svg xmlns="http://www.w3.org/2000/svg" xml:space="preserve" width="70" height="70"><path d="M35 3C17.355 3 3 17.355 3 35s14.355 32 32 32 32-14.355 32-32S52.645 3 35 3zm0 4c15.465 0 28 12.642 28 28.107 0 .459-.013.476-.034 1.476h-9.383v-6.042c0-2.444-2.019-4.434-4.5-4.434s-4.5 1.989-4.5 4.434v10.613c0 1.342-1.121 2.433-2.5 2.433s-2.5-1.091-2.5-2.433V23.609c0-2.537-2.64-4.434-5-4.434s-5 1.896-5 4.434V41.154c0 1.342-1.121 2.433-2.5 2.433s-2.5-1.091-2.5-2.433V30.541c0-2.444-2.019-4.434-4.5-4.434s-4.5 1.989-4.5 4.434v6.042H7.035c-.022-1-.035-1.017-.035-1.476C7 19.642 19.535 7 35 7zm0 56.214A27.894 27.894 0 0 1 7.209 38.583h10.23c.553 0 .144-.244.144-.797v-7.245c0-1.342 1.121-2.434 2.5-2.434s2.5 1.092 2.5 2.434v10.613c0 2.444 2.019 4.433 4.5 4.433s4.5-1.988 4.5-4.433V23.609c0-1.311 1.649-2.434 3-2.434s3 1.123 3 2.434V41.154c0 2.444 2.019 4.433 4.5 4.433s4.5-1.988 4.5-4.433V30.541c0-1.342 1.121-2.434 2.5-2.434s2.5 1.092 2.5 2.434v7.245c0 .553 1.304.797 1.856.797h9.352A27.894 27.894 0 0 1 35 63.214z"/><path d="M18.832 17.691a.998.998 0 0 0 .662-.251 23.366 23.366 0 0 1 6.714-4.161 1 1 0 1 0-.752-1.854 25.328 25.328 0 0 0-7.286 4.517.999.999 0 0 0 .662 1.749zM13.372 23.593a.998.998 0 0 0 1.367-.361c.438-.752.926-1.491 1.45-2.196a1 1 0 0 0-1.605-1.193 25.478 25.478 0 0 0-1.573 2.384 1 1 0 0 0 .361 1.366zM50.506 52.56a23.366 23.366 0 0 1-6.714 4.161 1 1 0 1 0 .752 1.854 25.328 25.328 0 0 0 7.286-4.517.999.999 0 1 0-1.324-1.498zM56.628 46.407a1 1 0 0 0-1.367.361 23.653 23.653 0 0 1-1.45 2.196 1 1 0 0 0 1.606 1.193 25.478 25.478 0 0 0 1.573-2.384 1 1 0 0 0-.362-1.366z"/></svg>