<svg xmlns="http://www.w3.org/2000/svg" xml:space="preserve" width="70" height="70"><path d="M62.666 32.316 57.758 21.53a2 2 0 1 0-3.64 1.656l3.365 7.397H44.481a2 2 0 0 0 0 4h13.69l-4.055 8.912a1.998 1.998 0 1 0 3.64 1.656l4.939-10.855c.104-.196.172-.407.206-.625.087-.464 0-.945-.235-1.355z"/><path d="M51.583 47.577a2 2 0 0 0-2 2v8.006h-11V15.269c0-1.722-.81-3.25-2.445-3.795L24.536 7.583h25.047v9.994a2 2 0 0 0 4 0v-12c0-1.104.003-1.994-1.102-1.994H12.609l-.325-.109c-.413-.138-.694-.205-1.119-.205-.829 0-1.94.258-2.63.755-1.043.752-1.952 1.959-1.952 3.245v47.572c0 1.721 1.393 3.25 3.026 3.795l24.146 8c.413.137.913.205 1.337.205.83 0 1.395-.258 2.084-.756 1.043-.752 1.407-1.959 1.407-3.244v-1.258h13.898c1.104 0 1.102-.902 1.102-2.006v-10a2 2 0 0 0-2-2zm-17 15.264-24-8V7.504l.217-.159 23.783 7.924v47.572z"/><path d="M30.583 47.577a1 1 0 0 0 1-1v-6a1 1 0 1 0-2 0v6a1 1 0 0 0 1 1z"/></svg>