<svg xmlns="http://www.w3.org/2000/svg" xml:space="preserve" width="70" height="70"><path d="M35 17.5c15.465 0 28 18 28 18s-12.535 17-28 17-28-17-28-17 12.535-18 28-18m0-4c-17.354 0-30.722 18.909-31.282 19.714a4.001 4.001 0 0 0 .063 4.66C4.342 38.635 17.714 56.5 35 56.5s30.658-17.865 31.22-18.626a4.001 4.001 0 0 0 .063-4.66C65.722 32.409 52.354 13.5 35 13.5z"/><path d="M27.912 23.219a1 1 0 0 1-.378-1.926 22.3 22.3 0 0 1 2.396-.826 1 1 0 1 1 .541 1.925c-.722.202-1.455.455-2.182.752a.983.983 0 0 1-.377.075zM12.188 36.407a1 1 0 0 1-.819-1.572c.167-.24 4.158-5.921 10.299-10.27a1.002 1.002 0 0 1 1.157 1.633c-5.858 4.147-9.775 9.724-9.814 9.779a.999.999 0 0 1-.823.43zM35 27.235a8.265 8.265 0 1 1 0 16.53 8.265 8.265 0 0 1 0-16.53m0-2c-5.66 0-10.265 4.604-10.265 10.265S29.34 45.765 35 45.765 45.265 41.16 45.265 35.5 40.66 25.235 35 25.235z"/><circle cx="35" cy="35.5" r="3.14"/></svg>