<svg xmlns="http://www.w3.org/2000/svg" xml:space="preserve" width="70" height="70"><path d="m41.639 26.487 10.509 7.038a1 1 0 0 1-1.114 1.662l-10.509-7.038a1 1 0 0 1 1.114-1.662z"/><path d="M2.583 16.654v36.691c0 1.477.48 2.833 1.783 3.528.591.315.904.472 1.55.472.778 0 1.707-.228 2.378-.677l20.289-13.402v10.079c0 1.477.482 2.833 1.785 3.528.59.315.908.472 1.554.472.779 0 1.556-.228 2.227-.677l27.393-18.346a3.975 3.975 0 0 0 1.042-1.018V51.5a2 2 0 0 0 4 0v-33a2 2 0 0 0-4 0v14.195a3.975 3.975 0 0 0-1.042-1.018L34.148 13.331a4.001 4.001 0 0 0-2.227-.677c-.646 0-.963.156-1.554.472-1.303.695-1.785 2.052-1.785 3.528v9.736L7.95 13.304a3.993 3.993 0 0 0-2.185-.649c-.654 0-.901.16-1.497.483-1.29.699-1.685 2.049-1.685 3.516zm30 22.219V16.476L59.559 35 32.583 53.346V38.873zm-26-22.54 22 14.411v8.13l-22 14.473V16.333z"/></svg>