<svg xmlns="http://www.w3.org/2000/svg" xml:space="preserve" width="70" height="70"><path d="M58.9 26.157a2 2 0 0 0-1.519-1.386L38.76 21.002l.595-2.938a2 2 0 0 0-1.564-2.356l-18.292-3.701a4.976 4.976 0 0 0 1.516-3.578c0-2.762-2.238-5-5-5s-5.062 2.238-5.062 5a5.02 5.02 0 0 0 1.63 3.723v52.416a2 2 0 0 0 4 0v-29.55l14.62 2.849-.559 2.915c-.105.52.015 1.049.308 1.49a1.98 1.98 0 0 0 1.278.828l20.587 4.33c.132.027.269.152.4.152h.02c1.105 0 2-1.01 2-2.113 0-.334-.081-.654-.225-.93l-3.385-9.597 6.769-6.768a2.04 2.04 0 0 0 .504-2.017zm-41.563 4.922c-.236-.046-.754-.042-.754-.007V15.523l18.393 3.708-.563 2.934h.015L32.02 33.947l-14.683-2.868zm30.572 1.87a2 2 0 0 0-.474 2.086l2.717 7.66-15.16-3.066 2.975-14.703 14.96 3.027-5.018 4.996z"/><path d="m30.211 21.45-10-2a1 1 0 0 0-.393 1.961l10 2a.998.998 0 0 0 1.176-.784.998.998 0 0 0-.783-1.177zM40.803 30.408l3.029.656a1.001 1.001 0 0 0 .424-1.955l-3.029-.656a1.003 1.003 0 0 0-1.189.766.999.999 0 0 0 .765 1.189z"/></svg>