<svg xmlns="http://www.w3.org/2000/svg" xml:space="preserve" width="70" height="70"><path d="m48.051 6.334-7.455 26.249h11.066L27.051 62.63l4.829-26.047H18.338L48.051 6.334m.001-3.751c-.049 0-.098.203-.147.205-.84.03-1.613.419-2.244.89-.156.117-.306.296-.446.438l-29.713 29.92c-1.139 1.146-1.477 2.729-.856 4.22.621 1.492 2.078 2.328 3.693 2.328h8.744l-3.966 21.83c-.327 1.791.595 3.649 2.243 4.419.543.254 1.119.413 1.689.413a3.975 3.975 0 0 0 3.081-1.43l24.612-29.682c.989-1.193 1.199-3.351.54-4.753-.659-1.403-2.07-2.797-3.62-2.797h-5.791l5.988-20.867c.126-.388.194-.752.194-1.184 0-2.182-1.744-3.949-3.915-3.949l-.086-.001z"/><path d="M27.051 34.282a1 1 0 0 1-.733-1.681l13-14a1 1 0 1 1 1.465 1.361l-13 14a.991.991 0 0 1-.732.32zM40.161 42.282a.999.999 0 0 1-.788-1.614l3.889-5a1 1 0 1 1 1.578 1.228l-3.889 5a1 1 0 0 1-.79.386zM37.05 46.282a.984.984 0 0 1-.612-.211.997.997 0 0 1-.176-1.402l.777-1a.996.996 0 0 1 1.402-.176.997.997 0 0 1 .176 1.402l-.777 1a.995.995 0 0 1-.79.387z"/></svg>