<svg xmlns="http://www.w3.org/2000/svg" xml:space="preserve" width="70" height="70"><path d="M63.495 16.583H38.626l-2.849-4.984a4 4 0 0 0-3.473-2.016h-18.81c-2.209 0-4.912 1.847-4.912 4.056v42.944h-2V17.917a2 2 0 0 0-4 0v40c0 1.104.729 2.666 1.834 2.666h59.078c2.209 0 3.088-1.735 3.088-3.944v-36c.001-2.209-.878-4.056-3.087-4.056zm-.912 40h-50v-43h19.304l4.417 7h26.278v36z"/><path d="M59.583 44.917a1 1 0 0 0 1-1v-2a1 1 0 1 0-2 0v2a1 1 0 0 0 1 1zM35.417 52.583a1 1 0 0 0 1 1h23c1.417 0 1.166-1.113 1.166-1.666v-4a1 1 0 1 0-2 0v3.666H36.417a1 1 0 0 0-1 1z"/></svg>