<svg xmlns="http://www.w3.org/2000/svg" xml:space="preserve" width="70" height="70"><path d="M63.799 35.485a12.775 12.775 0 0 0-9.095-3.768c-1.424 0-2.833.236-4.169.691a41.896 41.896 0 0 1-4.392-3.311c.987-1.079 2.765-2.273 5.913-2.587 2.397-.24 4.369-1.29 5.701-3.036 2.758-3.612 1.96-8.916 1.859-9.509a1.994 1.994 0 0 0-2.305-1.639 2 2 0 0 0-1.639 2.305c.007.041.64 4.143-1.096 6.416-.661.867-1.617 1.353-2.92 1.482-4.298.429-6.886 2.17-8.396 3.788-1.951-2.134-3.574-4.48-4.969-7.159 1.188-4.397-.034-9.214-3.312-12.491a12.794 12.794 0 0 0-9.107-3.772c-3.441 0-6.676 1.34-9.108 3.772l-5.912 5.912c-4.141 4.144-11.086 17.472-5.17 23.39 1.297 1.296 3.073 1.953 5.279 1.953 2.924 0 6.417-1.203 9.206-2.247L34.791 50.3c-1.884 5.023-3.827 10.951-.293 14.484 1.058 1.059 3.005 2.32 6.267 2.32 6.202 0 14.062-4.43 17.123-7.492l5.911-5.91c5.022-5.023 5.022-13.195 0-18.217zm-2.828 15.389-5.911 5.91c-2.659 2.66-9.626 6.32-14.295 6.32-1.421 0-2.629-.34-3.438-1.148-2.213-2.213.85-9.16 2.115-12.662L21.174 31.026c-2.618.946-7.161 2.896-10.213 2.896-1.03 0-1.892-.223-2.45-.781-3.468-3.469 1.704-14.265 5.173-17.732l5.911-5.912a8.852 8.852 0 0 1 6.28-2.601c2.272 0 4.545.866 6.279 2.601 2.686 2.686 3.283 6.661 1.809 9.93 3.118 6.614 7.614 12.289 16.25 17.506a8.886 8.886 0 0 1 4.491-1.215 8.83 8.83 0 0 1 6.267 2.596 8.882 8.882 0 0 1 0 12.56z"/><path d="M32.492 29.109a.999.999 0 1 0-1.414 1.414l2.955 2.955a.997.997 0 0 0 1.414 0 .999.999 0 0 0 0-1.414l-2.955-2.955zM26.582 15.809a.999.999 0 0 0-1.414 0l-2.987 2.987-2.987-2.987a.999.999 0 1 0-1.414 1.414l2.987 2.987-2.987 2.987a.999.999 0 1 0 1.414 1.414l2.987-2.987 2.987 2.987a.997.997 0 0 0 1.414 0 .999.999 0 0 0 0-1.414l-2.987-2.987 2.987-2.987a.999.999 0 0 0 0-1.414zM55.46 50.534a.986.986 0 0 0-.29.709c0 .26.1.52.29.701a.999.999 0 0 0 .71.299c.26 0 .52-.109.71-.289.18-.191.29-.451.29-.711s-.11-.52-.29-.709c-.37-.371-1.061-.371-1.42 0zM55.46 43.144c-.19.189-.29.449-.29.709 0 .271.1.521.29.711.189.18.439.289.71.289a1.008 1.008 0 0 0 1-1c0-.26-.11-.52-.3-.709-.37-.372-1.04-.372-1.41 0zM51.03 50.534a.996.996 0 0 0-.301.709c0 .26.11.52.29.701.19.189.45.299.71.299.271 0 .521-.109.71-.289.19-.191.29-.451.29-.711 0-.27-.1-.52-.29-.709-.359-.371-1.049-.371-1.409 0zM51.03 43.144c-.19.189-.301.449-.301.709 0 .271.11.531.301.711.18.18.439.289.699.289.271 0 .521-.109.71-.289a.987.987 0 0 0 .29-.711c0-.26-.1-.52-.29-.709-.37-.372-1.04-.372-1.409 0zM46.59 50.534c-.18.189-.29.439-.29.709 0 .26.11.52.29.701.19.189.45.299.71.299s.52-.109.71-.289a1.012 1.012 0 0 0 0-1.42c-.361-.371-1.05-.371-1.42 0zM46.59 43.144c-.18.189-.29.449-.29.709 0 .271.11.521.29.711.19.18.45.289.71.289s.52-.109.71-.289c.19-.189.29-.449.29-.711 0-.26-.1-.52-.29-.709a1.043 1.043 0 0 0-1.42 0zM38.404 35.02a.999.999 0 1 0-1.414 1.414l2.955 2.956a.997.997 0 0 0 1.414 0 1 1 0 0 0 0-1.415l-2.955-2.955z"/></svg>