<svg xmlns="http://www.w3.org/2000/svg" xml:space="preserve" width="70" height="70"><path d="M48.089 41.256a3.977 3.977 0 0 0-2.128-.595c-.671 0-1.342.168-1.949.508A18.526 18.526 0 0 1 35 43.491c-3.171 0-6.288-.803-9.016-2.322a3.996 3.996 0 0 0-4.074.107C15.589 45.247 11 54.202 11 62.622c0 2.209 1.791 3.961 4 3.961h40c2.209 0 4-1.752 4-3.961 0-8.42-4.589-17.393-10.911-21.366zM15 62.583c0-7 3.597-14.541 9.038-17.959 3.222 1.795 6.965 2.828 10.962 2.828s7.74-1.033 10.961-2.83C51.403 48.042 55 55.583 55 62.583H15zM17.71 36.094c.7.745 1.608 1.155 2.557 1.155 1.23 0 2.349-.691 2.989-1.848l2.9-5.233c2.248 3.027 5.237 5.229 8.826 5.229 3.6 0 6.597-2.215 8.847-5.256l2.915 5.26c.641 1.156 1.759 1.847 2.989 1.848.948 0 1.856-.41 2.557-1.155l3.834-4.078c.859-.914 1.172-2.047.857-3.107-.315-1.06-1.195-1.838-2.417-2.135l-7.833-1.899c1.142-2.832 1.751-5.729 1.751-7.977 0-7.444-6.056-13.5-13.5-13.5s-13.5 6.056-13.5 13.5c0 2.251.611 5.151 1.754 7.985l-7.803 1.891c-1.22.297-2.1 1.075-2.415 2.135-.314 1.061-.002 2.193.857 3.107l3.835 4.078zm34.516-5.771-2.342 2.491-1.959-3.534 4.301 1.043zm-17.244 1.075c-4.3 0-7.929-6.214-9.1-11.345 5.469-1.643 8.481-4.605 9.748-6.15 3.584 3.223 7.042 4.132 8.755 4.39-.629 5.336-4.594 13.105-9.403 13.105zm0-24c5.034 0 9.144 3.92 9.469 8.873-1.632-.293-4.941-1.274-8.248-4.58a1 1 0 0 0-1.562.19c-.026.044-2.593 4.141-9.091 6.181a11.626 11.626 0 0 1-.067-1.164c-.001-5.246 4.253-9.5 9.499-9.5zM22.079 29.275l-1.962 3.539-2.344-2.492 4.306-1.047z"/><path d="M34.875 49.46c-2.404 0-4 3.027-4 5.029 0 2.189 1.794 3.971 4 3.971s4-1.781 4-3.971c0-2.002-1.596-5.029-4-5.029zm0 7c-1.103 0-2-.883-2-1.971 0-1.223 1.054-3.029 2-3.029s2 1.807 2 3.029c0 1.088-.897 1.971-2 1.971z"/><circle cx="28.156" cy="50.054" r="1.406"/><circle cx="24.156" cy="48.054" r="1.406"/><circle cx="41.156" cy="50.054" r="1.406"/><circle cx="45.156" cy="48.054" r="1.406"/></svg>