<svg xmlns="http://www.w3.org/2000/svg" xml:space="preserve" width="70" height="70"><path d="M50.013 17.27c-.253 0-.499.032-.73.096-2.557.697-10.503 7.352-10.505 11.31 0 3.245 5.473 5.688 9.021 5.688.798 0 1.505-.115 2.1-.342 3.39-1.289 8.034-5.626 7.505-8.974-.451-2.858-4.273-7.778-7.391-7.778zm-.826 14.881c-.362.139-.842.211-1.388.211-3.019 0-7.021-2.103-7.021-3.687.002-2.717 6.925-8.807 9.031-9.381a.765.765 0 0 1 .204-.025c1.707 0 5.048 3.756 5.416 6.09.317 2.012-3.392 5.708-6.242 6.792z"/><path d="M60.008 12.091a3.999 3.999 0 0 0-.845-4.412l-3.34-3.341a3.997 3.997 0 0 0-5.487-.16c-.297.264-7.323 6.519-12.366 11.393-2.484 2.403-4.298 5.194-5.897 7.657-1.263 1.943-2.456 3.778-3.742 5.065-1.289 1.288-3.132 2.487-5.083 3.757-2.469 1.607-5.268 3.429-7.668 5.91-4.875 5.045-11.159 12.099-11.424 12.396a3.999 3.999 0 0 0 .159 5.486l3.34 3.342a3.998 3.998 0 0 0 4.514.801c4.115 2.926 10.373 6.849 14.331 6.849.44 0 .871-.041 1.278-.122 5.856-1.174 14.119-11.802 15.411-17.074.645-2.625-.151-5.286-1.32-7.811 1.9.878 3.89 1.549 5.882 1.549a8.05 8.05 0 0 0 1.926-.227c5.272-1.292 15.902-9.554 17.075-15.408.777-3.898-2.878-10.252-6.744-15.65zm2.821 14.864c-.745 3.718-9.726 11.236-14.105 12.31a4.091 4.091 0 0 1-.974.111c-3.976 0-9.665-4.849-12.242-4.849-.29 0-.541.062-.745.198-1.454 2.172 5.613 9.588 4.541 13.96-1.074 4.378-8.591 13.358-12.309 14.104-.153.03-.318.045-.495.045-4.133 0-14.527-7.965-14.527-7.965l-1.488 1.488-3.34-3.342s6.438-7.232 11.311-12.274c3.932-4.064 9.329-6.245 12.704-9.62 3.374-3.374 5.526-8.742 9.592-12.675 5.04-4.873 12.243-11.28 12.243-11.28l3.34 3.341-1.424 1.425c-.001 0 8.66 11.305 7.918 15.023z"/><path d="M28.714 38.737c-3.961.001-10.614 7.948-11.31 10.504-.257.941-.004 2.014.753 3.185 1.472 2.279 4.709 4.586 6.928 4.938.182.028.366.042.556.042 3.331 0 7.274-4.542 8.42-7.547.935-2.455-.199-6.459-1.785-8.76-1.065-1.544-2.296-2.362-3.562-2.362zm3.478 10.41c-1.06 2.78-4.71 6.555-6.795 6.241-1.687-.268-4.388-2.234-5.56-4.048-.416-.646-.6-1.219-.503-1.573.573-2.106 6.662-9.029 9.38-9.03.553 0 1.269.56 1.915 1.497 1.44 2.088 2.169 5.32 1.563 6.913z"/><path d="M27.26 43.583h-.033c-.552 0-.985.929-.967 1.479l.205 6.806c.017.541.461.715.998.715h.033c.552 0 .985-.514.967-1.065l-.205-6.392c-.016-.541-.461-1.543-.998-1.543zM23.583 45.267a1 1 0 0 0-1 1v4a1 1 0 1 0 2 0v-4a1 1 0 0 0-1-1zM48.583 22.267a1 1 0 0 0-1 1v4a1 1 0 1 0 2 0v-4a1 1 0 0 0-1-1zM46.332 23.583h-.014c-.553 0-.994.608-.986 1.161l.068 5c.008.547.454.839 1 .839h.014c.553 0 .994-.426.986-.978l-.068-4.815c-.008-.549-.454-1.207-1-1.207zM52.655 12.169a1 1 0 0 0 .707-.292l.708-.707a1.001 1.001 0 0 0-1.414-1.416l-.708.707a1.001 1.001 0 0 0 .707 1.708zM10.656 51.475l-.707.707a.999.999 0 1 0 1.414 1.414l.707-.707a.999.999 0 1 0-1.414-1.414z"/></svg>