<svg xmlns="http://www.w3.org/2000/svg" xml:space="preserve" width="70" height="70"><path d="M34.801 33.099c6.73 0 10.252-9.981 10.252-15.332 0-6.3-4.6-11.426-10.252-11.426-5.654 0-10.255 5.126-10.255 11.426 0 5.35 3.522 15.332 10.255 15.332zm0-22.758c3.453 0 6.252 3.324 6.252 7.426 0 4.1-2.799 11.332-6.252 11.332-3.455 0-6.254-7.232-6.254-11.332 0-4.102 2.799-7.426 6.254-7.426zM45.1 40.093c-.695-.498-1.514-.721-2.334-.721-.745 0-1.492.224-2.148.642-1.77 1.129-3.781 1.732-5.818 1.732-2.036 0-4.048-.592-5.818-1.721a3.993 3.993 0 0 0-2.149-.622c-.819 0-1.638.252-2.333.751-5.155 3.703-8.235 12.789-8.235 19.551 0 2.209 1.791 3.878 4 3.878h29.073c2.209 0 4-1.669 4-3.878-.002-6.762-3.082-15.909-8.238-19.612zm-24.837 19.49c0-6 2.613-13.46 6.568-16.3 2.343 1.49 5.063 2.35 7.968 2.35 2.906 0 5.627-.859 7.967-2.35 3.955 2.84 6.57 10.3 6.57 16.3H20.263z"/><path d="M30.92 47.391a10.855 10.855 0 0 1-1.771-.915.999.999 0 0 0-1.121.031c-3.064 2.203-4.432 5.424-4.432 10.443a1 1 0 1 0 2 0c0-4.061.93-6.625 3.086-8.423.486.273.984.515 1.49.719a1 1 0 0 0 .748-1.855zM34.799 48.146a10.9 10.9 0 0 1-.994-.048 1 1 0 0 0-.184 1.992c.389.036.781.056 1.178.056a1 1 0 1 0 0-2zM57.867 40.813c-.57-.33-1.323-.335-1.919-.054-.261.123-1.244.375-1.772.51-.667.174-1.244.313-1.649.467a1.982 1.982 0 0 0-1.167 2.56c.388 1.033 1.54 1.523 2.576 1.138.204-.077.778-.288 1.24-.405.539-.141 1.003-.386 1.402-.503 3.129 2.494 5.531 9.058 6.139 13.058h-5.644a2 2 0 0 0 0 4h7.794c1.104 0 2-.649 2-1.754 0-5.719-3.506-15.82-9-19.017zM16.715 44.318a2.008 2.008 0 0 0-1.17-2.582c-.127-.048-.212-.127-.438-.305-.246-.191-.582-.483-1.048-.726-.607-.316-1.334-.359-1.927-.014-5.493 3.197-8.999 13.42-8.999 19.139 0 1.104.896 1.753 2 1.753h3.94a2 2 0 0 0 0-4H7.282c.591-4 2.875-10.208 5.875-12.839.262.174.581.597.982.747a2 2 0 0 0 2.576-1.173zM19.706 36.096c.199.025.422.039.661.039 1.701 0 4.289-.72 6.104-3.442a2 2 0 1 0-3.328-2.218c-1.204 1.807-2.813 1.67-2.952 1.651a1.96 1.96 0 0 0-.325-.026c-1.539 0-4.252-5.395-4.252-9.332 0-2.992 1.907-5.426 4.252-5.426a2 2 0 0 0 0-4c-4.55 0-8.252 4.229-8.252 9.426 0 4.649 3.068 13.15 8.092 13.328zM43.506 29.919a1.998 1.998 0 0 0-.555 2.773c1.814 2.724 4.402 3.442 6.104 3.442.24 0 .463-.014.662-.039 5.023-.178 8.092-8.679 8.092-13.329 0-5.197-3.702-9.426-8.252-9.426a2 2 0 0 0 0 4c2.344 0 4.252 2.434 4.252 5.426 0 3.938-2.713 9.332-4.252 9.332-.109 0-.219.009-.326.026-.016.006-1.702.222-2.951-1.651a2 2 0 0 0-2.774-.554z"/></svg>