<svg xmlns="http://www.w3.org/2000/svg" xml:space="preserve" width="70" height="70"><path d="m28.376 7.062 4.247.177s1.716.081 2.114 2.334 2.98 17.876 2.98 17.876l13.809 1.539c4.07 0 7.056 3.285 7.056 7.336v20.179c0 4.051-2.674 6.08-6.742 6.08H33.578c-4.07 0-20.369-11.316-21.369-14.303-.361-1.08-.592-1.718-.739-2.489-.261-1.363-.261-2.019-.261-2.019l2.316.386 12.684 1.725s.588-34.573.588-36.657 1.579-2.164 1.579-2.164m0-4a4.24 4.24 0 0 0-.252.008c-2.583.163-5.328 2.383-5.328 6.176 0 1.436-.301 19.665-.511 32.119l-8.234-1.092-2.315-.309a4.006 4.006 0 0 0-3.163.957 3.998 3.998 0 0 0-1.364 3.008c0 .199.016 1.275.332 2.928.208 1.088.502 2.205.875 3.318.795 2.375 4.497 5.305 11.003 9.947 6.593 4.703 11.356 6.461 14.159 6.461h18.263c6.268 0 10.742-3.83 10.742-10.08V36.324c0-6.171-4.657-11.205-10.815-11.334l-10.755-1.188c-.773-4.665-2.121-13.267-2.414-14.925-.656-3.711-3.461-5.521-5.826-5.633l-4.249-.178a2.437 2.437 0 0 0-.148-.004z"/><path d="M54.583 55.354a1 1 0 0 1-1-1V38.706c0-2.356-1.458-4.132-3.808-4.132l-4.315-.402c-.549-.05-.875-.537-.824-1.087.05-.55.565-1.451 1.126-1.403l4.419-.099h.006c3.34 0 5.396 3.687 5.396 7.123v15.648a1 1 0 0 1-1 1zM42.298 33.558a.96.96 0 0 1-.107-.006l-2.176-.232a1.001 1.001 0 0 1-.889-1.101 1.007 1.007 0 0 1 1.102-.888l2.176.232a1 1 0 0 1-.106 1.995z"/></svg>