<svg xmlns="http://www.w3.org/2000/svg" xml:space="preserve" width="70" height="70"><path d="m66.216 56.427-24-18.411c-.874-.669-2.131-.564-2.804.314-.672.877-.505 2.017.372 2.688l6.054 4.564H23.842l12.342-9.485c1.312-.909 10.732-7.428 10.732-13.629 0-7.234-4.119-12.096-10.25-12.096-3.624 0-6.887 1.789-8.515 4.668-1.063 1.881-2.34 5.875 1.048 11.503a2.001 2.001 0 0 0 3.428-2.064c-1.735-2.882-2.088-5.537-.993-7.473.919-1.627 2.848-2.641 5.032-2.641 5.948 0 6.25 6.737 6.25 8.089 0 3.002-5.293 7.991-9.052 10.585-.031.021-.063.016-.092.04l-30 23.27c-.675.524-.941 1.304-.664 2.112S4.146 59.583 5 59.583h60c.857 0 1.619-.33 1.895-1.143.274-.811.001-1.492-.679-2.013zM48.49 47.583l2.4 1.811c-1.142.917-1.89 2.307-1.89 3.883 0 .836.226 1.612.59 2.306H19.41c.364-.693.59-1.47.59-2.306a4.98 4.98 0 0 0-1.517-3.576l2.757-2.118h27.25zm-31.626 3.362A2.985 2.985 0 0 1 18 53.277c0 .932-.436 1.755-1.104 2.306H10.83l6.034-4.638zm35.24 4.638A2.984 2.984 0 0 1 51 53.277a2.99 2.99 0 0 1 1.567-2.619l6.532 4.925h-6.995z"/></svg>