<svg xmlns="http://www.w3.org/2000/svg" xml:space="preserve" width="70" height="70"><path d="m65.635 24.988-30-10.037a1.986 1.986 0 0 0-1.27 0l-30 10.037a2.001 2.001 0 0 0 .058 3.812l8.16 2.458v6.627c0 .498.403.979.739 1.348.185.203 1.385 1.24 2.549 1.715.248.102.503.149.755.149.789 0 1.428-.471 1.744-1.246.417-1.022-.183-2.189-1.205-2.606-.093-.038.418-.126-.582-.234v-4.535l3 .92v16.129A2.988 2.988 0 0 0 18 52.153a3 3 0 0 0 6 0c0-.55-.159-1.059-.417-1.501v-16.03l3.858 1.183 7 2.037a1.973 1.973 0 0 0 1.136-.005l16.006-4.822v4.465c-1 1.22-6.533 4.442-17.287 4.442-2.417 0-4.24-.116-6.02-.356a2.006 2.006 0 0 0-2.249 1.716 2 2 0 0 0 1.715 2.249c1.958.264 4.173.392 6.77.392 15.159 0 20.533-5.938 20.763-6.19.336-.368.307-.849.307-1.348v-6.349c0-.075-.014-.146-.022-.219L65.577 28.8a2.001 2.001 0 0 0 .058-3.812zM34.99 33.836l-6.404-1.863-2.53-.776 9.887-3.468c1.041-.37 1.774-1.515 1.403-2.555-.371-1.041-1.571-1.584-2.61-1.213L21.129 28.77a2.607 2.607 0 0 0-.962.621l-4.699-1.441-3.865-1.164L35 18.957l23.397 7.828-23.407 7.051z"/><path d="M40.61 30.482a.997.997 0 0 0 .289-.043L45.677 29a.998.998 0 0 0 .669-1.245.995.995 0 0 0-1.245-.669l-4.778 1.439a1 1 0 0 0 .287 1.957zM48.887 28.074a.996.996 0 0 0 .288-.043l2.227-.671a.998.998 0 0 0 .669-1.245.996.996 0 0 0-1.245-.669l-2.227.671a.998.998 0 0 0 .288 1.957z"/></svg>