<svg xmlns="http://www.w3.org/2000/svg" xml:space="preserve" width="70" height="70"><path d="M62.583 23.583v24h-56v-24h56m.4-4h-56c-2.209 0-4.4 2.467-4.4 4.676v24c0 2.209 2.191 3.324 4.4 3.324h56c2.209 0 3.6-1.115 3.6-3.324v-24c0-2.209-1.391-4.676-3.6-4.676zM57.583 17.417a2 2 0 0 1-2-2v-4.834h-42v4.834a2 2 0 0 1-4 0v-6c0-1.104 1.313-2.834 2.417-2.834h46c1.104 0 1.583 1.729 1.583 2.834v6a2 2 0 0 1-2 2zM58 62.583H12c-1.104 0-2.417-.062-2.417-1.166v-6a2 2 0 0 1 4 0v3.166h42v-3.166a2 2 0 0 1 4 0v6c0 1.104-.479 1.166-1.583 1.166z"/><path d="M33.749 43.194h-3.643v-5.728h-4.695v5.728h-3.644V29.323h3.644v4.947h4.695v-4.947h3.643v13.871zM36.271 29.323h5.943c4.267 0 6.819 2.494 6.819 6.857 0 4.656-2.396 7.014-7.015 7.014H36.27V29.323zm5.592 10.852c2.436 0 3.526-1.461 3.526-3.896 0-2.514-1.305-3.955-3.78-3.955h-1.734v7.852h1.988zM9.583 37.417a1 1 0 0 1-1-1v-10c0-.553.865-1.834 1.417-1.834h8a1 1 0 1 1 0 2h-7.417v9.834a1 1 0 0 1-1 1zM60 44.583h-4a1 1 0 1 1 0-2h2.583v-3.166a1 1 0 1 1 2 0v4c0 .553-.03 1.166-.583 1.166zM9.583 43.417a1 1 0 0 1-1-1v-2a1 1 0 1 1 2 0v2a1 1 0 0 1-1 1z"/></svg>