<svg xmlns="http://www.w3.org/2000/svg" xml:space="preserve" width="70" height="70"><path d="M21.583 39a2 2 0 0 0-2 2v23a2 2 0 0 0 4 0V41a2 2 0 0 0-2-2zM47.583 39a2 2 0 0 0-2 2v23a2 2 0 0 0 4 0V41a2 2 0 0 0-2-2zM55.036 31.968c0 .553.459 1.208 1.023 1.208.566 0 1.023-.655 1.023-1.208 0-12.228-9.549-22.385-21.285-22.385h-.887c-11.831 0-21.826 10.285-21.826 22.274 0 .553.458 1.156 1.023 1.156s1.023-.552 1.023-1.104c0-10.905 9.058-20.326 19.78-20.326h.889c10.606 0 19.237 9.259 19.237 20.385z"/><path d="M62.583 42.718v-9.891c0-16.435-10.893-29.244-26.097-29.244h-1.122c-15.832 0-29.781 13.618-29.781 29.244V44c0 .137.093.271.118.399-1.673 2.312-2.646 5.109-2.646 8.06 0 7.436 6.359 13.958 13.795 13.958 1.104 0 1.733-.896 1.733-2V40.5c0-1.104-.739-2-1.844-2-2.593 0-5.156.807-7.156 2.155v-7.828c0-13.458 12.118-25.244 25.781-25.244h1.122c12.923 0 22.097 11.091 22.097 25.244v7.044c-2-.866-3.75-1.371-5.791-1.371-1.105 0-2.209.896-2.209 2v23.917c0 1.104 1.182 2 2.287 2 7.436 0 13.918-6.522 13.918-13.958 0-3.706-1.205-7.184-4.205-9.741zm-48 19.454c-1-.173-1.403-.438-2.083-.776.052-.122.083-.255.083-.396V43.483c1-.319 1-.572 2-.738v19.427zm-4-17.429v15.431c-2-1.794-3.958-4.525-3.958-7.715 0-3.19 1.958-5.922 3.958-7.716zm44-1.998c1 .166 2 .419 2 .738v17.95c0 .319-1 .573-2 .738V42.745zm4 17.428v-15.43c2 1.794 3.959 4.526 3.959 7.716s-1.959 5.921-3.959 7.714z"/></svg>