<svg xmlns="http://www.w3.org/2000/svg" xml:space="preserve" width="70" height="70"><path d="M46.185 5C40.611 5 37.369 7.139 35 10.011 32.631 7.139 29.389 5 23.815 5 12.338 5 3 13.876 3 24.787c0 2.957.851 7.335 2.718 9.962 6.147 8.637 25.62 28.241 26.446 29.072a4.005 4.005 0 0 0 5.672 0c.825-.831 20.299-20.435 26.444-29.07 1.868-2.624 2.72-7.005 2.72-9.964C67 13.876 57.662 5 46.185 5zm14.836 27.432C54.996 40.898 35 61 35 61S15.004 40.898 8.978 32.432C7.69 30.621 7 27.105 7 24.787 7 16.066 14.526 9 23.815 9 30.242 9 32.17 12.388 35 17.363 37.829 12.388 39.757 9 46.185 9 55.472 9 63 16.066 63 24.787c0 2.318-.689 5.834-1.979 7.645z"/><path d="M50.062 16.177a1 1 0 0 0 .418-1.909 13.805 13.805 0 0 0-5.799-1.253 1 1 0 1 0 0 2c1.744 0 3.415.36 4.965 1.071.134.061.277.091.416.091zM53.632 17.584a1 1 0 0 0-.113 1.41c1.604 1.882 2.45 4.149 2.45 6.557 0 1.556-.481 3.912-1.26 5.006-1.088 1.527-2.94 3.756-5.507 6.625a1 1 0 0 0 1.49 1.334c2.616-2.925 4.516-5.211 5.646-6.799 1.071-1.505 1.631-4.241 1.631-6.166 0-2.848-1.039-5.637-2.927-7.854a1.002 1.002 0 0 0-1.41-.113z"/></svg>