<svg xmlns="http://www.w3.org/2000/svg" xml:space="preserve" width="70" height="70"><path d="M64.782 29.797c.631-2.701.175-6.725-5.581-10.542L37.569 4.974l-.016-.013a4.047 4.047 0 0 0-2.432-.861 4 4 0 0 0-2.749.946l-12.79 8.444V4.495c0-1.104-.21-1.912-1.314-1.912H14.87c-1.104 0-1.287.807-1.287 1.912v12.956l-2.727 1.8a3.495 3.495 0 0 0-.244.175l-.119.092c-3.174 2.457-6.456 4.997-5.225 10.279.732 3.133 3.064 5.106 6.315 5.456v27.33H7.87a2 2 0 0 0 0 4h54a2 2 0 0 0 0-4h-3.287V35.246c3.193-.384 5.478-2.352 6.199-5.449zm-55.618-.908c-.657-2.819.673-3.95 3.708-6.3l21.71-14.458v-.034l.5.017.5-.017v.034l21.652 14.458c2.035 1.35 4.433 3.48 3.774 6.3-.431 1.85-1.851 2.438-3.526 2.438-.878 0-1.876-.161-2.842-.388l-19.601-12-19.592 12c-.967.227-1.937.388-2.815.388-1.675-.001-3.036-.589-3.468-2.438zM27.583 61.42V49.746a3.163 3.163 0 0 1 3.163-3.163h8.674a3.163 3.163 0 0 1 3.163 3.163V61.42c0 .412-.084.803-.228 1.163H27.811a3.122 3.122 0 0 1-.228-1.163zm16.857 1.163c.086-.375.143-.762.143-1.163V49.746a5.163 5.163 0 0 0-5.163-5.163h-8.674a5.163 5.163 0 0 0-5.163 5.163V61.42c0 .401.056.788.143 1.163H15.583V34.996c.252-.05.504-.1.77-.163a4.055 4.055 0 0 0 1.178-.483l17.495-10.72 17.496 10.72c.364.223.762.386 1.177.483.306.071.598.131.885.187v27.563H44.44z"/><path d="M31.583 54.417a1 1 0 0 0-1 1v1a1 1 0 1 0 2 0v-1a1 1 0 0 0-1-1zM30.87 35.583h9a1 1 0 1 0 0-2h-9a1 1 0 1 0 0 2zM42.87 37.583h-15a1 1 0 1 0 0 2h15a1 1 0 1 0 0-2z"/></svg>