<svg xmlns="http://www.w3.org/2000/svg" xml:space="preserve" width="70" height="70"><path d="M46.991 39.583h-23.75c-.7 0-1.349.6-1.711 1.197-.362.6-.386 1.565-.062 2.186l11.875 22.713c.345.66 1.028 1.077 1.772 1.077s1.427-.464 1.772-1.124l11.875-22.759c.324-.62.301-1.493-.063-2.093-.358-.597-1.009-1.197-1.708-1.197zm-6.387 9.924-7.207 7.22-1.089-2.077 10.898-10.92c.037-.037.053-.147.082-.147h.4l-3.084 5.924zm-10.699.527 6.426-6.451h4.172l-9.166 9.178-1.432-2.727zm3.597-6.451-4.569 4.568-2.389-4.568h6.958zm1.615 16.443-.748-1.43 3.136-3.136-2.388 4.566zM44.903 18.262a10.38 10.38 0 0 0 1.059-4.559c0-5.769-4.693-10.462-10.462-10.462S25.038 7.934 25.038 13.703c0 1.64.39 3.186 1.065 4.568-.201-.011-.399-.03-.603-.03-5.769 0-10.462 4.693-10.462 10.462S19.731 39.165 25.5 39.165c4.213 0 7.843-2.508 9.5-6.105 1.657 3.597 5.286 6.105 9.499 6.105 5.77 0 10.463-4.693 10.463-10.462 0-5.633-4.477-10.227-10.059-10.441zM35 24.347a8.282 8.282 0 0 0-.103-.212l.2.01c-.032.067-.066.134-.097.202zm.5-17.106c3.563 0 6.462 2.898 6.462 6.462s-2.898 6.462-6.462 6.462-6.462-2.898-6.462-6.462 2.899-6.462 6.462-6.462zm-10 27.924c-3.563 0-6.462-2.898-6.462-6.462s2.899-6.462 6.462-6.462 6.462 2.898 6.462 6.462-2.899 6.462-6.462 6.462zm18.999 0c-3.563 0-6.461-2.898-6.461-6.462s2.899-6.462 6.461-6.462c3.564 0 6.463 2.898 6.463 6.462s-2.899 6.462-6.463 6.462z"/><path d="M25.5 23.304a5.405 5.405 0 0 0-5.4 5.399 1 1 0 1 0 2 0 3.403 3.403 0 0 1 3.4-3.399 1 1 0 1 0 0-2zM34.863 10.349a.978.978 0 0 0 .142-.01c.161-.022.327-.035.495-.035a1 1 0 1 0 0-2c-.263 0-.522.019-.775.055a1 1 0 0 0 .138 1.99zM32.1 13.703c0-.954.385-1.838 1.083-2.487a1.001 1.001 0 0 0-1.362-1.465 5.415 5.415 0 0 0-1.721 3.952 1 1 0 1 0 2 0zM44.499 23.304a5.404 5.404 0 0 0-5.398 5.399 1 1 0 1 0 2 0 3.403 3.403 0 0 1 3.398-3.399 1 1 0 1 0 0-2z"/></svg>