<svg xmlns="http://www.w3.org/2000/svg" xml:space="preserve" width="70" height="70"><path d="M67.575 22.269C66.729 10.996 56.877 2.518 45.597 3.36c-11.273.847-19.754 10.706-18.908 21.979a20.63 20.63 0 0 0 .563 3.471 1.977 1.977 0 0 0-.695.414L3.332 50.474c-.413.378-.749.913-.749 1.474v13.167c0 1.104 1.096 1.469 2.201 1.469h12c1.104 0 1.799-.364 1.799-1.469v-3.531h6.049c.588 0 1.146-.126 1.526-.574.38-.449.543-.91.447-1.49l-.612-3.936h3.639c.566 0 1.107-.009 1.486-.43l10.611-11.575a20.418 20.418 0 0 0 6.939.668c11.272-.849 19.754-10.708 18.907-21.978zM48.369 40.258a16.441 16.441 0 0 1-9.301-2.057 2.001 2.001 0 0 0-1.957 3.489c.164.092.332.172.498.259l-8.868 9.635h-5.108c-.588 0-1.146.392-1.526.84-.38.449-.543 1.174-.447 1.754l.612 3.406h-5.488c-1.104 0-2.201 1.427-2.201 2.531v2.469h-8v-9.756l22.064-20.153c.173.359.355.716.55 1.067a2 2 0 0 0 3.498-1.94 16.405 16.405 0 0 1-2.018-6.763c-.681-9.073 6.146-17.009 15.219-17.69 9.079-.671 17.008 6.147 17.69 15.219.682 9.072-6.145 17.007-15.217 17.69z"/><path d="M50.633 15.828a4.481 4.481 0 0 0-4.477 4.476c0 1.195.466 2.32 1.313 3.166a4.445 4.445 0 0 0 3.164 1.31 4.482 4.482 0 0 0 4.477-4.477 4.481 4.481 0 0 0-4.477-4.475zm0 6.951a2.476 2.476 0 1 1-.002-4.952 2.476 2.476 0 0 1 .002 4.952zM45.396 10.645c-.319 0-.639.013-.952.04a1 1 0 1 0 .17 1.992 9.66 9.66 0 0 1 .782-.032 1 1 0 1 0 0-2zM40.637 11.681a11.463 11.463 0 0 0-6.663 10.387 1 1 0 1 0 2 0 9.455 9.455 0 0 1 5.497-8.568 1 1 0 1 0-.834-1.819zM26.976 37.443l-13.37 11.638a1 1 0 1 0 1.313 1.508l13.369-11.638a.998.998 0 1 0-1.312-1.508zM11.39 51.011l-1.645 1.433a1 1 0 1 0 1.313 1.508l1.645-1.433a1 1 0 1 0-1.313-1.508z"/></svg>