<svg xmlns="http://www.w3.org/2000/svg" xml:space="preserve" width="70" height="70"><path d="M62.802 26.583H36.329c-.323-1-.667-3.589 2.021-6.873 1.476-1.804 2.105-3.795 1.823-5.903-.584-4.347-4.74-7.378-5.212-7.714-.901-.641-2.15-.41-2.789.49a2.01 2.01 0 0 0 .471 2.798c.829.59 3.264 2.784 3.565 5.03.136 1.01-.177 1.813-.954 2.764-3.167 3.871-3.376 7.409-3.005 9.409H6.802c-2.209 0-4.219 2.136-4.219 4.345v29.834c0 2.209 2.01 3.821 4.219 3.821h56c2.209 0 3.781-1.612 3.781-3.821V30.928c0-2.209-1.572-4.345-3.781-4.345zm-.219 34h-56v-30h56v30z"/><path d="M26.583 35.583a1 1 0 0 0-1-1h-6a1 1 0 0 0-1 1v4a1 1 0 0 0 1 1h6a1 1 0 0 0 1-1v-4zm-6 1h4v2h-4v-2zM36.583 35.583a1 1 0 0 0-1-1h-6a1 1 0 0 0-1 1v4a1 1 0 0 0 1 1h6a1 1 0 0 0 1-1v-4zm-6 1h4v2h-4v-2zM47.583 35.583a1 1 0 0 0-1-1h-6a1 1 0 0 0-1 1v4a1 1 0 0 0 1 1h6a1 1 0 0 0 1-1v-4zm-6 1h4v2h-4v-2zM58.583 35.583a1 1 0 0 0-1-1h-6a1 1 0 0 0-1 1v4a1 1 0 0 0 1 1h6a1 1 0 0 0 1-1v-4zm-6 1h4v2h-4v-2zM16.583 35.583a1 1 0 0 0-1-1h-6a1 1 0 0 0-1 1v4a1 1 0 0 0 1 1h6a1 1 0 0 0 1-1v-4zm-6 1h4v2h-4v-2zM26.583 43.583a1 1 0 0 0-1-1h-6a1 1 0 0 0-1 1v4a1 1 0 0 0 1 1h6a1 1 0 0 0 1-1v-4zm-6 1h4v2h-4v-2zM36.583 43.583a1 1 0 0 0-1-1h-6a1 1 0 0 0-1 1v4a1 1 0 0 0 1 1h6a1 1 0 0 0 1-1v-4zm-6 1h4v2h-4v-2zM47.583 43.583a1 1 0 0 0-1-1h-6a1 1 0 0 0-1 1v4a1 1 0 0 0 1 1h6a1 1 0 0 0 1-1v-4zm-6 1h4v2h-4v-2zM16.583 43.583a1 1 0 0 0-1-1h-6a1 1 0 0 0-1 1v4a1 1 0 0 0 1 1h6a1 1 0 0 0 1-1v-4zm-6 1h4v2h-4v-2zM26.583 51.583a1 1 0 0 0-1-1h-6a1 1 0 0 0-1 1v4a1 1 0 0 0 1 1h6a1 1 0 0 0 1-1v-4zm-6 1h4v2h-4v-2zM36.583 51.583a1 1 0 0 0-1-1h-6a1 1 0 0 0-1 1v4a1 1 0 0 0 1 1h6a1 1 0 0 0 1-1v-4zm-6 1h4v2h-4v-2zM16.583 51.583a1 1 0 0 0-1-1h-6a1 1 0 0 0-1 1v4a1 1 0 0 0 1 1h6a1 1 0 0 0 1-1v-4zm-6 1h4v2h-4v-2z"/><path d="M41 56.583h17c.553 0 .583-.144.583-.696V43.886c0-.553-.03-1.303-.583-1.303h-6c-.553 0-1.417.75-1.417 1.303v6.697H41c-.553 0-1.417.751-1.417 1.304v4c0 .552.864.696 1.417.696zm.583-4H52c.553 0 .583-.144.583-.696v-7.304h4v10h-15v-2z"/></svg>