<svg xmlns="http://www.w3.org/2000/svg" xml:space="preserve" width="70" height="70"><path d="M59.5 27.848c0-13.509-10.99-24.5-24.5-24.5s-24.5 10.991-24.5 24.5c0 9.392 5.314 17.562 13.091 21.672.006.052.004.103.015.155l2.9 14.539c.185.938 1.007 1.369 1.962 1.369h3.383c.347 1 .984 1 1.723 1h2c.738 0 1.376 0 1.723-1h3.371c.958 0 1.782-.463 1.964-1.404l2.772-14.174C53.725 46.085 59.5 37.639 59.5 27.848zM39.017 61.583h-8.905l-2.068-10.281a24.45 24.45 0 0 0 6.957 1.028 24.48 24.48 0 0 0 5.986-.768l-1.97 10.021zm-6.9-13.551-2.774-13.359c.045.003.089.012.135.012.869 0 1.621-.609 2.097-1.683a.874.874 0 0 0 .077-.104 1.13 1.13 0 0 1 .12-.158c.032.036.073.086.118.157a.816.816 0 0 0 .101.127c.478 1.054 1.224 1.65 2.083 1.65.479 0 1.374-.198 2.021-1.518a4.863 4.863 0 0 0 .085-.183c.02-.024.037-.05.055-.076a1.13 1.13 0 0 1 .12-.158c.033.035.074.087.12.158a.829.829 0 0 0 .072.096c.475 1.08 1.229 1.691 2.102 1.691.87 0 1.623-.609 2.098-1.684a.999.999 0 0 0 .077-.104c.045-.07.086-.122.118-.157.026.027.06.074.093.122l-3.15 15.17c-.006.03.003.06 0 .09a20.6 20.6 0 0 1-2.883.226c-.981 0-1.938-.093-2.882-.226-.006-.029.004-.058-.003-.089zm7.876-.322 3.124-15.043a.983.983 0 0 0-.555-1.087c-.896-1.132-2.356-1.151-3.246-.013a1 1 0 0 0-.328.448c-.125.339-.257.53-.341.622-.085-.091-.217-.282-.342-.622a.95.95 0 0 0-.293-.404c-.6-.795-1.286-.921-1.659-.921-.369 0-1.048.124-1.645.902a1 1 0 0 0-.295.416 2.806 2.806 0 0 1-.096.229l-.013.025a1.497 1.497 0 0 1-.231.362c-.084-.091-.215-.28-.339-.614a.947.947 0 0 0-.318-.417c-.448-.585-1.025-.904-1.646-.904-.365 0-1.033.121-1.624.877a.998.998 0 0 0-.328.447c-.125.34-.258.531-.342.623-.084-.091-.217-.282-.342-.623-.145-.393-.57-.655-.989-.655a.938.938 0 0 0-.454.126c-.011.002-.021-.002-.032 0a1 1 0 0 0-.776 1.182l3.124 15.043C21.103 45.478 14.5 37.445 14.5 27.848c0-11.323 9.178-20.5 20.5-20.5s20.5 9.177 20.5 20.5c0 9.597-6.603 17.63-15.507 19.862z"/><path d="M32.842 11.742c-.39 0-.777.016-1.16.047a1 1 0 1 0 .164 1.994c.328-.027.661-.041.996-.041a1 1 0 1 0 0-2zM27.03 13.007a13.995 13.995 0 0 0-8.136 12.683 1 1 0 1 0 2 0 11.99 11.99 0 0 1 6.97-10.866 1 1 0 1 0-.834-1.817zM29.575 54.84a1 1 0 0 0 .868 1.116l7.292.912a1 1 0 0 0 .248-1.984l-7.292-.912a1.004 1.004 0 0 0-1.116.868zM37.463 58.817l-6.087-.76a1 1 0 1 0-.248 1.984l6.087.76a1 1 0 0 0 .248-1.984z"/></svg>