<svg xmlns="http://www.w3.org/2000/svg" xml:space="preserve" width="70" height="70"><path d="M55.408 21.583h-7.021l1.369-10.068c.039-.221.059-.575.059-.806 0-2.209-1.789-4.126-3.998-4.126H45.76c-.453 0-2.856.34-6.195 1.458-2.373.794-5.753 4.622-10.396 11.128-2.819 3.951-4.735 7.091-5.824 9.706-1.14-.786-2.463-1.293-3.692-1.293h-8.396c-4.143 0-7.674 3.88-7.674 8.032v17.941c0 4.151 3.531 7.026 7.674 7.026h8.396c1.727 0 3.644-.627 4.966-2.208 1.98 2.569 5.049 4.208 8.618 4.208h20.18c6.17 0 11.205-4.719 11.332-10.877l1.971-17.943c.016-.144.023-.477.023-.622.001-6.267-5.085-11.556-11.335-11.556zm-41.825 35v-4.997c0-.813.916-1.5 2-1.5s2 .688 2 1.5v4.997h-4zm9-3.026c0 1.949-.989 3.026-2.93 3.026h-.07v-4.997c0-1.93-1.794-3.5-4-3.5s-4 1.57-4 3.5V57c-2-.001-4-1.494-4-3.443V35.615c0-1.949 1.733-4.032 3.674-4.032H19.653c1.94 0 2.93 2.083 2.93 4.032v17.942zm38.17-2.113c0 4.07-3.284 7.139-7.335 7.139h-20.18c-4.051 0-6.655-2.796-6.655-6.865V33.455c0-4.07 11.605-20.391 14.592-21.391 2.986-1 4.719-1.23 4.719-1.23L43.82 25.583h11.588c4.052 0 7.336 3.446 7.336 7.517l-1.991 18.344z"/><path d="M56.578 45.046a1.006 1.006 0 0 0-1.076.919l-.366 4.478c0 2.439-1.802 4.141-4.102 4.141H35.256a1 1 0 1 0 0 2h15.778c3.364 0 6.102-2.641 6.099-6.063l.363-4.504c.044-.55-.367-.927-.918-.971zM57.521 39.004a.999.999 0 0 0-1.1.888l-.232 2.176a.998.998 0 1 0 1.988.213l.232-2.176a1 1 0 0 0-.888-1.101zM15.583 52a1 1 0 0 0-1 1v2a1 1 0 1 0 2 0v-2a1 1 0 0 0-1-1z"/></svg>