<svg xmlns="http://www.w3.org/2000/svg" xml:space="preserve" width="70" height="70"><path d="M58.792 6.567c2.189 0 4.085 1.911 4.085 4.12 0 2.208-1.65 3.896-3.84 3.896H28.963c-2.189 0-3.963-1.792-3.963-4 0-2.209 1.773-4 3.963-4h29.62m.454-4H28.963c-4.391 0-7.963 3.589-7.963 8s3.572 8 7.963 8h30.074c4.391 0 7.963-3.589 7.963-8s-3.572-8-7.963-8zM10.792 6.587c2.189 0 4.085 1.892 4.085 4.101 0 2.208-1.65 3.896-3.84 3.896h-.074c-2.189 0-3.963-1.792-3.963-4 0-2.209 1.773-4 3.963-4h-.38m.454-4.001h-.074c-4.391 0-7.963 3.589-7.963 8s3.572 8 7.963 8h.074c4.391 0 7.963-3.589 7.963-8s-3.572-8-7.963-8z"/><path d="M32.073 10.583h-3a1 1 0 1 1 0-2h3a1 1 0 1 1 0 2zM47.073 10.583h-10a1 1 0 1 1 0-2h10a1 1 0 1 1 0 2zM58.792 30.599c2.189 0 4.085 1.88 4.085 4.089 0 2.208-1.65 3.896-3.84 3.896H28.963c-2.189 0-3.963-1.792-3.963-4 0-2.209 1.773-4 3.963-4h29.62m.454-4.001H28.963c-4.391 0-7.963 3.589-7.963 8s3.572 8 7.963 8h30.074c4.391 0 7.963-3.589 7.963-8s-3.572-8-7.963-8zM10.792 30.587c2.189 0 4.085 1.892 4.085 4.101 0 2.208-1.65 3.896-3.84 3.896h-.074c-2.189 0-3.963-1.792-3.963-4 0-2.209 1.773-4 3.963-4h-.38m.454-4.001h-.074c-4.391 0-7.963 3.589-7.963 8s3.572 8 7.963 8h.074c4.391 0 7.963-3.589 7.963-8s-3.572-8-7.963-8zM58.792 54.604c2.189 0 4.085 1.875 4.085 4.084 0 2.208-1.65 3.896-3.84 3.896H28.963c-2.189 0-3.963-1.792-3.963-4 0-2.209 1.773-4 3.963-4h29.62m.454-4.001H28.963c-4.391 0-7.963 3.589-7.963 8s3.572 8 7.963 8h30.074c4.391 0 7.963-3.589 7.963-8s-3.572-8-7.963-8zM10.792 54.583c2.189 0 4.085 1.896 4.085 4.104s-1.65 3.896-3.84 3.896h-.074c-2.189 0-3.963-1.792-3.963-4 0-2.209 1.773-4 3.963-4h-.38m.454-4h-.074c-4.391 0-7.963 3.589-7.963 8s3.572 8 7.963 8h.074c4.391 0 7.963-3.589 7.963-8s-3.572-8-7.963-8z"/></svg>