<svg xmlns="http://www.w3.org/2000/svg" xml:space="preserve" width="70" height="70"><path d="M51.196 28.583h-1.034s-.046-12.312-.055-12.383c-.865-7.422-7.618-13.236-15.11-13.236-8.27 0-15.414 6.452-15.414 14.383v11.236h-.178c-4.072 0-4.822 2.172-4.822 4.381v30c0 2.209.613 3.619 2.822 3.619h34c2.209 0 3.179-1.41 3.179-3.619v-30c-.001-2.209-1.179-4.381-3.388-4.381zM23.583 17.347c0-5.726 5.142-10.383 11.206-10.383 5.461 0 10.444 4.207 11.126 9.596l-.332 10.338v1.685h-22V17.347zm-5 45.236v-3h3.834a1 1 0 1 0 0-2h-3.834v-4h3.834a1 1 0 1 0 0-2h-3.834v-3h3.834a1 1 0 1 0 0-2h-3.834v-4h3.834a1 1 0 1 0 0-2h-3.834v-4h3.834a1 1 0 1 0 0-2h-3.834v-2h32v2h-2.166a1 1 0 1 0 0 2h2.166v4h-2.166a1 1 0 1 0 0 2h2.166v4h-2.166a1 1 0 1 0 0 2h2.166v3h-2.166a1 1 0 1 0 0 2h2.166v4h-2.166a1 1 0 1 0 0 2h2.166v3h-32z"/><path d="M35.404 40.964c-3.309 0-6 2.691-6 6 0 1.928.945 3.721 2.458 4.834l-.319 2.951c-.061.564.121.939.5 1.361.38.422.921.473 1.488.473h3.746c.568 0 1.109-.051 1.488-.473.38-.422.562-.893.5-1.457l-.318-2.902a5.983 5.983 0 0 0 2.457-4.812c0-3.308-2.691-5.975-6-5.975zm1.413 9.549.46 4.07h-3.746l.461-4.07c-1.511-.572-2.588-1.934-2.588-3.645 0-2.209 1.791-3.904 4-3.904s4 1.791 4 4c0 1.711-1.076 2.976-2.587 3.549z"/></svg>