<svg xmlns="http://www.w3.org/2000/svg" xml:space="preserve" width="70" height="70"><path d="m53.52 24.566-8.484-8.484a2 2 0 0 0-2.828 0L3.316 54.973a2 2 0 0 0 0 2.828l8.484 8.484c.391.391.902.586 1.414.586s1.023-.195 1.414-.586l38.892-38.89a2 2 0 0 0 0-2.829zM13.215 62.043l-5.656-5.656 30.406-30.406 5.656 5.656-30.406 30.406zm31.819-31.82-5.656-5.656 4.243-4.243 5.656 5.656-4.243 4.243zM51.828 16.452l2.088.995 1.593 1.679a4 4 0 0 0 2.901 1.247h.001a3.999 3.999 0 0 0 2.901-1.247l1.592-1.679 2.087-.995a4.001 4.001 0 0 0 1.793-5.52L65.681 8.9l-.302-2.293a4.002 4.002 0 0 0-4.695-3.412l-2.274.422-2.275-.421a4.004 4.004 0 0 0-3.081.697 3.998 3.998 0 0 0-1.614 2.715L51.139 8.9l-1.104 2.032a4.001 4.001 0 0 0 1.793 5.52zm3.18-6.294.398-3.029 3.004.557 3.003-.557.398 3.029 1.458 2.684-2.757 1.314-2.103 2.217-2.104-2.217-2.757-1.314 1.46-2.684zM26.717 15.755l1.269.604.967 1.02a4.001 4.001 0 0 0 2.9 1.246h.001c1.097 0 2.146-.45 2.9-1.245l.968-1.02 1.27-.605a4.001 4.001 0 0 0 1.793-5.521l-.671-1.233-.183-1.393a4.005 4.005 0 0 0-3.966-3.48c-.243 0-.487.022-.729.067l-1.382.256-1.381-.256a4.003 4.003 0 0 0-4.695 3.411l-.184 1.395-.671 1.235a3.999 3.999 0 0 0 1.794 5.519zm2.746-5.497.28-2.129 2.11.392 2.111-.392.279 2.129 1.025 1.887-1.938.924-1.479 1.557-1.478-1.557-1.938-.924 1.028-1.887zM66.113 34.001l-.183-1.393a4.005 4.005 0 0 0-3.966-3.48c-.243 0-.487.022-.729.067l-1.382.256-1.381-.256a4.003 4.003 0 0 0-4.695 3.411l-.184 1.395-.671 1.235a3.999 3.999 0 0 0 1.794 5.519l1.269.604.967 1.02a4.001 4.001 0 0 0 2.9 1.246h.001c1.097 0 2.146-.45 2.9-1.245l.968-1.02 1.27-.605a4.001 4.001 0 0 0 1.793-5.521l-.671-1.233zm-4.781 4.067-1.479 1.557-1.478-1.557-1.938-.924 1.024-1.887.28-2.129 2.11.392 2.111-.392.279 2.129 1.025 1.887-1.934.924z"/><path d="M32.125 34.977a.999.999 0 0 0-1.414 0l-2.25 2.25a.999.999 0 1 0 1.414 1.414l2.25-2.25a.999.999 0 0 0 0-1.414zM25.711 39.977l-15 15a.999.999 0 1 0 1.414 1.414l15-15a.999.999 0 1 0-1.414-1.414z"/></svg>