<svg xmlns="http://www.w3.org/2000/svg" xml:space="preserve" width="70" height="70"><path d="M28.034 67.583h-.002c-6.566 0-12.757-2.835-17.432-7.509l-.263-.392C.522 49.868.522 33.837 10.334 24.027l15.58-15.613a2.016 2.016 0 0 1 1.414-.602c.53 0 1.039.203 1.414.578l11.473 11.47a1.998 1.998 0 0 1 0 2.827L26.899 36.001c-.887.887-1.362 2.095-1.339 3.405a5.079 5.079 0 0 0 1.462 3.477 5.067 5.067 0 0 0 3.563 1.462c1.276 0 2.455-.476 3.319-1.339l13.315-13.317c.75-.75 2.078-.75 2.828 0l11.474 11.474a2 2 0 0 1 0 2.828l-15.58 15.838c-4.832 4.833-11.192 7.754-17.907 7.754zm-.705-54.959L13.163 26.79c-8.252 8.253-8.252 21.68 0 29.933l.263.262c3.922 3.921 9.108 6.079 14.607 6.08h.001c5.647 0 11.002-2.245 15.08-6.323L57.28 42.576l-8.646-8.646-11.901 11.904c-1.619 1.619-3.803 2.511-6.147 2.511a9.088 9.088 0 0 1-6.392-2.634 8.985 8.985 0 0 1-2.634-6.234c-.042-2.406.85-4.645 2.511-6.305L35.974 21.27l-8.645-8.646z"/><path d="M15.331 55.977a.995.995 0 0 1-.705-.291l-.209-.208c-3.644-3.644-5.649-8.485-5.649-13.635s2.006-9.991 5.647-13.632l5.113-5.114a.999.999 0 1 1 1.414 1.414l-5.113 5.114c-3.264 3.264-5.062 7.603-5.062 12.218s1.798 8.955 5.062 12.219l.207.206a.999.999 0 0 1-.705 1.709zM25.111 19.929a.999.999 0 0 1-.707-1.707l2.304-2.305a.999.999 0 1 1 1.414 1.414l-2.304 2.305a.997.997 0 0 1-.707.293zM43.718 18.353a1.992 1.992 0 0 1-1.414-.586L30.831 6.294a2 2 0 1 1 2.828-2.828l11.473 11.473a2 2 0 0 1-1.414 3.414zM65.024 39.659a1.992 1.992 0 0 1-1.414-.586L52.138 27.601a2 2 0 1 1 2.828-2.828l11.473 11.473a2 2 0 0 1-1.415 3.413z"/></svg>