<svg xmlns="http://www.w3.org/2000/svg" xml:space="preserve" width="70" height="70"><path d="M62.583 6.583v56h-56v-56h56m.636-4h-56c-2.209 0-4.636 2.398-4.636 4.607v56c0 2.209 2.427 3.393 4.636 3.393h56c2.209 0 3.364-1.184 3.364-3.393v-56c0-2.209-1.363-4.607-3.572-4.607h.208z"/><path d="M8.583 44.417a1 1 0 0 1-1-1v-4a1 1 0 1 1 2 0v4a1 1 0 0 1-1 1zM39.417 60.583h-30c-.553 0-1.834.387-1.834-.166v-11a1 1 0 1 1 2 0v9.166h29.834a1 1 0 1 1 0 2z"/><path d="M19.13 53.366a.997.997 0 0 1-.988-1.151l1.807-11.816a.999.999 0 0 1 1.696-.556l10.009 10.011a1 1 0 0 1-.556 1.696l-11.815 1.806c-.053.006-.103.01-.153.01zm2.496-10.712-1.302 8.518 8.518-1.302-7.216-7.216zM49.991 32.518c-.261 0-.517-.103-.707-.293l-10.01-10.01a1 1 0 0 1 .556-1.696l11.814-1.807a.997.997 0 0 1 1.139 1.139l-1.805 11.816a.999.999 0 0 1-.987.851zm-7.905-10.321 7.215 7.216 1.301-8.518-8.516 1.302zM20.033 31.887a1 1 0 0 1-.989-.849l-1.808-11.815a1 1 0 0 1 1.139-1.139l11.817 1.806a.999.999 0 0 1 .556 1.696l-10.01 10.01a1 1 0 0 1-.705.291zm-.613-11.621 1.303 8.518 7.216-7.216-8.519-1.302zM50.892 51.583c-.05 0-.101.574-.151.566L38.926 50.63c-.372-.057-.682-.173-.799-.531s-.023-.681.243-.948l10.01-9.972a.991.991 0 0 1 1.019-.227c.358.117.62.437.677.81l1.776 11.626c.039.107.061-.351.061-.229-.001.556-.466.424-1.009.424h-.012zm-9.711-2.341 8.517 1.302-1.302-8.518-7.215 7.216z"/></svg>