<svg xmlns="http://www.w3.org/2000/svg" xml:space="preserve" width="70" height="70"><path d="M21.929 10.583h3a1 1 0 1 0 0-2h-3a1 1 0 1 0 0 2zM29.929 10.583h8a1 1 0 1 0 0-2h-8a1 1 0 1 0 0 2zM41.074 43.893l-2.971-.443-1.287-2.796a1.998 1.998 0 0 0-3.632-.001l-1.288 2.796-2.97.443a2.002 2.002 0 0 0-1.12 3.392l2.165 2.168-.708 3.16a2 2 0 0 0 2.982 2.152l2.769-1.664 2.964 1.688a2 2 0 0 0 2.919-2.263l-.844-3.097 2.14-2.143a2 2 0 0 0-1.119-3.392zm-2.872 4.558a.94.94 0 0 0-.264.818l1.029 3.779-3.496-1.99a1.003 1.003 0 0 0-.944 0l-3.313 1.99.846-3.779a.935.935 0 0 0-.264-.818l-2.576-2.58 3.515-.525a.975.975 0 0 0 .735-.537L35 41.49l1.528 3.318a.977.977 0 0 0 .735.537l3.515.525-2.576 2.581z"/><path d="m47.874 32.213 3.275-3.227c.389-.377.434-.895.434-1.436v-9.054c3-1.049 5.453-4.214 5.453-7.757 0-4.411-3.608-8.157-7.999-8.157H20.962c-4.391 0-7.926 3.746-7.926 8.157 0 3.552 2.547 6.725 5.547 7.766v9.045c0 .541.392 1.059.78 1.436l3.142 2.914c-4.463 3.64-7.329 9.176-7.329 15.369 0 10.936 8.893 19.833 19.829 19.833s19.831-8.897 19.831-19.833c-.001-6.022-2.711-11.415-6.962-15.056zm-7.291-3.982v-9.648h7v8.122l-3.041 3.145c-1.243-.68-2.959-1.216-3.959-1.619zm-2-9.648v9.184c-1-.205-2.312-.33-3.512-.33-1.192 0-2.488.124-3.488.326v-9.18h7zm-21.583-8c0-2.209 1.774-4 3.962-4h27.55l.316-.025c2.189 0 4.067 1.999 4.067 4.208 0 2.208-1.669 3.817-3.858 3.817H20.962c-2.188 0-3.962-1.792-3.962-4zm5.583 16.122v-8.122h7v9.643c-1 .374-2.536.871-3.708 1.488l-3.292-3.009zM35 63.103c-8.745 0-15.833-7.087-15.833-15.833S26.255 31.437 35 31.437s15.833 7.087 15.833 15.833S43.745 63.103 35 63.103z"/><path d="m32.5 36.637.083-.003a8.85 8.85 0 0 1 .75-.031 1 1 0 1 0 0-2c-.307 0-.613.013-.914.037a1.001 1.001 0 0 0 .081 1.997zM29.584 37.419a1 1 0 1 0-.834-1.818 11.036 11.036 0 0 0-6.417 10.003 1 1 0 1 0 2 0 9.031 9.031 0 0 1 5.251-8.185z"/></svg>