<svg xmlns="http://www.w3.org/2000/svg" xml:space="preserve" width="70" height="70"><path d="M56.821 6.614c2.189 0 4.071 1.969 4.071 4.178 0 2.208-1.666 3.791-3.855 3.791H12.963c-2.188 0-3.963-1.792-3.963-4 0-2.209 1.774-4 3.963-4h43.62m.454-4H12.963c-4.391 0-7.963 3.589-7.963 8s3.572 8 7.963 8h44.074c4.391 0 7.963-3.589 7.963-8s-3.572-8-7.963-8zM52.896 54.677c2.143 0 3.997 1.906 3.997 4.115 0 2.208-1.631 3.791-3.773 3.791H12.882c-2.144 0-3.882-1.792-3.882-4 0-2.209 1.738-4 3.882-4h39.701m.536-4H12.882c-4.346 0-7.882 3.589-7.882 8s3.536 8 7.882 8h40.237c4.346 0 7.881-3.589 7.881-8s-3.535-8-7.881-8zM36.823 30.583c2.19 0 4.07 2 4.07 4.209 0 2.208-1.666 3.791-3.855 3.791H12.963c-2.188 0-3.963-1.792-3.963-4 0-2.209 1.774-4 3.963-4h23.62m.454-4H12.963c-4.391 0-7.963 3.589-7.963 8s3.572 8 7.963 8h24.074c4.391 0 7.963-3.589 7.963-8s-3.572-8-7.963-8z"/><path d="M17.013 10.583h-3a1 1 0 1 1 0-2h3a1 1 0 1 1 0 2zM36.013 10.583h-14a1 1 0 1 1 0-2h14a1 1 0 1 1 0 2z"/></svg>