<svg xmlns="http://www.w3.org/2000/svg" xml:space="preserve" width="70" height="70"><path d="M46.857 8.583H24.099c-11.197 0-21.516 9.339-21.516 20.535v.8c0 9.596 7.292 17.658 16.251 19.77l-.966 7.311c-.28 1.615.606 3.238 2.004 4.095.643.394 1.442.589 2.164.589.847 0 1.729-.591 2.438-1.122l14.247-10.977h8.137c11.197 0 19.726-8.467 19.726-19.665v-.8c-.001-11.197-8.529-20.536-19.727-20.536zm15.726 21.335c0 9.007-6.721 15.665-15.726 15.665h-9.47L22.112 57.36l1.382-11.295c-9.006 0-16.912-7.141-16.912-16.147v-.8c0-9.005 8.51-16.535 17.516-16.535H46l.231.076c9.006 0 16.352 7.454 16.352 16.459v.8z"/><path d="M19.441 18.422a10.448 10.448 0 0 1 1.756-.147 1 1 0 1 0 0-2c-.704 0-1.407.059-2.092.175a1.001 1.001 0 0 0 .336 1.972zM16.284 17.092c-4.357 1.95-7.701 6.568-7.701 11.491v.152a1 1 0 1 0 2 0v-.152c0-4.147 2.816-8.032 6.464-9.665.505-.226.887-.817.661-1.321-.226-.504-.922-.73-1.424-.505zM23.361 26.247c-2.481 0-4.5 2.019-4.5 4.5s2.019 4.5 4.5 4.5 4.5-2.019 4.5-4.5-2.018-4.5-4.5-4.5zm0 7c-1.379 0-2.5-1.121-2.5-2.5s1.121-2.5 2.5-2.5 2.5 1.121 2.5 2.5-1.121 2.5-2.5 2.5zM35.361 26.247c-2.481 0-4.5 2.019-4.5 4.5s2.019 4.5 4.5 4.5 4.5-2.019 4.5-4.5-2.018-4.5-4.5-4.5zm0 7c-1.379 0-2.5-1.121-2.5-2.5s1.121-2.5 2.5-2.5 2.5 1.121 2.5 2.5-1.121 2.5-2.5 2.5zM47.361 26.247c-2.481 0-4.5 2.019-4.5 4.5s2.019 4.5 4.5 4.5 4.5-2.019 4.5-4.5-2.018-4.5-4.5-4.5zm0 7c-1.379 0-2.5-1.121-2.5-2.5s1.121-2.5 2.5-2.5 2.5 1.121 2.5 2.5-1.121 2.5-2.5 2.5z"/></svg>