<svg xmlns="http://www.w3.org/2000/svg" xml:space="preserve" width="70" height="70"><path d="M34.583 49.217c5.514 0 10-4.461 10-9.944V13.161c0-5.482-4.486-9.943-10-9.943s-10 4.461-10 9.943v26.112c0 5.483 4.486 9.944 10 9.944zm0-42c3.313 0 6 2.661 6 5.943v1.423h-1.01a1 1 0 1 0 0 2h1.01v4h-1.01a1 1 0 1 0 0 2h1.01v4h-1.01a1 1 0 1 0 0 2h1.01v3h-1.01a1 1 0 1 0 0 2h1.01v4h-1.01a1 1 0 1 0 0 2h.578c-.051 3-2.715 5.851-5.995 5.851s-5.944-2.851-5.995-5.851h1.412a1 1 0 1 0 0-2h-.99v-4h.99a1 1 0 1 0 0-2h-.99v-3h.99a1 1 0 1 0 0-2h-.99v-4h.99a1 1 0 1 0 0-2h-.99v-4h.99a1 1 0 1 0 0-2h-.99V13.16c0-3.282 2.688-5.943 6-5.943z"/><path d="M54.714 37.758c0-1.104-1.003-2-2.107-2s-2.053.896-2.053 2c0 8.06-7.125 14.869-15.527 14.869s-15.514-6.81-15.514-14.869c0-1.104-.902-2-2.006-2s-1.79.896-1.79 2c0 9.294 6.866 17.254 16.866 18.635v6.19h-6.01a2 2 0 0 0 0 4h16a2 2 0 0 0 0-4h-5.99v-6.015c10-.604 18.131-8.959 18.131-18.81z"/></svg>