<svg xmlns="http://www.w3.org/2000/svg" xml:space="preserve" width="70" height="70"><path d="M66.583 6.773c0-2.084-1.183-4.19-3.156-4.19H6.573c-1.974 0-3.99 2.106-3.99 4.19v56.453c0 2.084 2.017 3.356 3.99 3.356h56.854c1.974 0 3.156-1.272 3.156-3.356V6.773zm-4 55.81h-56v-56h56v56z"/><path d="M9.583 44.417a1 1 0 0 0 1-1v-4a1 1 0 1 0-2 0v4a1 1 0 0 0 1 1zM10.417 60.583h30a1 1 0 1 0 0-2H10.583v-9.166a1 1 0 1 0-2 0v11c0 .553 1.281.166 1.834.166z"/><path d="m28.416 42.567-11.815 1.806a.999.999 0 0 0-.556 1.696L26.054 56.08a1.001 1.001 0 0 0 1.696-.556l1.807-11.816a1.002 1.002 0 0 0-1.141-1.141zm-2.345 10.701-7.216-7.216 8.518-1.302-1.302 8.518zM43.613 29.514a.96.96 0 0 0 .151-.012l11.814-1.807a.999.999 0 0 0 .556-1.696l-10.01-10.01a1 1 0 0 0-1.696.556l-1.805 11.816a1.002 1.002 0 0 0 .99 1.153zm2.495-10.712 7.215 7.216-8.516 1.302 1.301-8.518zM15.696 26.949l11.818 1.271c.051.008.102-.638.151-.638h.02c.553 0 1 .202 1-.351 0-.121-.021.202-.061.094l-1.779-11.519c-.057-.373-.318-.632-.677-.749a1.006 1.006 0 0 0-1.019.261l-10.01 10.009c-.267.267-.36.637-.243.995s.428.571.8.627zm9.472-8.778 1.304 8.518-8.52-1.302 7.216-7.216zM43.525 54.896a.999.999 0 0 0 1.696.556l10.01-10.01a1 1 0 0 0-.556-1.696L42.86 41.939a.997.997 0 0 0-1.139 1.139l1.804 11.818zm8.894-9.472-7.215 7.216-1.302-8.518 8.517 1.302z"/></svg>