<svg xmlns="http://www.w3.org/2000/svg" xml:space="preserve" width="70" height="70"><path d="M55.415 2.583h-40c-2.209 0-3.832 1.305-3.832 3.514v57c0 2.209 1.623 3.486 3.832 3.486h40c2.209 0 3.168-1.277 3.168-3.486v-56c0-2.209-.959-4.514-3.168-4.514zm-.832 60h-39v-56h39v56z"/><path d="M50.583 15.583a1 1 0 0 0-1-1h-29a1 1 0 0 0-1 1v38a1 1 0 0 0 1 1h29a1 1 0 0 0 1-1v-38zm-29 1h27v36h-27v-36z"/><path d="M30.917 17.583h-7c-.553 0-1.334.281-1.334.834v4a1 1 0 1 0 2 0v-2.834h6.334a1 1 0 1 0 0-2zM36.917 17.583h-3a1 1 0 1 0 0 2h3a1 1 0 1 0 0-2zM30.917 11.583h9a1 1 0 1 0 0-2h-9a1 1 0 1 0 0 2zM35.915 55.854c-1.517 0-2.75 1.233-2.75 2.75s1.233 2.75 2.75 2.75 2.75-1.233 2.75-2.75-1.233-2.75-2.75-2.75zm0 3.5c-.413 0-.75-.337-.75-.75s.337-.75.75-.75.75.337.75.75-.337.75-.75.75z"/></svg>