<svg xmlns="http://www.w3.org/2000/svg" xml:space="preserve" width="70" height="70"><path d="m20.67 33.143-1.547 1.547a.999.999 0 1 0 1.414 1.414l1.547-1.547a.999.999 0 1 0-1.414-1.414zM16.803 37.009l-3.718 3.719c-4.232 4.232-4.115 10.98.268 15.363a.997.997 0 0 0 1.414 0 .999.999 0 0 0 0-1.414c-1.734-1.734-2.724-3.97-2.786-6.294-.063-2.339.832-4.555 2.518-6.241l3.718-3.719a.999.999 0 1 0-1.414-1.414z"/><path d="M65.882 4.904a1.997 1.997 0 0 0-2.299-1.638 2.004 2.004 0 0 0-1.646 2.299c.197 1.21.373 4.791-1.17 6.802-.709.923-1.728 1.439-3.114 1.578-5.453.545-8.256 3.088-9.643 5.072a15.008 15.008 0 0 0-10.394-4.157c-4.04 0-7.838 1.573-10.694 4.431L8.363 37.849c-5.897 5.897-5.897 15.493 0 21.389l3.093 3.093a15.022 15.022 0 0 0 10.694 4.431c4.04 0 7.838-1.573 10.693-4.431l18.561-18.56c5.896-5.897 5.896-15.492 0-21.389l-.5-.5c.605-1.141 2.406-3.483 7.147-3.958 2.482-.248 4.523-1.335 5.902-3.141 2.912-3.813 1.971-9.633 1.929-9.879zM29.751 22.119c2.102-2.102 4.896-3.259 7.866-3.259s5.765 1.157 7.866 3.259l.839.838-4.199 4.2c-1.189-.566-2.709-.384-3.666.573l-3.094 3.094a3.164 3.164 0 0 0-.934 2.253c0 .505.13.985.35 1.424l-1.115 1.115c-3.57-3.663-6.89-7.423-8.054-9.356l4.141-4.141zm11.799 8.705-3.094 3.093c-.449.449-1.229.448-1.679 0a1.178 1.178 0 0 1-.348-.84c0-.316.123-.614.348-.839l3.094-3.094c.224-.224.521-.348.839-.348s.616.124.84.348a1.19 1.19 0 0 1 0 1.68zM30.016 59.503a11.047 11.047 0 0 1-7.865 3.259 11.047 11.047 0 0 1-7.866-3.259l-3.094-3.093c-4.337-4.338-4.337-11.395 0-15.732l12.992-12.992c3.167 4.646 14.148 16.19 18.794 18.855L30.016 59.503zm18.56-18.56-4.124 4.124c-1.287-.373-5.325-3.969-9.384-8.029l1.125-1.124c.438.221.919.35 1.424.35.852 0 1.652-.331 2.254-.934l3.093-3.093a3.181 3.181 0 0 0 .582-3.676l4.19-4.191.84.84c4.337 4.338 4.337 11.396 0 15.733z"/></svg>