<svg xmlns="http://www.w3.org/2000/svg" xml:space="preserve" width="70" height="70"><path d="M19.988 51.851a5.036 5.036 0 0 0-5.03 5.03 1 1 0 1 0 2 0 3.033 3.033 0 0 1 3.03-3.03 1 1 0 1 0 0-2zM49.987 42.851a5.036 5.036 0 0 0-5.029 5.03 1 1 0 1 0 2 0 3.033 3.033 0 0 1 3.029-3.03 1 1 0 1 0 0-2z"/><path d="M59.583 5.547c0-.643-.102-1.246-.623-1.622s-1.087-.477-1.696-.275l-30.157 10c-.817.272-1.524 1.036-1.524 1.897v33.362c-1-1.267-3.546-2.028-5.804-2.028-5.514 0-9.896 4.486-9.896 10s4.538 10 10.052 10c5.351 0 9.362-4.229 9.616-9.518.022-.118.031-.238.031-.363V25.93l26-8.666V39.91c-1-1.267-3.547-2.028-5.805-2.028-5.514 0-9.896 4.486-9.896 10s4.539 10 10.053 10c5.352 0 9.402-4.093 9.657-9.382.021-.118-.01-.374-.01-.499V5.547zM19.988 62.881c-3.309 0-6-2.691-6-6s2.691-6 6-6 6 2.691 6 6-2.692 6-6 6zm9.595-39.059v-6.834l26-8.667v6.835l-26 8.666zm20.404 30.059c-3.309 0-6-2.691-6-6s2.691-6 6-6 6 2.691 6 6-2.691 6-6 6z"/></svg>