<svg xmlns="http://www.w3.org/2000/svg" xml:space="preserve" width="70" height="70"><path d="M34.779 7c2.433 0 4.634 1.614 5.212 4.005l11.386 23.299h.036l-.019.066.019.066h-.036L39.991 58.994C39.413 61.385 37.211 63 34.777 63c-.404 0-.814-.045-1.225-.138-2.882-.654-4.671-3.441-3.998-6.23L40.332 34.37 29.555 13.366c-.673-2.787 1.116-5.576 3.998-6.229.41-.093.822-.137 1.226-.137m0-4c-.708 0-1.419.079-2.11.236-2.476.561-4.565 2.042-5.888 4.171a8.983 8.983 0 0 0-1.115 6.897c.075.308.186.605.33.888l9.867 19.229-9.909 20.467a4.045 4.045 0 0 0-.288.805 8.988 8.988 0 0 0 1.114 6.896c1.321 2.129 3.411 3.611 5.89 4.174.691.157 1.4.237 2.107.237 4.199 0 7.832-2.705 8.985-6.631l11.036-23.803a3.99 3.99 0 0 0 .609-2.313 4.032 4.032 0 0 0-.594-2.025L43.75 9.585C42.581 5.684 38.962 3 34.779 3z"/><path d="m44.693 30.813-5-10a1 1 0 0 1 1.789-.895l5 10a1 1 0 0 1-1.789.895zm-7-14-1-2a1 1 0 0 1 1.789-.895l1 2a1 1 0 0 1-1.789.895zM22.588 31.325a4 4 0 1 1 0 8 4 4 0 0 1 0-8m0-4c-4.411 0-8 3.589-8 8s3.589 8 8 8 8-3.589 8-8-3.589-8-8-8z"/></svg>