<svg xmlns="http://www.w3.org/2000/svg" xml:space="preserve" width="70" height="70"><path d="M56.946 7.583H49.583V5.208a2 2 0 0 0-4 0v2.375h-4V5.208a2 2 0 0 0-4 0v2.375h-5V5.208a2 2 0 0 0-4 0v2.375h-5V5.208a2 2 0 0 0-4 0v2.375h-5.678c-2.209 0-4.322 2.052-4.322 4.261v51c0 2.209 1.113 3.738 3.322 3.738h44c2.209 0 3.679-1.529 3.679-3.738v-51c-.001-2.209-1.429-4.261-3.638-4.261zm-37.363 4v2.625a2 2 0 0 0 4 0v-2.625h5v2.625a2 2 0 0 0 4 0v-2.625h5v2.625a2 2 0 0 0 4 0v-2.625h4v2.625a2 2 0 0 0 4 0v-2.625h7v10h-43v-10h6zm-6 51v-39h43v39h-43z"/><path d="M53.583 50.208a1 1 0 0 0-1 1v7.375h-5.666a1 1 0 1 0 0 2h6.667a.999.999 0 0 0 .999-1v-8.375a1 1 0 0 0-1-1zM42.917 58.583h-2a1 1 0 1 0 0 2h2a1 1 0 1 0 0-2zM21.917 31.583h8a1 1 0 1 0 0-2h-8a1 1 0 1 0 0 2zM33.917 31.583h15a1 1 0 1 0 0-2h-15a1 1 0 1 0 0 2zM41.917 50.583a1 1 0 0 0-1-1h-7a1 1 0 1 0 0 2h7a1 1 0 0 0 1-1zM48.917 44.583h-8a1 1 0 1 0 0 2h8a1 1 0 1 0 0-2zM21.917 46.583h15a1 1 0 1 0 0-2h-15a1 1 0 1 0 0 2zM28.917 49.583h-7a1 1 0 1 0 0 2h7a1 1 0 1 0 0-2zM21.917 36.583h6a1 1 0 1 0 0-2h-6a1 1 0 1 0 0 2zM31.917 36.583h17a1 1 0 1 0 0-2h-17a1 1 0 1 0 0 2zM21.917 41.583h13a1 1 0 1 0 0-2h-13a1 1 0 1 0 0 2zM48.917 39.583h-10a1 1 0 1 0 0 2h10a1 1 0 1 0 0-2z"/></svg>