<svg xmlns="http://www.w3.org/2000/svg" xml:space="preserve" width="70" height="70"><path d="M64.808 9.887c-.092-2.14-1.854-4.304-3.996-4.304H9.189c-2.142 0-3.904 2.294-3.996 4.435L3.042 60.145c-.047 1.09.353 1.785 1.107 2.572.754.788 1.798.866 2.889.866h20.765c1.619 0 3.079-.457 3.697-1.953l4.128-9.731 4.128 9.601c.618 1.497 2.077 2.084 3.696 2.084h19.51c1.091 0 2.134.074 2.889-.713s1.154-1.592 1.107-2.682l-2.15-50.302zm-2.915 25.286c-2.591-2.824-7.251-8.76-7.936-15.59h7.253l.683 15.59zm-1.121-25.59.351 8h-20.54v-3h2.077a1 1 0 1 0 0-2h-2.077v-3h20.189zm-26.111 5h3.922v3h-10v-8h10v3h-3.922a1 1 0 1 0 0 2zm-8.078-5v8H8.845l.344-8h17.394zm-17.824 10h7.208c-.679 6.778-5.273 12.676-7.876 15.525l.668-15.525zm34.693 40-7.826-18.938-7.824 18.938H7.038l.924-21.467c1.656-1.562 9.064-9.021 9.996-18.337.007-.068-.013-.131-.02-.196h34.048c-.007.065-.026.128-.02.196.943 9.431 8.526 16.962 10.058 18.395l.938 21.409h-19.51z"/><path d="M22.661 14.583h1a1 1 0 1 0 0-2h-1a1 1 0 1 0 0 2zM15.661 14.583h1a1 1 0 1 0 0-2h-1a1 1 0 1 0 0 2zM48.66 14.583h1a1 1 0 1 0 0-2h-1a1 1 0 1 0 0 2zM54.66 14.583h1a1 1 0 1 0 0-2h-1a1 1 0 1 0 0 2z"/></svg>