<svg xmlns="http://www.w3.org/2000/svg" xml:space="preserve" width="70" height="70"><path d="M23.583 7c2.209 0 4 1.773 4 3.963v48.074c0 2.189-1.791 3.963-4 3.963-2.208 0-4-1.773-4-3.963V10.963c0-2.19 1.792-3.963 4-3.963m0-4c-4.411 0-8 3.572-8 7.963v48.074c0 4.391 3.589 7.963 8 7.963s8-3.572 8-7.963V10.963c0-4.391-3.589-7.963-8-7.963z"/><path d="M23.583 16.227a1 1 0 0 1-1-1v-3a1 1 0 1 1 2 0v3a1 1 0 0 1-1 1zM23.583 35.227a1 1 0 0 1-1-1v-14a1 1 0 1 1 2 0v14a1 1 0 0 1-1 1zM45.583 7c2.208 0 4 1.773 4 3.963v48.074c0 2.189-1.792 3.963-4 3.963-2.209 0-4-1.773-4-3.963V10.963c0-2.19 1.791-3.963 4-3.963m0-4c-4.411 0-8 3.572-8 7.963v48.074c0 4.391 3.589 7.963 8 7.963s8-3.572 8-7.963V10.963c0-4.391-3.589-7.963-8-7.963z"/><path d="M43.583 59.227a1 1 0 0 1-1-1v-3a1 1 0 1 1 2 0v3a1 1 0 0 1-1 1zM43.583 51.227a1 1 0 0 1-1-1v-14a1 1 0 1 1 2 0v14a1 1 0 0 1-1 1z"/></svg>