<svg xmlns="http://www.w3.org/2000/svg" xml:space="preserve" width="70" height="70"><path d="M53.379 31.378a.999.999 0 1 0-1.414 1.414l2.416 2.416a.997.997 0 0 0 1.414 0 .999.999 0 0 0 0-1.414l-2.416-2.416zM44.52 22.52a.999.999 0 1 0-1.414 1.414l4.832 4.832a.997.997 0 0 0 1.414 0 .999.999 0 0 0 0-1.414L44.52 22.52z"/><path d="M66.176 22.564a2 2 0 0 0-2.828 0l-3.292 3.292-16.173-16.17 3.293-3.293a2 2 0 1 0-2.828-2.828l-3.335 3.334a8.423 8.423 0 0 0-5.29-1.851h-.001c-2.287 0-4.44.893-6.062 2.514a8.526 8.526 0 0 0-2.516 6.022 8.417 8.417 0 0 0 2.307 5.852l-19.78 4.028a2 2 0 0 0-1.587 1.718L3.253 64.78a2 2 0 0 0 2.227 2.226l39.599-4.832a2 2 0 0 0 1.716-1.576l4.115-19.715a8.413 8.413 0 0 0 5.727 2.232c2.287 0 4.44-.893 6.062-2.516 3.283-3.284 3.341-8.578.177-11.909l3.3-3.3a1.997 1.997 0 0 0 0-2.826zM43.173 58.378 9.143 62.53l14.055-14.053a5.314 5.314 0 0 0 3.165 1.055c1.434 0 2.78-.559 3.794-1.572s1.572-2.361 1.572-3.795c0-1.432-.559-2.779-1.572-3.793s-2.36-1.572-3.794-1.572-2.781.559-3.795 1.572-1.571 2.361-1.571 3.793c0 1.027.297 2.006.832 2.854L7.731 61.116l4.15-34.021 20.824-4.24c.039-.008.074-.025.112-.035l14.774 14.771a1.988 1.988 0 0 0-.184.496l-4.234 20.291zM22.997 44.165c0-.898.35-1.744.985-2.379.636-.637 1.481-.986 2.381-.986s1.745.35 2.38.986c.637.635.986 1.48.986 2.379 0 .9-.35 1.746-.986 2.381-1.271 1.271-3.489 1.271-4.761 0a3.341 3.341 0 0 1-.985-2.381zm36.874-6.392a4.566 4.566 0 0 1-3.233 1.343 4.48 4.48 0 0 1-3.179-1.314L32.458 16.803c-1.764-1.763-1.748-4.634.031-6.413a4.562 4.562 0 0 1 3.233-1.343c1.153 0 2.303.438 3.179 1.313l21.001 21c1.762 1.763 1.747 4.634-.031 6.413z"/></svg>