<svg xmlns="http://www.w3.org/2000/svg" xml:space="preserve" width="70" height="70"><path d="M63.196 2.583H6.405c-2.209 0-3.822 2.096-3.822 4.305v57c0 2.209 2.613 2.695 4.822 2.695h56c2.209 0 3.179-.486 3.179-2.695v-56c-.001-2.209-1.179-5.305-3.388-5.305zm-.613 60h-56v-56h56v56z"/><path d="M17.273 50.583h36.263c1.104 0 1.047-.185 1.047-1.289V14.757c0-1.104-.15-2.174-1.256-2.174H16.273c-1.104 0-1.69 1.069-1.69 2.174v34.537c0 1.104 1.586 1.289 2.69 1.289zm-.69-2v-11.83a.983.983 0 0 0 .614-.275l7.671-7.671 9.826 8.426-7.497 7.496a.999.999 0 1 0 1.414 1.414L41.38 33.374l11.202 11.202v4.006H16.583zm36-34v27.166L42.088 31.254a.999.999 0 0 0-1.414 0l-4.572 4.572c-.018-.018-.026-.042-.046-.059l-10.589-9.08a1.002 1.002 0 0 0-1.358.052l-7.526 7.526V14.583h36z"/><path d="M44.057 28.187c3.018 0 5.473-2.455 5.473-5.473s-2.455-5.473-5.473-5.473-5.473 2.455-5.473 5.473 2.455 5.473 5.473 5.473zm0-8.946c1.915 0 3.473 1.558 3.473 3.473s-1.558 3.473-3.473 3.473-3.473-1.558-3.473-3.473 1.558-3.473 3.473-3.473z"/></svg>