<svg xmlns="http://www.w3.org/2000/svg" xml:space="preserve" width="70" height="70"><path d="M35 7.396c9.99 0 18.087 8.098 18.087 18.087C53.087 40.588 35 62.604 35 62.604s-18.087-19.24-18.087-37.122c0-9.989 8.097-18.086 18.087-18.086m0-4c-12.179 0-22.087 9.908-22.087 22.087 0 19.245 18.39 39.029 19.173 39.862a4.004 4.004 0 0 0 6.006-.201c.775-.944 18.996-23.312 18.996-39.661C57.087 13.304 47.179 3.396 35 3.396z"/><path d="M35 32.675c-4.125 0-7.482-3.356-7.482-7.482S30.875 17.71 35 17.71c4.126 0 7.482 3.356 7.482 7.482S39.126 32.675 35 32.675zm0-12.965c-3.022 0-5.482 2.459-5.482 5.482s2.46 5.482 5.482 5.482c3.023 0 5.482-2.459 5.482-5.482S38.023 19.71 35 19.71zM32.923 12.449a1 1 0 0 1-.146-1.99A15.324 15.324 0 0 1 35 10.295a1 1 0 1 1 0 2c-.643 0-1.291.048-1.928.143a1.09 1.09 0 0 1-.149.011zM21.104 26.192a1 1 0 0 1-1-1c0-5.01 2.496-9.654 6.677-12.426a1 1 0 1 1 1.105 1.668 12.875 12.875 0 0 0-5.782 10.758 1 1 0 0 1-1 1zM37 55.165a1 1 0 0 1-.773-1.635c.036-.044 3.69-4.514 6.725-9.956a1 1 0 1 1 1.746.974c-3.125 5.604-6.772 10.063-6.925 10.251a.996.996 0 0 1-.773.366z"/></svg>