<svg xmlns="http://www.w3.org/2000/svg" xml:space="preserve" width="70" height="70"><path d="M59.892 12.361c-.413-.884-4.61-8.645-24.58-8.645-20.223 0-24.952 8.129-25.144 8.477a1.863 1.863 0 0 0-.071 1.722l23.392 51.752c.323.717 1.037.916 1.823.916h.01c.79 0 1.504-.216 1.821-.939L59.912 14.02a2.02 2.02 0 0 0-.02-1.659zm-24.58-4.612c14.059 0 19.07 4.11 20.484 5.702l-1.434 3.268c-2.213-2.083-7.468-5.209-19.093-5.209-11.759 0-17.242 3.188-19.56 5.252l-1.47-3.26c1.598-1.66 6.971-5.753 21.073-5.753zm4.549 5.951c4.23.362 7.255 1.204 9.386 2.134-.606 2.579-3.195 4.184-5.779 3.589-2.566-.597-4.169-3.157-3.607-5.723zM27.089 42.002c.06-.013.12-.012.179-.036a4.39 4.39 0 0 1 3.383-.006 4.387 4.387 0 0 1 2.395 2.389 4.39 4.39 0 0 1 .006 3.383 4.384 4.384 0 0 1-2.317 2.356l-3.646-8.086zm8.198 18.183-3.732-8.277a6.37 6.37 0 0 0 3.346-3.414 6.379 6.379 0 0 0-.008-4.913 6.38 6.38 0 0 0-3.479-3.469 6.381 6.381 0 0 0-4.914.009c-.077.032-.134.086-.198.134l-9.725-21.57c1.523-1.597 6.318-5.174 18.693-5.174.904 0 1.762.021 2.584.058-.615 3.531 1.629 6.981 5.162 7.802.516.12 1.033.178 1.543.178 2.937 0 5.592-1.925 6.485-4.8 1.247.74 2.012 1.453 2.449 1.95l-5.475 12.475a6.409 6.409 0 0 0-3.555-1.082c-3.539 0-6.418 2.881-6.418 6.421 0 3.014 2.091 5.543 4.896 6.229l-7.654 17.443zm8.481-19.325c-2.104-.337-3.722-2.15-3.722-4.349a4.424 4.424 0 0 1 4.418-4.421 4.4 4.4 0 0 1 2.732.956l-3.428 7.814z"/><path d="M29.209 17.955c-3.464 0-6.283 2.819-6.283 6.284s2.818 6.283 6.283 6.283c3.465 0 6.284-2.818 6.284-6.283s-2.818-6.284-6.284-6.284zm0 10.567a4.289 4.289 0 0 1-4.283-4.283 4.288 4.288 0 0 1 4.283-4.284 4.29 4.29 0 0 1 4.284 4.284 4.287 4.287 0 0 1-4.284 4.283z"/></svg>