<svg xmlns="http://www.w3.org/2000/svg" xml:space="preserve" width="70" height="70"><path d="M61.917 3.583h-53c-1.104 0-2.334 1.289-2.334 2.394v26a2 2 0 0 0 4 0V7.583h49v49H34.917a2 2 0 0 0 0 4h27c1.104 0 1.666-.502 1.666-1.606v-53c0-1.105-.562-2.394-1.666-2.394z"/><path d="M29.917 17.583h22a1 1 0 1 0 0-2h-22a1 1 0 1 0 0 2zM17.917 17.583h4a1 1 0 1 0 0-2h-4a1 1 0 1 0 0 2zM29.917 27.583h22a1 1 0 1 0 0-2h-22a1 1 0 1 0 0 2zM17.917 27.583h4a1 1 0 1 0 0-2h-4a1 1 0 1 0 0 2zM29.917 37.583h22a1 1 0 1 0 0-2h-22a1 1 0 1 0 0 2zM17.917 37.583h4a1 1 0 1 0 0-2h-4a1 1 0 1 0 0 2zM51.917 45.583h-17a1 1 0 1 0 0 2h17a1 1 0 1 0 0-2zM30.865 50.583 9.813 38.458c-.619-.357-1.443-.357-2.063 0s-1.167 1.018-1.167 1.732v24.25c0 .715.548 1.375 1.167 1.732.31.179.842.268 1.188.268s.674-.089.983-.268l20.988-12.125c.619-.357.984-1.018.984-1.732s-.409-1.375-1.028-1.732zM10.583 60.977V43.654l15 8.661-15 8.662z"/><path d="M20.934 53.147a1.002 1.002 0 0 0 1.387-.277 1 1 0 0 0-.277-1.387l-6-4a1 1 0 1 0-1.11 1.664l6 4z"/></svg>