<svg xmlns="http://www.w3.org/2000/svg" xml:space="preserve" width="70" height="70"><path d="M58.245 31.677 17.002 4.052a3.992 3.992 0 0 0-2.224-.677c-.646 0-1.891.156-2.481.472-1.303.695-2.714 2.052-2.714 3.528v55.25c0 1.477 1.411 2.833 2.714 3.528.591.315 1.537.472 2.182.472.779 0 1.706-.228 2.376-.677l41.32-27.625c1.109-.742 1.814-1.989 1.814-3.323s-.635-2.581-1.744-3.323zM13.583 62.625V7.375L54.831 35 13.583 62.625z"/><path d="M46.894 34.088a1.004 1.004 0 0 0 1.389-.274 1.001 1.001 0 0 0-.275-1.388l-20.156-13.5a1 1 0 1 0-1.114 1.662l20.156 13.5zM23.293 18.281a.999.999 0 0 0 1.388-.274 1.002 1.002 0 0 0-.274-1.388l-4.824-3.23a1.001 1.001 0 0 0-1.114 1.662l4.824 3.23z"/></svg>