<svg xmlns="http://www.w3.org/2000/svg" xml:space="preserve" width="70" height="70"><path d="M34.583 7c2.209 0 4 1.773 4 3.962v19.999l20.305.038c2.189 0 4.098 1.791 4.098 4 0 2.208-1.976 4-4.164 4l-20.238-.038v20.076c0 2.188-1.791 3.963-4 3.963s-4-1.774-4-3.963V38.961l-19.77.038c-2.188 0-3.828-1.792-3.828-4 0-2.209 1.572-4 3.761-4l19.837-.038V10.962C30.583 8.773 32.374 7 34.583 7m0-4c-4.411 0-8 3.571-8 7.962v16.007l-15.777.03c-4.383 0-7.82 3.589-7.82 8s3.37 8 7.761 8l15.837-.03v16.068c0 4.391 3.589 7.963 8 7.963s8-3.572 8-7.963V42.969l16.297.03c4.398 0 8.105-3.589 8.105-8s-3.773-8-8.164-8l-16.238-.03V10.962C42.583 6.571 38.994 3 34.583 3z"/><path d="M35.583 15.136a1 1 0 0 1-1-1v-3a1 1 0 1 1 2 0v3a1 1 0 0 1-1 1zM35.583 29.136a1 1 0 0 1-1-1v-10a1 1 0 1 1 2 0v10a1 1 0 0 1-1 1z"/></svg>