<svg xmlns="http://www.w3.org/2000/svg" xml:space="preserve" width="70" height="70"><path d="m58.858 12.968-7.965-8.7c-.75-.75-1.543-1.685-2.604-1.685H13.478c-2.209 0-3.895 1.817-3.895 4.026v57c0 2.209 2.686 2.974 4.895 2.974h42c2.209 0 3.105-.765 3.105-2.974V15.796c0-1.061.025-2.078-.725-2.828zm-3.611 1.615h-6.664V8.399l6.664 6.184zm-41.664 48v-56h33v9.387c0 .553.843.613 1.396.613h7.604v46h-42z"/><path d="M49.417 51.583H21.583V22.417a1 1 0 1 0-2 0v31c0 .553 1.281.166 1.834.166h28a1 1 0 1 0 0-2z"/><path d="M24.848 43.347a1.001 1.001 0 0 0 1.298-.562l2.375-6.001 5.98 11.106a1.002 1.002 0 0 0 .985.52.997.997 0 0 0 .855-.714l2.978-10.209 1.747 2.073a1 1 0 0 0 1.706-.306l3.051-8.5a1 1 0 1 0-1.883-.675l-2.464 6.865-1.83-2.172a1.001 1.001 0 0 0-1.725.364l-2.816 9.657-5.843-10.851a1.025 1.025 0 0 0-.939-.524.997.997 0 0 0-.871.63l-3.166 8a1 1 0 0 0 .562 1.299z"/></svg>