<svg xmlns="http://www.w3.org/2000/svg" xml:space="preserve" width="70" height="70"><path d="M60.192 17.583h-6.594l2.634-2.76c.195-.205.346-.449.439-.717.42-1.194.264-2.558-.465-4.05-1.406-2.88-4.85-5.902-6.872-6.582-4.212-1.415-8.481 1.669-9.888 5.472l-3.865 7.817-3.867-7.817c-1.406-3.803-5.673-6.892-9.887-5.472-2.42.813-5.778 3.287-7.235 6.271-.745 1.525-.892 3.033-.425 4.36.101.285.264.544.479.756l2.745 2.721H9.4c-2.209 0-3.817 1.821-3.817 4.03v10c0 2.209 2.608 3.97 4.817 3.97h.183v29.295c0 1.104.396 1.705 1.5 1.705h45.334c1.104 0 1.166-.601 1.166-1.705V35.583H60.4c2.209 0 3.183-1.761 3.183-3.97v-10c0-2.209-1.182-4.03-3.391-4.03zm-17.109-6.964a1.91 1.91 0 0 0 .094-.223c.695-1.974 2.98-3.771 4.884-3.131 1.629.548 4.646 3.903 4.842 5.253l-4.833 5.065h-8.432l3.445-6.964zM17.9 12.456c.012-.263.109-.59.287-.955.889-1.821 3.304-3.693 4.916-4.235 1.9-.64 4.187 1.157 4.882 3.131.026.076.058.15.095.223l3.445 6.964h-8.453L17.9 12.456zm-3.317 23.127h13v27h-13v-27zm23 0v27h-8v-27h8zm17 27h-15v-27h15v27zm5-31h-50v-10h50v10z"/><path d="M51.583 47.878a1 1 0 0 0 1-1v-1a1 1 0 1 0-2 0v1a1 1 0 0 0 1 1zM45.417 60.583h6.213c.553 0 .953-.152.953-.705v-9a1 1 0 1 0-2 0v7.705h-5.166a1 1 0 1 0 0 2z"/></svg>