<svg xmlns="http://www.w3.org/2000/svg" xml:space="preserve" width="70" height="70"><path d="M62.597 21.583H8.46c-3.954 0-6.877 3.133-6.877 6.979v20.137c0 3.751 2.968 6.884 6.877 6.884h4.123v4.485c0 3.828 3.521 6.515 7.349 6.515h30.137c3.828 0 6.515-2.687 6.515-6.515v-4.485h6.014c3.481 0 4.986-2.268 4.986-6.884V28.563c-.001-5.347-2.813-6.98-4.987-6.98zM52.583 60.068c0 1.619-.896 2.515-2.515 2.515H19.932c-1.619 0-3.349-.896-3.349-2.515V46.932c0-1.619 1.729-3.349 3.349-3.349h30.137c1.619 0 2.515 1.729 2.515 3.349v13.136zm10.014-8.485h-6.014v-4.651c0-3.828-2.687-7.349-6.515-7.349H19.932c-3.828 0-7.349 3.521-7.349 7.349v4.651H8.46c-1.7 0-2.877-1.32-2.877-2.884V28.563c0-1.228.968-2.979 2.877-2.979h54.137c1.294 0 .986 1.028.986 2.979V48.7c0 1.033.507 2.883-.986 2.883zM14.583 20.417a2 2 0 0 0 2-2V9.563c0-1.228.521-2.979 3.877-2.979h30.137c1.294 0 1.986 1.028 1.986 2.979v8.854a2 2 0 0 0 4 0V9.563c0-5.347-1.667-6.979-5.986-6.979H20.46c-5.543 0-7.877 2.084-7.877 6.979v8.854a2 2 0 0 0 2 2z"/><path d="M17.417 31.583a1 1 0 1 0 0-2h-3a1 1 0 1 0 0 2h3zM21.417 31.583h3a1 1 0 1 0 0-2h-3a1 1 0 1 0 0 2zM55.417 33.583h-40a1 1 0 1 0 0 2h40a1 1 0 1 0 0-2zM22.417 49.583h12a1 1 0 1 0 0-2h-12a1 1 0 1 0 0 2zM47.417 47.583h-9a1 1 0 1 0 0 2h9a1 1 0 1 0 0-2zM22.417 54.583h6a1 1 0 1 0 0-2h-6a1 1 0 1 0 0 2zM31.417 53.583a1 1 0 0 0 1 1h7a1 1 0 1 0 0-2h-7a1 1 0 0 0-1 1zM32.417 57.583h-10a1 1 0 1 0 0 2h10a1 1 0 1 0 0-2zM43.417 57.583h-7a1 1 0 1 0 0 2h7a1 1 0 1 0 0-2zM47.417 52.583h-4a1 1 0 1 0 0 2h4a1 1 0 1 0 0-2z"/></svg>