<svg xmlns="http://www.w3.org/2000/svg" xml:space="preserve" width="70" height="70"><path d="M27.792 8.103v9.427c-5.957 1.364-8.811 5.091-9.185 12.032h9.185v22.336H7.813V33.531c0-13.274 5.708-23.448 19.979-25.428m0-4c-.183 0-.366.013-.55.038C12.134 6.237 3.813 16.675 3.813 33.531v18.366a4 4 0 0 0 4 4h19.979a4 4 0 0 0 4-4V29.562a4 4 0 0 0-4-4h-4.411c.988-2.571 2.832-3.567 5.304-4.133a4 4 0 0 0 3.107-3.899V8.103a4 4 0 0 0-4-4zM62.187 18.103v9.427c-5.955 1.364-8.809 5.091-9.183 12.032h9.183v22.336H42.208V43.531c0-13.274 5.709-23.448 19.979-25.428m0-4c-.183 0-.366.013-.55.038-15.108 2.097-23.429 12.534-23.429 29.391v18.366a4 4 0 0 0 4 4h19.979a4 4 0 0 0 4-4V39.562a4 4 0 0 0-4-4h-4.409c.988-2.571 2.831-3.567 5.303-4.133a4 4 0 0 0 3.106-3.899v-9.427a4.002 4.002 0 0 0-4-4z"/><path d="M24.583 45.565a1 1 0 0 1-1-1V33.583h-4.654a1 1 0 1 1 0-2h6c.553 0 .654.43.654.982v12a1 1 0 0 1-1 1zM59.583 57.565a1 1 0 0 1-1-1v-2a1 1 0 1 1 2 0v2a1 1 0 0 1-1 1zM59.583 51.565a1 1 0 0 1-1-1v-6.982h-4.654a1 1 0 1 1 0-2h6c.553 0 .654.43.654.982v8a1 1 0 0 1-1 1z"/></svg>