<svg xmlns="http://www.w3.org/2000/svg" xml:space="preserve" width="70" height="70"><path d="M65.981 51.389 57 44.818c-.608-.447-1.493-.513-2.165-.173s-1.252 1.03-1.252 1.784v5.237c-3.181.34-14.083.226-18.823-16.212 6.214-15.712 15.76-16.886 18.823-16.83v4.946c0 .754.58 1.444 1.252 1.784.285.145.75.216 1.059.216.418 0 .829-.131 1.18-.389l8.937-6.571a1.99 1.99 0 0 0-.028-3.222L57 8.818c-.608-.448-1.493-.513-2.165-.173s-1.252 1.03-1.252 1.784v4.198c-3.822-.046-13.442 1.306-20.44 14.734-3.03-10.222-7.689-16.728-13.89-19.343-7.746-3.267-14.796.881-15.092 1.06a1.997 1.997 0 0 0-.685 2.735 2.001 2.001 0 0 0 2.738.696c.058-.032 5.678-3.284 11.526-.787 5.703 2.432 9.93 9.333 12.563 20.512.082.348.171.678.258 1.014-.064.175-.132.337-.196.515-3.696 10.345-8.764 17.12-14.651 19.592-5.297 2.224-9.498.335-9.661.26a2 2 0 1 0-1.725 3.609c.153.073 2.579 1.202 6.164 1.202 1.938 0 4.217-.33 6.657-1.336 6.238-2.571 11.403-8.591 15.392-17.916 5.415 12.753 14.946 14.519 19.785 14.519.465 0 .885-.017 1.255-.041v3.919c0 .754.58 1.444 1.252 1.784.285.145.75.216 1.059.216.418 0 .829-.131 1.18-.389l8.937-6.571a1.99 1.99 0 0 0-.028-3.222zM57.583 14.38 61.147 17l-3.564 2.619V14.38zm0 41.239v-5.238L61.147 53l-3.564 2.619z"/><path d="M38.995 37.081a1.005 1.005 0 0 0-1.311-.533 1.002 1.002 0 0 0-.533 1.311c3.465 8.215 8.91 10.974 12.867 11.841a1 1 0 1 0 .428-1.953c-3.496-.768-8.32-3.24-11.451-10.666zM8.467 17.864c5.117-.824 11.476-1.843 17.331 12.953a.998.998 0 0 0 1.298.562 1 1 0 0 0 .562-1.298C21.211 13.79 13.354 15.054 8.15 15.889l-.771.122a.999.999 0 0 0-.838 1.139.995.995 0 0 0 1.139.838l.787-.124z"/></svg>