<svg xmlns="http://www.w3.org/2000/svg" xml:space="preserve" width="70" height="70"><path d="M65.208 62.583h-1.625v-44.21c0-4.115-3.664-7.592-8-7.592-4.338 0-8 3.477-8 7.592v44.21h-2v-33.21c0-4.115-3.664-7.592-8-7.592-4.337 0-8 3.477-8 7.592v33.21h-2V40.372c0-4.115-3.663-7.591-8-7.591-4.336 0-8 3.477-8 7.591v22.211h-5v-4h2.625a1 1 0 1 0 0-2H6.583v-8h2.625a1 1 0 1 0 0-2H6.583v-6h2.625a1 1 0 1 0 0-2H6.583v-6h2.625a1 1 0 1 0 0-2H6.583v-8h2.625a1 1 0 1 0 0-2H6.583v-8h2.625a1 1 0 1 0 0-2H6.583V5.208a2 2 0 0 0-4 0v60c0 1.105 1.521 1.375 2.625 1.375h60a2 2 0 0 0 0-4zm-13.625-44.21c0-1.913 1.869-3.592 4-3.592s4 1.679 4 3.592v44.21h-8v-44.21zm-18 11c0-1.913 1.869-3.592 4-3.592s4 1.679 4 3.592v33.21h-8v-33.21zm-18 10.999c0-1.913 1.869-3.591 4-3.591s4 1.679 4 3.591v22.211h-8V40.372z"/><path d="M56.583 21.208a1 1 0 0 0-1 1v14a1 1 0 1 0 2 0v-14c0-.552-.449-1-1-1zM38.583 33.208a1 1 0 0 0-1 1v10a1 1 0 1 0 2 0v-10c0-.552-.449-1-1-1zM20.583 42.208a1 1 0 0 0-1 1v7a1 1 0 1 0 2 0v-7a1 1 0 0 0-1-1z"/></svg>