<svg xmlns="http://www.w3.org/2000/svg" xml:space="preserve" width="70" height="70"><path d="m13.051 42.684 6.57-8.994c.447-.607.514-1.323.173-1.997a2.012 2.012 0 0 0-1.784-1.109h-4.16c1.611-11 10.739-18.854 21.732-18.854 7.715 0 14.729 3.835 18.767 10.422.577.942 1.808 1.188 2.75.611a2.029 2.029 0 0 0 .66-2.774c-4.77-7.783-13.06-12.247-22.177-12.247-13.202 0-24.126 9.842-25.768 22.842H4.868c-.754 0-1.444.438-1.784 1.109-.341.674-.274 1.592.173 2.199l6.571 8.893c.377.513.975.791 1.611.791s1.235-.38 1.612-.892zM8.82 34.583h5.238l-2.619 3.564-2.619-3.564z"/><path d="M52.075 24.851a1 1 0 0 0 .33-1.375c-3.646-5.949-9.982-9.501-16.95-9.501-7.049 0-13.632 3.789-17.181 9.888a1 1 0 0 0 1.728 1.006c3.191-5.485 9.112-8.894 15.452-8.894 6.267 0 11.966 3.194 15.245 8.546.289.47.905.618 1.376.33zM19.28 45.48a1 1 0 0 0-1.705 1.045c3.646 5.948 9.981 9.5 16.95 9.5 7.571 0 14.595-4.406 17.893-11.225a1.001 1.001 0 0 0-1.801-.871c-2.966 6.133-9.282 10.096-16.092 10.096-6.267 0-11.965-3.194-15.245-8.545z"/><path d="m66.581 34.224-6.429-8.753c-.377-.513-.975-.829-1.611-.829s-1.234.277-1.611.79l-6.57 8.889c-.447.607-.514 1.507-.173 2.179a1.985 1.985 0 0 0 1.784 1.084h4.401c-.381 11-10.087 21.079-21.974 21.079-7.715 0-14.73-4.03-18.767-10.616-.576-.942-1.808-1.287-2.75-.709a1.972 1.972 0 0 0-.66 2.726c4.769 7.782 13.06 12.612 22.177 12.612 14.092 0 25.592-11.092 25.974-25.092h4.76c1.105 0 2-.886 2-1.99 0-.535-.209-1.012-.551-1.37zm-10.659-.641 2.619-3.564 2.619 3.564h-5.238z"/></svg>