<svg xmlns="http://www.w3.org/2000/svg" xml:space="preserve" width="70" height="70"><path d="M65.395 6.077a1.999 1.999 0 0 0-1.612-1.612c-.206-.038-5.126-.914-11.318-.914-9.855 0-16.997 2.144-21.225 6.373l-.537.536c-2.187 2.183-4.851 4.846-7.267 7.703-2.254-.093-10.986-.071-14.767 5.473-3.872 5.678-4.919 12.259-4.961 12.536a2 2 0 0 0 1.739 2.291l12.613 1.505c.827 2.252 1.948 4.312 3.194 5.932l-3.074 3.073a2 2 0 1 0 2.828 2.828l3.09-3.09c1.711 1.293 3.817 2.389 6.047 3.178l1.525 12.797a2.001 2.001 0 0 0 2.291 1.74c.277-.043 6.857-1.091 12.536-4.962 6.127-4.178 5.509-14.407 5.447-15.248 2.754-2.354 5.318-4.918 7.432-7.035l.56-.561c9.497-9.497 5.628-31.606 5.459-32.543zm-3.724 2.111c.294 2.15.769 6.524.604 11.313-2.305-.896-5.909-3.773-9.127-7.392-1.656-1.862-2.734-3.401-3.347-4.494a57.116 57.116 0 0 1 2.663-.064c3.932 0 7.375.385 9.207.637zM8.108 34.752c.563-2.172 1.727-5.725 3.865-8.862 1.677-2.459 5.383-3.379 8.334-3.653-1.765 2.594-3.086 5.237-3.482 7.747-.296 1.883-.222 3.867.114 5.821l-8.831-1.053zm36.135 23.407c-3.138 2.139-6.691 3.303-8.862 3.865l-1.079-9.058c1.061.174 2.111.269 3.122.269.853 0 1.683-.063 2.467-.188 2.604-.413 5.356-1.834 8.047-3.708-.212 3.014-1.085 7.041-3.695 8.82zm12.864-22.367-.563.563c-4.435 4.443-11.858 11.881-17.281 12.741-3.693.596-8.913-.889-12.302-3.248l10.154-10.154a2 2 0 1 0-2.828-2.828L24.114 43.039c-2.264-3.179-3.984-8.32-3.337-12.434.858-5.441 8.303-12.874 12.751-17.314l.539-.539c3.221-3.22 8.561-4.534 13.569-4.991.854 1.936 2.737 4.238 4.018 5.677 2.979 3.351 7.272 7.184 10.508 8.134-.403 5.348-1.721 10.886-5.055 14.22z"/><path d="m33.243 16.334-.384.384c-3.601 3.595-9.042 9.027-9.777 13.688a1 1 0 1 0 1.974.313c.635-4.019 6.006-9.382 9.216-12.586l.385-.385a.999.999 0 1 0-1.414-1.414zM24.477 55.425c-2.446 2.446-8.259 2.362-11.533 1.992-.371-3.275-.454-9.088 1.992-11.534a2 2 0 1 0-2.828-2.828c-4.841 4.84-3.112 15.308-2.899 16.485a1.999 1.999 0 0 0 1.612 1.612 33.35 33.35 0 0 0 5.588.473c3.636 0 8.163-.639 10.896-3.372a2 2 0 1 0-2.828-2.828zM45.365 17.845c-3.859 0-7 3.141-7 7s3.14 7 7 7 7-3.141 7-7-3.14-7-7-7zm0 12c-2.757 0-5-2.243-5-5s2.243-5 5-5 5 2.243 5 5-2.243 5-5 5z"/></svg>