<svg xmlns="http://www.w3.org/2000/svg" xml:space="preserve" width="70" height="70"><path d="M31.027 21.241a9.842 9.842 0 0 0-6.982 2.893c-3.856 3.856-3.856 10.109 0 13.966.453.453.943.849 1.455 1.195L39.207 25.59a9.84 9.84 0 0 0-8.18-4.349zm-5.378 12.248a5.853 5.853 0 0 1-.497-2.372c0-1.57.611-3.045 1.721-4.155a5.84 5.84 0 0 1 4.154-1.721c.831 0 1.636.172 2.374.497l-7.752 7.751z"/><path d="m65.676 17.504-9.192-9.192a4.001 4.001 0 0 0-5.657 0L49.18 9.959C44.127 5.61 37.759 3.24 31.028 3.24c-7.445 0-14.445 2.899-19.71 8.165C6.052 16.67 3.152 23.67 3.152 31.117c.001 6.732 2.372 13.101 6.718 18.15L8.399 50.74a3.998 3.998 0 0 0 .001 5.656l9.192 9.191c.781.781 1.805 1.172 2.828 1.172s2.047-.391 2.828-1.172l22.625-22.625c.001 0 .002 0 .003-.002l.002-.002 19.797-19.797a4 4 0 0 0 .001-5.657zm-7.779 7.779-2.828-2.828a.999.999 0 1 0-1.414 1.414l2.828 2.828-2.121 2.122-.708-.708a.999.999 0 1 0-1.414 1.414l.708.708-2.122 2.121-.707-.708a.999.999 0 1 0-1.414 1.414l.707.708-2.121 2.122-.707-.707a.999.999 0 1 0-1.414 1.414l.707.707-2.121 2.122-.707-.707a.999.999 0 1 0-1.414 1.414l.707.707-2.122 2.12-2.828-2.828a.999.999 0 1 0-1.414 1.414l2.828 2.828-2.121 2.121-.707-.707a.999.999 0 1 0-1.414 1.414l.707.707-2.122 2.123-.707-.709a.999.999 0 1 0-1.414 1.414l.707.709-2.121 2.121-.707-.707a.999.999 0 1 0-1.414 1.414l.707.707-2.121 2.121-.707-.707a.999.999 0 1 0-1.414 1.414l.707.707-4.243 4.242-9.192-9.191 4.299-4.301a23.13 23.13 0 0 1-1.382-1.27 23.73 23.73 0 0 1-5.476-8.559l2.769-.876a1 1 0 0 0-.604-1.906l-2.79.866c-.901-3.234-1.096-6.938-.608-9.938h2.16a1 1 0 1 0 0-2h-1.78c.92-4 2.833-7.591 5.74-10.718l1.913 1.922a.995.995 0 0 0 1.414.007.998.998 0 0 0 0-1.413l-1.702-1.903c2.724-2.48 5.4-4.242 9.4-5.236v1.795a1 1 0 1 0 2 0V7.748c1-.33 3.02-.507 4.646-.507 2.647 0 5.186.465 7.716 1.34l-.737 2.166c-.167.526.1 1.088.626 1.255a.915.915 0 0 0 .289.047.99.99 0 0 0 .946-.698l.643-2.037a23.774 23.774 0 0 1 7.199 4.921c.446.447.864.91 1.269 1.383l4.475-4.477 9.192 9.192-4.95 4.95z"/></svg>