<svg xmlns="http://www.w3.org/2000/svg" xml:space="preserve" width="70" height="70"><path d="m64.897 54.278-15.54-15.543a24.348 24.348 0 0 0 2.575-10.917c0-13.509-10.99-24.5-24.5-24.5s-24.5 10.991-24.5 24.5 10.99 24.5 24.5 24.5c4.16 0 8.079-1.045 11.514-2.881l15.35 15.21c1.399 1.4 3.263 1.937 5.248 1.937h.038c1.991 0 3.866-.56 5.278-1.974 1.413-1.412 2.197-3.079 2.207-5.071a7.309 7.309 0 0 0-2.17-5.261zm-16.982-1.529 4.914-4.914 1.587 1.586-4.906 4.906-1.595-1.578zM6.933 27.818c0-11.323 9.178-20.5 20.5-20.5s20.5 9.177 20.5 20.5c0 11.324-9.178 20.5-20.5 20.5s-20.5-9.176-20.5-20.5zm40.29 14.419 4.191 4.186-4.921 4.92-4.149-4.104a24.713 24.713 0 0 0 4.879-5.002zm14.809 19.546c-.663.662-1.54.8-2.471.8h-.018c-.916 0-1.775-.132-2.42-.776l-6.192-6.099 4.899-4.888 6.238 6.237c.648.648 1.003 1.444.998 2.368-.003.93-.371 1.694-1.034 2.358z"/><path d="M25.274 11.712c-.39 0-.777.016-1.16.047a1 1 0 1 0 .164 1.994c.328-.027.661-.041.996-.041a1 1 0 1 0 0-2zM19.463 12.978a13.995 13.995 0 0 0-8.136 12.683 1 1 0 1 0 2 0 11.99 11.99 0 0 1 6.97-10.866 1 1 0 1 0-.834-1.817z"/></svg>