<svg xmlns="http://www.w3.org/2000/svg" xml:space="preserve" width="70" height="70"><path d="M65.909 5.596a1.999 1.999 0 0 0-2.11-.026L4.133 41.638a2 2 0 0 0 .449 3.624l18.664 5.707 2.445 12.145a2.002 2.002 0 0 0 3.286 1.103l9.658-8.542 19.824 6.062a2.002 2.002 0 0 0 2.574-1.693L66.821 7.5a2 2 0 0 0-.912-1.904zM28.928 58.921l-1.333-6.623 6.555 2.005-5.222 4.618zm28.393-1.715-24.833-7.593 20.105-23.584a.999.999 0 1 0-1.521-1.297L30.405 48.976l-20.373-6.229 52.369-31.658-5.08 46.117z"/><path d="M55.524 39.707a1 1 0 0 0 1.115-.869l.186-1.5a.998.998 0 0 0-.869-1.115.997.997 0 0 0-1.115.869l-.186 1.5a.999.999 0 0 0 .869 1.115zM54.191 50.396a1 1 0 0 0 1.132-.848l.959-6.691a1.001 1.001 0 0 0-.849-1.132 1.005 1.005 0 0 0-1.132.849l-.959 6.691a1.002 1.002 0 0 0 .849 1.131z"/></svg>