<svg xmlns="http://www.w3.org/2000/svg" xml:space="preserve" width="70" height="70"><path d="M35.367 26.428c-4.687 0-8.5 3.813-8.5 8.5s3.813 8.5 8.5 8.5 8.5-3.813 8.5-8.5-3.813-8.5-8.5-8.5zm0 15a6.5 6.5 0 1 1 0-13 6.5 6.5 0 0 1 0 13zM43.917 21.998a1 1 0 1 0-1.104 1.668 13.481 13.481 0 0 1 6.054 11.262 1 1 0 1 0 2 0 15.473 15.473 0 0 0-6.95-12.93zM35.367 21.428c.94 0 1.88.098 2.795.289a1 1 0 0 0 .411-1.958 15.574 15.574 0 0 0-3.205-.332c-.553 0-1 .447-1 1s.446 1.001.999 1.001z"/><path d="M64.219 27.583h-6.266c-.468-1-1.1-2.556-1.882-4.001l2.424-2.151c1.563-1.563 1.563-3.958.001-5.521L54.6 12.083c-.75-.75-1.768-1.139-2.829-1.139s-2.079.439-2.829 1.189l-2.617 2.434c-1.445-.783-3.742-1.405-4.742-1.874V7.428c0-2.209-1.401-4.845-3.61-4.845h-6.508c-2.209 0-3.882 1.636-3.882 3.845v6.266c-2 .469-2.659 1.1-4.104 1.883l-2.205-2.426c-.75-.75-1.657-1.172-2.718-1.172s-2.023.422-2.774 1.172l-3.868 3.896c-1.563 1.563-1.548 4.095.015 5.657l2.431 1.878c-.782 1.445-1.407 3.001-1.875 4.001H6.219c-2.209 0-3.636 1.882-3.636 4.091v6.507c0 2.209 2.427 3.402 4.636 3.402h5.265c.469 1 1.101 3.402 1.883 4.846l-2.424 2.574c-1.563 1.561-1.563 4.169-.001 5.731l3.896 3.933c.75.75 1.768 1.192 2.829 1.192s2.079-.414 2.829-1.164l1.984-2.42c1.445.783 2.104 1.418 4.104 1.887v5.266c0 2.209 2.673 3.155 4.882 3.155h5.508c2.209 0 3.61-.946 3.61-3.155v-5.266c1-.469 3.297-1.1 4.742-1.883l2.52 2.426c.75.75 1.817 1.172 2.879 1.172a4.057 4.057 0 0 0 2.852-1.172l3.909-3.896a4 4 0 0 0 .004-5.656l-2.419-2.724c.782-1.443 1.416-3.846 1.885-4.846h5.265c2.209 0 3.364-1.193 3.364-3.402v-5.507c-.002-2.209-.157-5.091-2.366-5.091zm-1.636 10h-7.841c-.455 3-1.71 6.674-3.771 9.404l4.695 4.844-3.896 3.972-4.89-4.661c-2.732 2.062-6.299 3.354-9.299 3.81v7.632h-6v-7.632c-3-.455-5.93-1.71-8.663-3.771l-4.475 4.697-3.783-3.898 4.75-4.993c-2.061-2.73-3.26-6.404-3.715-9.404H6.583v-6h9.112c.455-3 1.71-5.827 3.771-8.56l-4.695-4.422 3.896-3.76 4.254 4.767c2.732-2.062 5.663-3.249 8.663-3.704V6.583h6v9.321c3 .455 6.566 1.71 9.299 3.771l4.792-4.697 3.945 3.896-4.673 4.148c2.061 2.732 3.341 5.56 3.796 8.56h7.841v6.001z"/><path d="M28.421 45.689a13.481 13.481 0 0 1-6.054-11.262 1 1 0 1 0-2 0 15.475 15.475 0 0 0 6.95 12.93.998.998 0 0 0 1.386-.282 1 1 0 0 0-.282-1.386z"/></svg>