<svg xmlns="http://www.w3.org/2000/svg" xml:space="preserve" width="70" height="70"><path d="M51.5 39c-4.915 0-9.239 2.552-11.737 6.395l-4.876-2.438A15.894 15.894 0 0 0 36.5 36c0-2.044-.4-3.994-1.102-5.792l10.367-6.047A11.948 11.948 0 0 0 53.5 27c6.617 0 12-5.383 12-12s-5.383-12-12-12c-6.616 0-12 5.383-12 12 0 2.209.61 4.273 1.656 6.053l-9.668 5.64C30.582 22.648 25.849 20 20.5 20c-8.822 0-16 7.178-16 16s7.178 16 16 16c4.884 0 9.257-2.206 12.194-5.666l5.388 2.693A13.942 13.942 0 0 0 37.5 53c0 7.72 6.281 14 14 14 7.721 0 14-6.28 14-14s-6.279-14-14-14zm2-32a8 8 0 1 1 0 16 8 8 0 0 1 0-16zm-33 41c-6.627 0-12-5.373-12-12s5.373-12 12-12 12 5.373 12 12-5.373 12-12 12zm31 15c-5.521 0-10-4.477-10-10s4.479-10 10-10c5.523 0 10 4.477 10 10s-4.477 10-10 10z"/><path d="M20.5 26.6c-.631 0-1.265.064-1.881.19a1 1 0 1 0 .402 1.959A7.399 7.399 0 0 1 20.5 28.6a1 1 0 1 0 0-2zM12.979 30.36A9.316 9.316 0 0 0 11.1 36a1 1 0 1 0 2 0c0-1.617.511-3.152 1.478-4.438a1 1 0 1 0-1.599-1.202zM45.589 48.845a8.705 8.705 0 0 0-1.755 5.267 1 1 0 1 0 2 0c0-1.481.469-2.887 1.354-4.065a1 1 0 1 0-1.599-1.202zM48.67 15.686a1.002 1.002 0 0 0 1.238-.685 5.943 5.943 0 0 1 2.146-3.126c.441-.333.529-.96.197-1.401a1.002 1.002 0 0 0-1.4-.196 7.926 7.926 0 0 0-2.865 4.171 1 1 0 0 0 .684 1.237z"/></svg>