<svg xmlns="http://www.w3.org/2000/svg" xml:space="preserve" width="70" height="70"><path d="M35 3C17.355 3 3 17.355 3 35s14.355 32 32 32 32-14.355 32-32S52.645 3 35 3zm0 60C19.535 63 7 50.465 7 35S19.535 7 35 7s28 12.535 28 28-12.535 28-28 28z"/><path d="M47.882 46.192a1.003 1.003 0 0 0-1.386.284 13.834 13.834 0 0 1-11.576 6.237 13.909 13.909 0 0 1-12.007-6.933 1 1 0 1 0-1.732 1 15.915 15.915 0 0 0 13.739 7.933 15.83 15.83 0 0 0 13.246-7.136 1 1 0 0 0-.284-1.385zM27.433 35.551a.995.995 0 0 0 1.403.173.999.999 0 0 0 .173-1.403l-4.839-6.205a1.002 1.002 0 0 0-1.552-.031l-4.715 5.584a1 1 0 0 0 1.527 1.291l3.92-4.643 4.083 5.234zM46.882 28.085a1.039 1.039 0 0 0-.783-.354 1 1 0 0 0-.769.385l-4.839 6.205a.998.998 0 0 0 .787 1.615.995.995 0 0 0 .789-.385l4.082-5.233 3.92 4.643a.999.999 0 1 0 1.527-1.291l-4.714-5.585zM18.663 17.111a.999.999 0 0 0-1.414 0 26 26 0 0 0-1.152 1.229 1 1 0 1 0 1.502 1.32c.34-.387.695-.766 1.064-1.135a.999.999 0 0 0 0-1.414zM13.483 23.828a.997.997 0 0 0-1.334.469c-2.461 5.126-3.184 11.028-2.037 16.621a1 1 0 0 0 1.959-.403 24.364 24.364 0 0 1 1.881-15.354.999.999 0 0 0-.469-1.333zM36.573 55.583h-4a1 1 0 1 0 0 2h4a1 1 0 1 0 0-2z"/></svg>