<svg xmlns="http://www.w3.org/2000/svg" xml:space="preserve" width="70" height="70"><path d="M63.583 38.956V5.329c0-1.104-.536-2.746-1.641-2.746h-30c-1.104 0-2.359 1.641-2.359 2.746v22.502l-15.779 8.437c-.047.025.101.052.056.08-4.34 2.755-11.133 10.813-5.749 21.583 4.133 8.266 12.277 9.158 15.589 9.158.846 0 1.323-.061 1.381-.066.153-.018.25-.053.394-.105.137-.049 13.725-4.988 27.085-11.061 11.649-5.295 11.379-14.784 11.023-16.901zm-30-27.373h26v7h-26v-7zm26-5v3h-26v-3h26zM32.697 30.804c.655-.347.886-1.027.886-1.769v-8.453h26v17.373c-2 .042-5.967.694-10.309 4.311-5.244 4.371-4.194 10.207-3.571 12.338-8.561 3.695-16.449 6.688-19.787 7.93.631-13.176-7.521-20.924-9.835-22.844l16.616-8.886zM11.682 56.142c-3.827-7.654.302-12.926 2.761-15.186 1.263 1.002 10.333 8.691 9.445 22.014-.002.039.013.076.016.115-.07.002-.129.004-.207.004-2.569 0-8.88-.678-12.015-6.947zm39.404-3.926c-1.188.539-2.377 1.07-3.56 1.588-.526-1.865-1.245-6.461 3.001-10 4.109-3.426 7.638-3.865 9.243-3.855-.009 2.155-.727 8.65-8.684 12.267z"/></svg>