<svg xmlns="http://www.w3.org/2000/svg" xml:space="preserve" width="70" height="70"><path d="M65.331 31.168a4.001 4.001 0 0 0-2.24-6.782l-16.728-2.5a.64.64 0 0 1-.479-.317L38.632 5.827a4.002 4.002 0 0 0-7.267 0L24.116 21.57a.64.64 0 0 1-.479.316l-16.729 2.5a4 4 0 0 0-2.24 6.783l12.258 12.279a.47.47 0 0 1 .148.355l-3.991 17.822a3.997 3.997 0 0 0 3.904 4.874c.711 0 1.423-.189 2.059-.57l15.652-9.395a.731.731 0 0 1 .627.011l16.581 9.431a3.997 3.997 0 0 0 4.43-.317 4 4 0 0 0 1.407-4.212l-4.818-17.685a.486.486 0 0 1 .146-.313l12.26-12.281zM48.984 44.519l4.9 17.981-16.639-9.464a4.736 4.736 0 0 0-4.49 0L16.987 62.5l4.027-17.981a4.46 4.46 0 0 0-1.257-3.896L7.5 28.343l16.728-2.5c1.527-.228 2.844-1.188 3.501-2.555L34.999 7.5l7.272 15.788a4.635 4.635 0 0 0 3.501 2.555l16.728 2.5-12.257 12.279a4.468 4.468 0 0 0-1.259 3.897z"/><path d="M33.807 19.971a1 1 0 0 0-1.357.399l-3.859 7.07a2.442 2.442 0 0 1-1.852 1.345l-6.747 1.008a1 1 0 0 0 .294 1.978l6.747-1.008c1.469-.22 2.724-1.138 3.336-2.411l3.836-7.025a1 1 0 0 0-.398-1.356zM35.317 15.22a.996.996 0 0 0-1.326.49l-.725 1.574a1 1 0 1 0 1.816.836l.725-1.574a.998.998 0 0 0-.49-1.326z"/></svg>