<svg xmlns="http://www.w3.org/2000/svg" xml:space="preserve" width="70" height="70"><path d="M35 7c15.465 0 28 12.535 28 28 0 15.467-12.535 28-28 28S7 50.467 7 35C7 19.535 19.535 7 35 7m0-4C17.355 3 3 17.355 3 35s14.355 32 32 32 32-14.355 32-32S52.645 3 35 3z"/><path d="M47.583 47.583a1 1 0 0 1-1 1h-25a1 1 0 0 1-1-1v-25a1 1 0 0 1 1-1h25a1 1 0 0 1 1 1v25zm-25-1h23v-23h-23v23z"/><path d="M25.583 38.293a1 1 0 0 1-1-1v-10c0-.553.793-1.71 1.346-1.71h7a1 1 0 1 1 0 2h-6.346v9.71a1 1 0 0 1-1 1zM25.583 44.293a1 1 0 0 1-1-1v-1a1 1 0 1 1 2 0v1a1 1 0 0 1-1 1z"/></svg>