<svg xmlns="http://www.w3.org/2000/svg" xml:space="preserve" width="70" height="70"><path d="m58.821 12.551-9.985-8.492c-.75-.75-1.563-1.476-2.623-1.476H14.4c-2.209 0-4.817 2.4-4.817 4.609v56c0 2.209 1.608 3.391 3.817 3.391h43c2.209 0 3.183-1.182 3.183-3.391V15.379c0-1.061-.012-2.078-.762-2.828zm-2.775 2.032h-7.463V8.229l7.463 6.354zm-.463 48h-42v-56h33v8.877c0 .553.281 1.123.834 1.123h8.166v46z"/><path d="M49.583 21.583a1 1 0 0 0-1-1h-28a1 1 0 0 0-1 1v31a1 1 0 0 0 1 1h28a1 1 0 0 0 1-1v-31zm-20 24v-4h13v4h-13zm13 2v4h-13v-4h13zm0-8h-13v-5h13v5zm2-5h3v5h-3v-5zm-17 5h-6v-5h6v5zm-6-7v-4h6v4h-6zm0 9h6v4h-6v-4zm23 0h3v4h-3v-4zm3-9h-3v-4h3v4zm-5 0h-13v-4h13v4zm-13-6v-4h13v4h-13zm-2-4v4h-6v-4h6zm-6 25h6v4h-6v-4zm23 4v-4h3v4h-3zm3-25h-3v-4h3v4z"/></svg>