<svg xmlns="http://www.w3.org/2000/svg" xml:space="preserve" width="70" height="70"><path d="m58.839 12.551-9.974-8.492c-.75-.75-1.553-1.476-2.613-1.476H13.439c-2.209 0-3.856 1.4-3.856 3.609v57c0 2.209 1.647 3.391 3.856 3.391h43c2.209 0 3.144-1.182 3.144-3.391V15.379c0-1.061.008-2.078-.744-2.828zm-2.791 2.032h-8.465V7.17l8.465 7.413zm-42.465 48v-56h32V16c0 .553 1.282.583 1.834.583h8.166v46h-42z"/><path d="M21.417 22.583h10a1 1 0 1 0 0-2h-10a1 1 0 1 0 0 2zM47.417 20.583h-12a1 1 0 1 0 0 2h12a1 1 0 1 0 0-2zM21.417 27.583h4a1 1 0 1 0 0-2h-4a1 1 0 1 0 0 2zM28.417 26.583a1 1 0 0 0 1 1h7a1 1 0 1 0 0-2h-7a1 1 0 0 0-1 1zM21.417 32.583h8a1 1 0 1 0 0-2h-8a1 1 0 1 0 0 2zM47.417 30.583h-14a1 1 0 1 0 0 2h14a1 1 0 1 0 0-2zM47.417 25.583h-6a1 1 0 1 0 0 2h6a1 1 0 1 0 0-2zM40.417 50.583h-7a1 1 0 1 0 0 2h7a1 1 0 1 0 0-2zM47.417 45.583h-7a1 1 0 1 0 0 2h7a1 1 0 1 0 0-2zM21.417 47.583h15a1 1 0 1 0 0-2h-15a1 1 0 1 0 0 2zM28.417 50.583h-7a1 1 0 1 0 0 2h7a1 1 0 1 0 0-2zM21.417 37.583h6a1 1 0 1 0 0-2h-6a1 1 0 1 0 0 2zM47.417 35.583h-16a1 1 0 1 0 0 2h16a1 1 0 1 0 0-2zM21.417 42.583h13a1 1 0 1 0 0-2h-13a1 1 0 1 0 0 2zM47.417 40.583h-9a1 1 0 1 0 0 2h9a1 1 0 1 0 0-2z"/></svg>