<svg xmlns="http://www.w3.org/2000/svg" xml:space="preserve" width="70" height="70"><path d="M43.053 20.184a4.324 4.324 0 0 0-.298-.96l5.536-9.016a4.034 4.034 0 0 0 .088-4.067 4.006 4.006 0 0 0-3.492-2.057l-19.772-.01a4 4 0 0 0-3.406 6.099l5.537 9.051c-.131.31-.241.629-.298.961L21.172 53.95c-.258 1.5.359 3.088 1.59 3.983l9.886 7.222c.701.51 1.527.783 2.352.783s1.65-.247 2.352-.757L47.238 58a4 4 0 0 0 1.591-3.911l-5.776-33.905zm1.833-12.007-5.199 8.467a3.34 3.34 0 0 0-.576-.062h-8.22c-.196 0-.386.028-.574.061l-5.202-8.502 19.771.036zm-9.948 53.66-9.854-7.407 5.637-32.858c.057.002.112.012.169.012h8.133l5.739 32.949-9.824 7.304z"/><path d="M32.058 29.571a.996.996 0 0 0-1.155.816l-2.566 14.936a.998.998 0 0 0 .986 1.169 1 1 0 0 0 .984-.831l2.566-14.936a1 1 0 0 0-.815-1.154zM28.688 49.179a.997.997 0 0 0-1.154.816l-.408 2.376a.999.999 0 1 0 1.971.338l.408-2.376a.998.998 0 0 0-.817-1.154z"/></svg>