<svg xmlns="http://www.w3.org/2000/svg" xml:space="preserve" width="70" height="70"><path d="m58.806 13.644 2.813-2.813 1.656 1.656c.391.391.902.586 1.414.586s1.023-.195 1.414-.586a2 2 0 0 0 0-2.828l-6-6a2 2 0 1 0-2.828 2.828l1.516 1.516-2.841 2.841C50.332 5.963 43.008 3 35 3c-7.98 0-15.281 2.943-20.892 7.792l-3.036-3.036 1.342-1.342a2 2 0 1 0-2.828-2.828l-6 6a2 2 0 1 0 2.828 2.828l1.83-1.83 3.001 3.001C6.124 19.261 3 26.772 3 35c0 17.645 14.355 32 32 32s32-14.355 32-32c0-8.2-3.104-15.687-8.194-21.356zM55.49 54.076l-1.398-1.398a.999.999 0 1 0-1.414 1.414l1.398 1.398a27.891 27.891 0 0 1-18.493 7.495v-2.34a1 1 0 1 0-2 0v2.318c-6.813-.339-12.981-3.117-17.659-7.474l1.398-1.398a.999.999 0 1 0-1.414-1.414l-1.398 1.398a27.892 27.892 0 0 1-7.496-18.493h1.914a1 1 0 1 0 0-2H7.036c.34-6.813 3.118-12.98 7.475-17.658l1.397 1.397a.997.997 0 0 0 1.414 0 .999.999 0 0 0 0-1.414l-1.397-1.397c4.678-4.357 10.845-7.135 17.658-7.475v1.61a1 1 0 1 0 2 0v-1.63a27.883 27.883 0 0 1 18.492 7.496l-1.397 1.397a.999.999 0 1 0 1.414 1.414l1.397-1.397c4.357 4.678 7.136 10.845 7.475 17.658h-2.035a1 1 0 1 0 0 2h2.057a27.895 27.895 0 0 1-7.496 18.493z"/><path d="M39.35 37.936c.568-.838.9-1.849.9-2.936 0-1.951-1.083-3.638-2.667-4.542v-9.951c0-1.837-1.29-3.223-3-3.223s-3 1.386-3 3.223v10.139c0 .122.029.236.069.345-1.152.963-1.902 2.393-1.902 4.009 0 1.021.305 1.967.812 2.774L19.668 48.668a.999.999 0 1 0 1.414 1.414l10.845-10.845a5.203 5.203 0 0 0 6.009.113l3.857 3.857a.997.997 0 0 0 1.414 0 .999.999 0 0 0 0-1.414l-3.857-3.857zm-5.767-17.429c0-.564.262-1.223 1-1.223s1 .658 1 1.223v9.302c-.194-.022-.383-.059-.583-.059-.494 0-.963.091-1.417.219v-9.462zM31.75 35a3.25 3.25 0 1 1 6.5 0c0 .889-.358 1.692-.937 2.279-.006.006-.015.008-.021.014s-.008.015-.014.021A3.232 3.232 0 0 1 35 38.25 3.25 3.25 0 0 1 31.75 35z"/></svg>