<svg xmlns="http://www.w3.org/2000/svg" xml:space="preserve" width="70" height="70"><path d="M58.792 18.241c-.38-.442-.934-.658-1.517-.658h-43c-.583 0-1.137.225-1.517.667s-.549 1-.461 1.576l7 46.02c.149.977.989 1.737 1.978 1.737h29c.988 0 1.828-.75 1.978-1.729l7-46.028a1.958 1.958 0 0 0-.461-1.585zm-3.844 3.342-.761 5H17.363l-.761-5h38.346zm-6.391 42h-4.101l2.643-20.34a.998.998 0 0 0-.862-1.121.991.991 0 0 0-1.12.863L42.44 63.583h-5.857v-7.076a1 1 0 1 0-2 0v7.076h-5.344l-2.973-20.611a1 1 0 0 0-1.981.285l2.932 20.326h-4.223l-5.326-35h4.727l.884 10.613a1 1 0 1 0 1.992-.166L24.4 28.583h10.182v23.924a1 1 0 1 0 2 0V28.583h10.399l-.87 10.447a1 1 0 1 0 1.992.166l.885-10.613h4.895l-5.326 35zM56.725 15.583a2 2 0 0 0 0-4H43.151c.075-.211.124-.435.124-.672 0-4.411-3.589-8-8-8s-8 3.589-8 8c0 .237.048.461.124.672H12.725a2 2 0 0 0 0 4h44zm-25.45-4.672c0-2.206 1.794-4 4-4s4 1.794 4 4c0 .237.049.461.124.672h-8.248c.076-.211.124-.435.124-.672z"/></svg>