<svg xmlns="http://www.w3.org/2000/svg" xml:space="preserve" width="70" height="70"><path d="M66.563 34.363 59.22 13.257c-.439-1.265-1.412-2.602-2.479-3.414-.793-.604-2.903-2.209-20.253-2.209-16.222 0-21.478 1.702-22.023 1.896-1.672.595-3.127 2.061-3.709 3.734l-7.342 21.11c-.51 1.465-.293 3.047.58 4.273.873 1.229 2.319 1.935 3.87 1.935h8.721v17.051c0 2.757 2.522 4.949 5.279 4.949h26.252c2.756 0 4.469-2.192 4.469-4.949v-17.05h9.531c1.551 0 2.996-.706 3.869-1.935.871-1.226 1.088-2.821.578-4.285zm-22.774-22.61c-.79 3.333-4.434 5.862-8.801 5.862-4.299 0-7.898-2.449-8.764-5.705 2.741-.165 6.12-.276 10.264-.276 2.867 0 5.273.045 7.301.119zm4.794 35.83h-28v-3h28v3zm-.469 11H21.862c-.55 0-1.279-.399-1.279-.949v-8.051h28v8.051c0 .55.08.949-.469.949zm14-22h-9.252c-.551 0-1.316-.294-1.704-.685l-1.341-1.343c-.15-.152-1.234-1.472-1.234.302v7.726h-28v-7.726c0-.305-.193-.36-.323-.153l-.648 1.058c-.293.467-.948.821-1.498.821H7.862c-.55 0-.852-.399-.671-.919l7.343-21.099c.181-.52.752-1.088 1.271-1.273 0 0 2.131-.751 8.404-1.243.929 4.296 5.404 7.566 10.779 7.566 5.461 0 9.99-3.377 10.817-7.774 7.458.388 8.514 1.188 8.514 1.188.438.333.943 1.03 1.124 1.55l7.343 21.086c.18.519-.123.918-.672.918z"/><path d="M12.954 27.446a.998.998 0 0 0-1.273.616l-.689 1.981a.998.998 0 0 0 .945 1.328 1 1 0 0 0 .944-.672l.689-1.981a1 1 0 0 0-.616-1.272zM21.889 14.272c-3.516.448-4.287.66-4.439.714-.808.288-1.598 1.084-1.879 1.894l-2.847 8.183a.998.998 0 0 0 .945 1.328 1 1 0 0 0 .944-.672l2.847-8.183c.082-.233.428-.582.627-.654.027-.008.706-.198 4.056-.625a1 1 0 0 0 .866-1.118 1.013 1.013 0 0 0-1.12-.867z"/></svg>