<svg xmlns="http://www.w3.org/2000/svg" xml:space="preserve" width="70" height="70"><path d="M34.495 13.583H19.631c-3.466 0-6.291 3.024-6.329 6.38l-.585 4.643a1 1 0 0 0 .992 1.134c.493 0 .922-.441.99-.943l.593-4.477a4.56 4.56 0 0 0 .009-.287c0-2.284 1.942-4.45 4.33-4.45h14.864a1 1 0 0 0 0-2zM13.589 27.201a1.003 1.003 0 0 0-1.101.888l-.232 2.176a1 1 0 0 0 1.989.213l.232-2.176a1 1 0 0 0-.888-1.101z"/><path d="M59.161 8.583h-8.149c-1.746 0-3.965.908-5.522 2.752-1.815-2.826-4.712-4.752-8.309-4.752H17.248c-6.17 0-11.205 5.32-11.333 11.478l-1.97 18.244c-.016.144-.023.027-.023.171 0 6.269 5.085 11.107 11.335 11.107h7.022l-1.39 10.823c-.151 1.143.197 2.47.957 3.337s1.856 1.452 3.009 1.452c.271 0 2.744.01 6.247-1.164 2.373-.793 5.339-4.474 9.982-10.979 3.028-4.244 4.846-7.717 5.761-10.402 1.345.697 2.885.934 4.168.934h8.396c4.143 0 6.175-2.678 6.175-6.83V16.812c-.001-4.152-2.28-8.229-6.423-8.229zm-7.578 4h4v6.2c0 .813-.916 1.5-2 1.5s-2-.687-2-1.5v-6.2zm-8 24.331c0 4.07-11.355 20.369-14.342 21.369s-4.683.651-4.683.651l2.286-15.351H15.257c-4.051 0-7.335-2.948-7.335-7.019l1.991-18.438c0-4.069 3.284-7.543 7.335-7.543h19.335l-.067.307c4.051 0 7.067 3.692 7.067 7.761v18.263zm18-2.161c0 1.949-.233 2.83-2.175 2.83h-8.396c-1.939 0-3.429-.88-3.429-2.83V16.812c0-1.431.807-3.032 2-3.786v5.757c0 1.93 1.794 3.5 4 3.5s4-1.57 4-3.5v-6.2h1l-.087.307c1.941 0 3.087 1.973 3.087 3.922v17.941z"/><path d="M53.583 19.197a1 1 0 0 0 1-1v-2a1 1 0 0 0-2 0v2a1 1 0 0 0 1 1z"/></svg>