<svg xmlns="http://www.w3.org/2000/svg" xml:space="preserve" width="70" height="70"><path d="M51.034 28.583h-2.451v-2.13a2 2 0 0 0-4 0v2.13h-22V17.347c0-5.628 5.583-10.383 11.712-10.383 5.514 0 10.449 4.073 11.079 9.476a2.017 2.017 0 0 0 2.245 1.755c1.098-.128 1.855-1.121 1.728-2.218-.865-7.419-7.506-13.013-15.051-13.013-8.441 0-15.713 6.452-15.713 14.383v11.692c-2 .018-4 1.728-4 3.925v30c0 2.209 2.242 3.619 4.451 3.619h32c2.209 0 3.549-1.41 3.549-3.619v-30c0-2.209-1.34-4.381-3.549-4.381zm-32.451 34v-3h2.834a1 1 0 1 0 0-2h-2.834v-4h2.834a1 1 0 1 0 0-2h-2.834v-3h2.834a1 1 0 1 0 0-2h-2.834v-4h2.834a1 1 0 1 0 0-2h-2.834v-4h2.834a1 1 0 1 0 0-2h-2.834v-2h32v2h-3.166a1 1 0 1 0 0 2h3.166v4h-3.166a1 1 0 1 0 0 2h3.166v4h-3.166a1 1 0 1 0 0 2h3.166v3h-3.166a1 1 0 1 0 0 2h3.166v4h-3.166a1 1 0 1 0 0 2h3.166v3h-32z"/><path d="M35.034 40.964c-3.309 0-6 2.691-6 6 0 1.928.944 3.721 2.458 4.834l-.319 2.951c-.062.564.12.939.5 1.361s.921.473 1.488.473h3.746c.567 0 1.108-.051 1.488-.473s.562-.893.5-1.457l-.319-2.902a5.984 5.984 0 0 0 2.458-4.812c0-3.308-2.691-5.975-6-5.975zm1.413 9.549.46 4.07h-3.746l.46-4.07c-1.51-.572-2.587-1.934-2.587-3.645 0-2.209 1.791-3.961 4-3.961s4 1.706 4 3.915c0 1.711-1.077 3.118-2.587 3.691z"/></svg>