<svg xmlns="http://www.w3.org/2000/svg" xml:space="preserve" width="70" height="70"><path d="M66.583 6.605c0-2.222-1.194-4.022-3.183-4.022H6.6c-1.988 0-4.017 1.801-4.017 4.022V62.56c0 2.222 2.029 4.022 4.017 4.022h56.8c1.988 0 3.183-1.801 3.183-4.022V6.605zm-15-.022v56h-35v-56h35zm-45 56v-56h8v56h-8zm56 0h-9v-56h9v56z"/><path d="M25 48.88c.309.179.967.268 1.312.268s.736-.089 1.045-.268l21.02-12.125a2 2 0 0 0 1-1.732c0-.714-.4-1.375-1.02-1.732L27.309 21.165c-.619-.357-1.691-.357-2.31 0s-1.416 1.018-1.416 1.732v24.25c0 .715.798 1.375 1.417 1.733zm2.583-22.519 15 8.661-15 8.661V26.361z"/><path d="m38.455 34.19-6-4a1 1 0 1 0-1.11 1.664l6 4a.998.998 0 0 0 1.387-.277c.306-.46.182-1.08-.277-1.387zM57.583 60.417a1 1 0 0 0 1-1v-2a1 1 0 1 0-2 0v2a1 1 0 0 0 1 1zM57.583 52.417a1 1 0 0 0 1-1v-4a1 1 0 1 0-2 0v4a1 1 0 0 0 1 1zM57.583 22.417a1 1 0 0 0 1-1v-4a1 1 0 1 0-2 0v4a1 1 0 0 0 1 1zM57.583 42.417a1 1 0 0 0 1-1v-4a1 1 0 1 0-2 0v4a1 1 0 0 0 1 1zM57.583 32.417a1 1 0 0 0 1-1v-4a1 1 0 1 0-2 0v4a1 1 0 0 0 1 1zM57.583 12.417a1 1 0 0 0 1-1v-2a1 1 0 1 0-2 0v2a1 1 0 0 0 1 1zM10.583 56.417a1 1 0 0 0-1 1v2a1 1 0 1 0 2 0v-2a1 1 0 0 0-1-1zM10.583 46.417a1 1 0 0 0-1 1v4a1 1 0 1 0 2 0v-4a1 1 0 0 0-1-1zM10.583 26.417a1 1 0 0 0-1 1v4a1 1 0 1 0 2 0v-4a1 1 0 0 0-1-1zM10.583 16.417a1 1 0 0 0-1 1v4a1 1 0 1 0 2 0v-4a1 1 0 0 0-1-1zM10.583 36.417a1 1 0 0 0-1 1v4a1 1 0 1 0 2 0v-4a1 1 0 0 0-1-1zM10.583 8.417a1 1 0 0 0-1 1v2a1 1 0 1 0 2 0v-2a1 1 0 0 0-1-1z"/></svg>