<svg xmlns="http://www.w3.org/2000/svg" xml:space="preserve" width="70" height="70"><path d="M43.683 3.944c-.527-.238-.741-.354-1.298-.354-.957 0-1.849.046-2.594.702l-17.62 15.291h-9.968c-4.806 0-9.62 4.504-9.62 9.31v12.57c0 4.806 4.814 8.12 9.62 8.12h10.166l17.474 15.709c.745.658 1.689 1.149 2.646 1.149.557 0 .666-.042 1.193-.28 1.434-.646 1.9-1.999 1.9-3.571v-55c.001-1.572-.466-2.999-1.899-3.646zm-19.1 42.932V22.611l13-11.583v47.91l-13.032-11.9c.009-.056.032-.104.032-.162zm-12.38-1.293c-2.604 0-5.62-1.517-5.62-4.12v-12.57c0-2.604 3.017-5.31 5.62-5.31h10.57c.079 0-.19-.09-.19-.044v21.977c0-.032.282.067.19.067h-10.57zm27.38 15.181V9.246l2-1.782V62.59l-2-1.826z"/><path d="M9.583 37.876a1 1 0 0 0-1 1v2a1 1 0 1 0 2 0v-2a1 1 0 0 0-1-1zM15.417 25.583h-.247c-2.828 0-6.587 1.169-6.587 4.536v5.757a1 1 0 1 0 2 0v-5.757c0-1.464 2.334-2.536 4.587-2.536h.247a1 1 0 1 0 0-2zM50.583 25.876a2 2 0 0 0-2 2v13a2 2 0 0 0 4 0v-13a2 2 0 0 0-2-2zM57.583 15.876a2 2 0 0 0-2 2v33a2 2 0 0 0 4 0v-33a2 2 0 0 0-2-2zM64.583 5.876a2 2 0 0 0-2 2v53a2 2 0 0 0 4 0v-53a2 2 0 0 0-2-2z"/></svg>