<svg xmlns="http://www.w3.org/2000/svg" xml:space="preserve" width="70" height="70"><path d="M43.913 3.944c-.527-.238-.521-.354-1.077-.354-.957 0-1.843.046-2.589.702L22.634 19.583h-9.968c-4.806 0-10.083 4.504-10.083 9.31v12.57c0 4.806 5.278 8.12 10.083 8.12h10.166l17.472 15.709c.746.658 1.69 1.149 2.647 1.149.557 0 .434-.042.961-.28 1.434-.646 1.67-1.999 1.67-3.571v-55c.001-1.572-.235-2.999-1.669-3.646zm-20.33 19.741 13-11.714v46.001l-13-12.006V23.685zm-17 17.778v-12.57c0-2.604 3.48-5.31 6.083-5.31h8.917v22h-8.917c-2.603 0-6.083-1.517-6.083-4.12zm32 18.356v-49.65l3-2.703V62.59l-3-2.771zM60.778 34.678l5.587-5.587a2 2 0 1 0-2.828-2.828l-5.587 5.586-5.585-5.585a2 2 0 1 0-2.828 2.828l5.585 5.586-5.584 5.584a2 2 0 1 0 2.828 2.828l5.584-5.584 5.587 5.586c.391.391.902.586 1.414.586s1.023-.195 1.414-.586a2 2 0 0 0 0-2.828l-5.587-5.586z"/><path d="M8.583 37.876a1 1 0 0 0-1 1v2a1 1 0 1 0 2 0v-2a1 1 0 0 0-1-1zM14.465 25.583h-.247c-2.828 0-6.635 1.169-6.635 4.536v5.757a1 1 0 1 0 2 0v-5.757c0-1.464 2.382-2.536 4.635-2.536h.247a1 1 0 1 0 0-2z"/></svg>