<svg xmlns="http://www.w3.org/2000/svg" xml:space="preserve" width="70" height="70"><path d="M32.509 11.8c-12.617 0-22.882 10.265-22.882 22.881s10.265 22.881 22.882 22.881 22.88-10.265 22.88-22.881S45.126 11.8 32.509 11.8zm0 41.762c-10.429 0-18.882-8.451-18.882-18.881 0-10.428 8.453-18.881 18.882-18.881 10.429 0 18.88 8.453 18.88 18.881.001 10.429-8.451 18.881-18.88 18.881z"/><path d="M38.649 19.599a.993.993 0 0 0-1.302.549.999.999 0 0 0 .549 1.303 14.231 14.231 0 0 1 8.894 13.23 1 1 0 1 0 2 0c0-6.652-3.98-12.572-10.141-15.082zM32.509 20.399c.761 0 1.525.061 2.271.181a1 1 0 0 0 .318-1.975 16.379 16.379 0 0 0-2.59-.206 1 1 0 1 0 .001 2zM35.945 36.703a3.95 3.95 0 0 0 .568-2.022 4.008 4.008 0 0 0-4.004-4.004 4.01 4.01 0 0 0-4.005 4.004c0 .696.195 1.342.509 1.913l-7.073 7.073a.999.999 0 1 0 1.414 1.414l7.023-7.023a3.963 3.963 0 0 0 2.132.628c.74 0 1.426-.216 2.021-.568l2.329 2.328a.997.997 0 0 0 1.414 0 .999.999 0 0 0 0-1.414l-2.328-2.329zm-3.436-.017a2 2 0 0 1-1.418-.587c-.025-.032-.038-.071-.067-.102-.011-.011-.025-.014-.036-.024a1.989 1.989 0 0 1-.483-1.292 2.004 2.004 0 1 1 2.004 2.005zM58.583 29.417a2 2 0 0 0-2 2v6a2 2 0 0 0 4 0v-6a2 2 0 0 0-2-2zM21.396 12.989c1.036.378 2.185-.472 2.563-1.51l1.627-4.896h14.033l1.635 5.05c.289.822 1.063 1.648 1.887 1.648.221 0 .445-.037.664-.115 1.043-.367 1.588-1.536 1.221-2.577l-2.105-6.268c-.281-.8-1.037-1.739-1.885-1.739h-16.85c-.841 0-1.593.917-1.88 1.708l-2.105 6.083c-.379 1.04.156 2.239 1.195 2.616zM43.772 57.117c-1.045-.348-2.18-.099-2.531.95l-1.648 4.516H25.619l-1.646-4.469c-.354-1.045-1.487-1.322-2.536-.967a2 2 0 0 0-1.253 2.536l2.105 5.932c.275.813 1.037.968 1.895.968h16.848c.861 0 1.625-.158 1.896-.975l2.107-6.012c.351-1.047-.214-2.129-1.263-2.479z"/></svg>