<svg xmlns="http://www.w3.org/2000/svg" xml:space="preserve" width="70" height="70"><path d="M63.421 2.583h-57c-2.209 0-3.838 1.544-3.838 3.753v57c0 2.209 2.629 3.247 4.838 3.247h56c2.209 0 3.162-1.038 3.162-3.247v-56c0-2.209-.953-4.753-3.162-4.753zm-.838 4v8h-56v-8h56zm-56 56v-46h56v46h-56z"/><path d="M10 11.583h2a1 1 0 1 0 0-2h-2a1 1 0 1 0 0 2zM16 11.583h2a1 1 0 1 0 0-2h-2a1 1 0 1 0 0 2zM22 11.583h2a1 1 0 1 0 0-2h-2a1 1 0 1 0 0 2zM26.583 21.583a1 1 0 0 0-1-1h-14a1 1 0 0 0-1 1v26a1 1 0 0 0 1 1h14a1 1 0 0 0 1-1v-26zm-2 22.371-4.672-8.677 4.672-8.677v17.354zm-.499 2.629H13.599l5.243-9.736 5.242 9.736zm-5.242-13.708L13.3 22.583h11.083l-5.541 10.292zm-1.07 2.402-5.189 9.638V25.641l5.189 9.636zM59.583 21.583a1 1 0 0 0-1-1h-28a1 1 0 0 0-1 1v26a1 1 0 0 0 1 1h28a1 1 0 0 0 1-1v-26zm-28 2.289 11.999 11.345-11.999 11.14V23.872zm1.889-1.289h23.266L45 33.482 33.472 22.583zm11.516 13.546 11.057 10.454H33.729l11.259-10.454zm1.418-.9 11.177-10.377v20.944L46.406 35.229zM59.583 52.583a1 1 0 0 0-1-1h-47a1 1 0 0 0-1 1v7a1 1 0 0 0 1 1h47a1 1 0 0 0 1-1v-7zm-2 6h-45v-5h45v5z"/></svg>