<svg xmlns="http://www.w3.org/2000/svg" xml:space="preserve" width="70" height="70"><path d="M34.999 2.909c-14.905 0-27.031 12.127-27.031 27.032s12.126 27.032 27.031 27.032c14.906 0 27.033-12.127 27.033-27.032S49.905 2.909 34.999 2.909zm0 50.065c-12.721 0-23.031-10.311-23.031-23.032S22.278 6.909 34.999 6.909 58.032 17.22 58.032 29.941 47.72 52.974 34.999 52.974zM51.934 63.515c-4.626-3.614-10.64-5.605-16.935-5.605-6.149 0-12.061 1.911-16.644 5.382a2 2 0 0 0 2.415 3.19c3.893-2.948 8.945-4.571 14.229-4.571 5.406 0 10.546 1.689 14.472 4.758a1.997 1.997 0 0 0 2.807-.345 2.002 2.002 0 0 0-.344-2.809z"/><path d="M34.999 18.392c-6.368 0-11.549 5.182-11.549 11.55s5.181 11.55 11.549 11.55c6.369 0 11.551-5.182 11.551-11.55s-5.182-11.55-11.551-11.55zm0 21.099c-5.274 0-9.549-4.274-9.549-9.55s4.274-9.55 9.549-9.55c5.275 0 9.551 4.274 9.551 9.55s-4.276 9.55-9.551 9.55z"/><path d="M34.999 22.145c-4.299 0-7.797 3.498-7.797 7.797s3.498 7.797 7.797 7.797c4.3 0 7.798-3.498 7.798-7.797s-3.498-7.797-7.798-7.797zm0 13.593a5.797 5.797 0 1 1 0-11.594 5.797 5.797 0 0 1 0 11.594zM48.481 15.216c-1.924 0-3.49 1.565-3.49 3.49s1.566 3.491 3.49 3.491c1.925 0 3.49-1.566 3.49-3.491s-1.565-3.49-3.49-3.49zm0 4.981a1.49 1.49 0 1 1 .001-2.981 1.49 1.49 0 0 1-.001 2.981zM31.362 14.02a.8.8 0 0 0 .084-.004c.372-.03.75-.045 1.129-.045a1 1 0 1 0 0-2c-.436 0-.868.017-1.295.053a1 1 0 0 0 .082 1.996zM27.423 13.872a1.001 1.001 0 0 0-1.326-.492 15.598 15.598 0 0 0-9.068 14.138 1 1 0 1 0 2 0c0-5.28 3.102-10.116 7.902-12.319.502-.231.722-.825.492-1.327z"/></svg>