<svg xmlns="http://www.w3.org/2000/svg" xml:space="preserve" width="70" height="70"><path d="m58.823 12.968-9.983-8.7c-.75-.75-1.563-1.685-2.623-1.685H13.405c-2.209 0-3.822 1.817-3.822 4.026v57c0 2.209 2.613 2.974 4.822 2.974h42c2.209 0 3.179-.765 3.179-2.974V15.796c-.001-1.061-.011-2.078-.761-2.828zm-2.776 1.615h-8.464V7.621l8.464 6.962zm-.464 48h-42v-56h32v8.834c0 .553.282 1.166.834 1.166h9.166v46z"/><path d="M41.402 38.94c-.03-.527-.469-1.357-.998-1.357h-10c-.529 0-.967.831-.998 1.357l-.948 17.265c-.017.274-.06 1.046.129 1.246.189.201.542.132.817.132h12.021c.552 0 1-.029 1-.582 0-.09-.012-.176-.033-.258l-.99-17.803zM30.465 55.583l.883-16h8.114l.882 16h-9.879z"/><path d="M37.583 50.469a.886.886 0 0 0-.886-.886h-2.228a.886.886 0 0 0-.886.886v2.229c0 .489.397.886.886.886h2.228a.886.886 0 0 0 .886-.886v-2.229zm-1.166 1.948h-2v-2h2v2zM29 33.583h4c.552 0 .583.137.583-.416v-4.584H37c.552 0 .583.137.583-.416v-4c0-.553-.031-1.584-.583-1.584h-3.417v-3H37c.552 0 .583.137.583-.416v-4c0-.553-.031-1.584-.583-1.584h-4c-.552 0-1.417 1.031-1.417 1.584v3.416H29c-.552 0-1.417 1.031-1.417 1.584v4c0 .553.865.416 1.417.416h2.583v3H29c-.552 0-1.417 1.031-1.417 1.584v4c0 .553.865.416 1.417.416zm5-17.416h2v2h-2v-2zm2 11h-2v-2h2v2zm-6-6h2v2h-2v-2zm0 9h2v2h-2v-2z"/></svg>